G04*
G04 #@! TF.GenerationSoftware,Altium Limited,Altium Designer,20.2.4 (192)*
G04*
G04 Layer_Color=128*
%FSLAX25Y25*%
%MOIN*%
G70*
G04*
G04 #@! TF.SameCoordinates,1DD117FB-4894-4434-94E6-58AE3DA5C218*
G04*
G04*
G04 #@! TF.FilePolarity,Positive*
G04*
G01*
G75*
%ADD10C,0.00394*%
%ADD11C,0.00197*%
%ADD12C,0.00787*%
%ADD13C,0.00600*%
%ADD51C,0.00200*%
G36*
X205726Y381364D02*
X205526D01*
X205489Y381425D01*
X205450Y381484D01*
X205402Y381542D01*
X205359Y381593D01*
X205315Y381637D01*
X205282Y381673D01*
X205268Y381684D01*
X205257Y381695D01*
X205253Y381698D01*
X205249Y381702D01*
X205173Y381764D01*
X205096Y381822D01*
X205024Y381873D01*
X204951Y381913D01*
X204889Y381950D01*
X204863Y381964D01*
X204842Y381975D01*
X204823Y381986D01*
X204809Y381990D01*
X204802Y381997D01*
X204798D01*
Y382295D01*
X204853Y382274D01*
X204907Y382248D01*
X204962Y382223D01*
X205013Y382197D01*
X205056Y382175D01*
X205093Y382157D01*
X205115Y382142D01*
X205118Y382139D01*
X205122D01*
X205187Y382099D01*
X205246Y382059D01*
X205297Y382022D01*
X205337Y381990D01*
X205373Y381964D01*
X205395Y381942D01*
X205413Y381928D01*
X205417Y381924D01*
Y383893D01*
X205726D01*
Y381364D01*
D02*
G37*
G36*
X203513Y383933D02*
X203586Y383923D01*
X203651Y383908D01*
X203710Y383890D01*
X203757Y383875D01*
X203790Y383861D01*
X203812Y383850D01*
X203819Y383846D01*
X203877Y383810D01*
X203928Y383766D01*
X203968Y383722D01*
X204004Y383682D01*
X204030Y383642D01*
X204048Y383613D01*
X204059Y383591D01*
X204063Y383588D01*
Y383584D01*
X204088Y383511D01*
X204110Y383435D01*
X204124Y383351D01*
X204132Y383271D01*
X204139Y383202D01*
Y383173D01*
X204143Y383143D01*
Y383122D01*
Y383107D01*
Y383096D01*
Y383093D01*
Y381375D01*
X203808D01*
Y383111D01*
Y383187D01*
X203801Y383253D01*
X203797Y383307D01*
X203790Y383351D01*
X203782Y383384D01*
X203779Y383409D01*
X203771Y383424D01*
Y383428D01*
X203757Y383464D01*
X203739Y383493D01*
X203717Y383519D01*
X203699Y383544D01*
X203677Y383559D01*
X203662Y383573D01*
X203651Y383580D01*
X203648Y383584D01*
X203611Y383602D01*
X203575Y383617D01*
X203538Y383624D01*
X203506Y383631D01*
X203473Y383635D01*
X203451Y383639D01*
X203429D01*
X203371Y383635D01*
X203316Y383620D01*
X203273Y383606D01*
X203233Y383584D01*
X203204Y383566D01*
X203182Y383548D01*
X203167Y383537D01*
X203164Y383533D01*
X203145Y383511D01*
X203131Y383486D01*
X203109Y383428D01*
X203087Y383362D01*
X203076Y383296D01*
X203065Y383235D01*
Y383209D01*
X203062Y383187D01*
X203058Y383165D01*
Y383151D01*
Y383143D01*
Y383140D01*
X202756Y383184D01*
Y383253D01*
X202760Y383315D01*
X202770Y383377D01*
X202778Y383431D01*
X202792Y383482D01*
X202807Y383526D01*
X202821Y383569D01*
X202836Y383606D01*
X202854Y383639D01*
X202869Y383668D01*
X202883Y383693D01*
X202898Y383711D01*
X202909Y383726D01*
X202916Y383740D01*
X202920Y383744D01*
X202923Y383748D01*
X202960Y383781D01*
X202996Y383810D01*
X203036Y383835D01*
X203080Y383857D01*
X203164Y383890D01*
X203244Y383912D01*
X203320Y383926D01*
X203349Y383930D01*
X203378Y383933D01*
X203400Y383937D01*
X203433D01*
X203513Y383933D01*
D02*
G37*
D10*
X183465Y311024D02*
G03*
X183465Y311024I-1969J0D01*
G01*
X300959Y306114D02*
X305093D01*
X300959Y303948D02*
X305093D01*
Y306114D01*
X300959Y303948D02*
Y306114D01*
X203306Y205177D02*
Y209311D01*
X201140Y205177D02*
Y209311D01*
Y205177D02*
X203306D01*
X201140Y209311D02*
X203306D01*
X199709Y255790D02*
X201875D01*
X199709Y251656D02*
X201875D01*
X199709D02*
Y255790D01*
X201875Y251656D02*
Y255790D01*
X243504Y318307D02*
X262008D01*
X243504Y268307D02*
X262008D01*
Y318307D01*
X243504Y268307D02*
Y318307D01*
X277658Y120965D02*
X281791D01*
X277658Y123130D02*
X281791D01*
X277658Y120965D02*
Y123130D01*
X281791Y120965D02*
Y123130D01*
X279626Y38287D02*
X283760D01*
X279626Y40453D02*
X283760D01*
X279626Y38287D02*
Y40453D01*
X283760Y38287D02*
Y40453D01*
X200886Y38287D02*
X205020D01*
X200886Y40453D02*
X205020D01*
X200886Y38287D02*
Y40453D01*
X205020Y38287D02*
Y40453D01*
X279232Y361122D02*
X283366D01*
X279232Y363287D02*
X283366D01*
X279232Y361122D02*
Y363287D01*
X283366Y361122D02*
Y363287D01*
X39272Y38287D02*
X43406D01*
X39272Y40453D02*
X43406D01*
X39272Y38287D02*
Y40453D01*
X43406Y38287D02*
Y40453D01*
X39075Y120965D02*
X43209D01*
X39075Y123130D02*
X43209D01*
X39075Y120965D02*
Y123130D01*
X43209Y120965D02*
Y123130D01*
X121752Y199705D02*
X125886D01*
X121752Y201870D02*
X125886D01*
X121752Y199705D02*
Y201870D01*
X125886Y199705D02*
Y201870D01*
X39075Y278445D02*
X43209D01*
X39075Y280610D02*
X43209D01*
X39075Y278445D02*
Y280610D01*
X43209Y278445D02*
Y280610D01*
X117815Y361122D02*
X121949D01*
X117815Y363287D02*
X121949D01*
X117815Y361122D02*
Y363287D01*
X121949Y361122D02*
Y363287D01*
X216339Y362992D02*
Y365354D01*
X220669Y362992D02*
Y365354D01*
X216339Y362992D02*
X220669D01*
X216339Y365354D02*
X220669D01*
X263779Y278543D02*
X266142D01*
X263779Y274213D02*
X266142D01*
X263779D02*
Y278543D01*
X266142Y274213D02*
Y278543D01*
X235728Y319941D02*
X239862D01*
X235728Y322106D02*
X239862D01*
X235728Y319941D02*
Y322106D01*
X239862Y319941D02*
Y322106D01*
X185886Y341988D02*
X188051D01*
X185886Y346122D02*
X188051D01*
Y341988D02*
Y346122D01*
X185886Y341988D02*
Y346122D01*
X235728Y326831D02*
X239862D01*
X235728Y324665D02*
X239862D01*
Y326831D01*
X235728Y324665D02*
Y326831D01*
X182933Y337067D02*
X187067D01*
X182933Y339232D02*
X187067D01*
X182933Y337067D02*
Y339232D01*
X187067Y337067D02*
Y339232D01*
X177953Y314567D02*
X217323D01*
X177953Y275197D02*
X217323D01*
X177953D02*
Y314567D01*
X217323Y275197D02*
Y314567D01*
X227165Y332441D02*
X246850D01*
X227165Y352126D02*
X246850D01*
Y332441D02*
Y352126D01*
X227165Y332441D02*
Y352126D01*
X358169Y123130D02*
X362303D01*
X358169Y120965D02*
X362303D01*
Y123130D01*
X358169Y120965D02*
Y123130D01*
Y40453D02*
X362303D01*
X358169Y38287D02*
X362303D01*
Y40453D01*
X358169Y38287D02*
Y40453D01*
X357893Y363115D02*
X362027D01*
X357893Y360949D02*
X362027D01*
Y363115D01*
X357893Y360949D02*
Y363115D01*
X357601Y305737D02*
X361735D01*
X357601Y303571D02*
X361735D01*
Y305737D01*
X357601Y303571D02*
Y305737D01*
X208307Y119622D02*
Y123756D01*
X206142Y119622D02*
Y123756D01*
Y119622D02*
X208307D01*
X206142Y123756D02*
X208307D01*
X122146Y38287D02*
X126279D01*
X122146Y40453D02*
X126279D01*
X122146Y38287D02*
Y40453D01*
X126279Y38287D02*
Y40453D01*
X117815Y120965D02*
X121949D01*
X117815Y123130D02*
X121949D01*
X117815Y120965D02*
Y123130D01*
X121949Y120965D02*
Y123130D01*
X39272Y199705D02*
X43406D01*
X39272Y201870D02*
X43406D01*
X39272Y199705D02*
Y201870D01*
X43406Y199705D02*
Y201870D01*
X117815Y278445D02*
X121949D01*
X117815Y280610D02*
X121949D01*
X117815Y278445D02*
Y280610D01*
X121949Y278445D02*
Y280610D01*
X39075Y361122D02*
X43209D01*
X39075Y363287D02*
X43209D01*
X39075Y361122D02*
Y363287D01*
X43209Y361122D02*
Y363287D01*
X279626Y199705D02*
X283760D01*
X279626Y201870D02*
X283760D01*
X279626Y199705D02*
Y201870D01*
X283760Y199705D02*
Y201870D01*
X189173Y362992D02*
Y365354D01*
X184843Y362992D02*
Y365354D01*
X189173D01*
X184843Y362992D02*
X189173D01*
X162500Y303248D02*
Y305413D01*
X166634Y303248D02*
Y305413D01*
X162500Y303248D02*
X166634D01*
X162500Y305413D02*
X166634D01*
X191398Y341988D02*
Y346122D01*
X193563Y341988D02*
Y346122D01*
X191398D02*
X193563D01*
X191398Y341988D02*
X193563D01*
X263779Y308071D02*
X266142D01*
X263779Y312402D02*
X266142D01*
Y308071D02*
Y312402D01*
X263779Y308071D02*
Y312402D01*
X358210Y200215D02*
Y202381D01*
X362343Y200215D02*
Y202381D01*
X358210Y200215D02*
X362343D01*
X358210Y202381D02*
X362343D01*
X192382Y337067D02*
X196516D01*
X192382Y339232D02*
X196516D01*
X192382Y337067D02*
Y339232D01*
X196516Y337067D02*
Y339232D01*
X252756Y291339D02*
Y295276D01*
X250787Y293307D02*
X254724D01*
X217323Y364173D02*
X219685D01*
X218504Y362992D02*
Y365354D01*
X264961Y275197D02*
Y277559D01*
X263779Y276378D02*
X266142D01*
X237795Y319941D02*
Y322106D01*
X236713Y321024D02*
X238878D01*
X186969Y342972D02*
Y345138D01*
X185886Y344055D02*
X188051D01*
X237795Y324665D02*
Y326831D01*
X236713Y325748D02*
X238878D01*
X185000Y337067D02*
Y339232D01*
X183917Y338150D02*
X186083D01*
X197638Y292913D02*
Y296850D01*
X195669Y294882D02*
X199606D01*
X235039Y342284D02*
X238976D01*
X237008Y340315D02*
Y344252D01*
X185827Y364173D02*
X188189D01*
X187008Y362992D02*
Y365354D01*
X163484Y304331D02*
X165650D01*
X164567Y303248D02*
Y305413D01*
X191398Y344055D02*
X193563D01*
X192480Y342972D02*
Y345138D01*
X264961Y309055D02*
Y311417D01*
X263779Y310236D02*
X266142D01*
X194449Y337067D02*
Y339232D01*
X193366Y338150D02*
X195531D01*
X197642Y384646D02*
X207870D01*
X202756Y379532D02*
Y389760D01*
X211446Y344529D02*
X215384D01*
X213415Y342561D02*
Y346498D01*
X181876Y329050D02*
Y332987D01*
X179907Y331019D02*
X183844D01*
X197638Y325197D02*
Y329134D01*
X195669Y327165D02*
X199606D01*
X163386Y310630D02*
X167323D01*
X165354Y308661D02*
Y312598D01*
X228740Y304331D02*
X232677D01*
X230709Y302362D02*
Y306299D01*
X163386Y279134D02*
X167323D01*
X165354Y277165D02*
Y281102D01*
X210386Y260189D02*
Y264126D01*
X208418Y262158D02*
X212354D01*
D11*
X303026Y303948D02*
Y306114D01*
X301943Y305031D02*
X304108D01*
X298695Y307393D02*
X307356D01*
X298695Y302669D02*
X307356D01*
Y307393D01*
X298695Y302669D02*
Y307393D01*
X201140Y207244D02*
X203306D01*
X202223Y206161D02*
Y208326D01*
X204585Y202913D02*
Y211574D01*
X199861Y202913D02*
Y211574D01*
Y202913D02*
X204585D01*
X199861Y211574D02*
X204585D01*
X198430Y258054D02*
X203154D01*
X198430Y249392D02*
X203154D01*
X198430D02*
Y258054D01*
X203154Y249392D02*
Y258054D01*
X200792Y252640D02*
Y254806D01*
X199709Y253723D02*
X201875D01*
X243110Y263189D02*
Y323425D01*
X262402Y263189D02*
Y323425D01*
X243110Y263189D02*
X262402D01*
X243110Y323425D02*
X262402D01*
X279724Y120965D02*
Y123130D01*
X278642Y122047D02*
X280807D01*
X275394Y119685D02*
X284055D01*
X275394Y124409D02*
X284055D01*
X275394Y119685D02*
Y124409D01*
X284055Y119685D02*
Y124409D01*
X281693Y38287D02*
Y40453D01*
X280610Y39370D02*
X282776D01*
X277362Y37008D02*
X286024D01*
X277362Y41732D02*
X286024D01*
X277362Y37008D02*
Y41732D01*
X286024Y37008D02*
Y41732D01*
X202953Y38287D02*
Y40453D01*
X201870Y39370D02*
X204035D01*
X198622Y37008D02*
X207283D01*
X198622Y41732D02*
X207283D01*
X198622Y37008D02*
Y41732D01*
X207283Y37008D02*
Y41732D01*
X281299Y361122D02*
Y363287D01*
X280217Y362205D02*
X282382D01*
X276969Y359842D02*
X285630D01*
X276969Y364567D02*
X285630D01*
X276969Y359842D02*
Y364567D01*
X285630Y359842D02*
Y364567D01*
X41339Y38287D02*
Y40453D01*
X40256Y39370D02*
X42421D01*
X37008Y37008D02*
X45669D01*
X37008Y41732D02*
X45669D01*
X37008Y37008D02*
Y41732D01*
X45669Y37008D02*
Y41732D01*
X41142Y120965D02*
Y123130D01*
X40059Y122047D02*
X42224D01*
X36811Y119685D02*
X45472D01*
X36811Y124409D02*
X45472D01*
X36811Y119685D02*
Y124409D01*
X45472Y119685D02*
Y124409D01*
X123819Y199705D02*
Y201870D01*
X122736Y200787D02*
X124902D01*
X119488Y198425D02*
X128150D01*
X119488Y203150D02*
X128150D01*
X119488Y198425D02*
Y203150D01*
X128150Y198425D02*
Y203150D01*
X41142Y278445D02*
Y280610D01*
X40059Y279528D02*
X42224D01*
X36811Y277165D02*
X45472D01*
X36811Y281890D02*
X45472D01*
X36811Y277165D02*
Y281890D01*
X45472Y277165D02*
Y281890D01*
X119882Y361122D02*
Y363287D01*
X118799Y362205D02*
X120965D01*
X115551Y359842D02*
X124213D01*
X115551Y364567D02*
X124213D01*
X115551Y359842D02*
Y364567D01*
X124213Y359842D02*
Y364567D01*
X214961Y362402D02*
Y365945D01*
X222047Y362402D02*
Y365945D01*
X214961Y362402D02*
X222047D01*
X214961Y365945D02*
X222047D01*
X262992Y280118D02*
X266929D01*
X262992Y272638D02*
X266929D01*
X262992D02*
Y280118D01*
X266929Y272638D02*
Y280118D01*
X234252Y319252D02*
X241339D01*
X234252Y322795D02*
X241339D01*
X234252Y319252D02*
Y322795D01*
X241339Y319252D02*
Y322795D01*
X185394Y341102D02*
X188543D01*
X185394Y347008D02*
X188543D01*
Y341102D02*
Y347008D01*
X185394Y341102D02*
Y347008D01*
X233465Y328110D02*
X242126D01*
X233465Y323386D02*
X242126D01*
Y328110D01*
X233465Y323386D02*
Y328110D01*
X180669Y335787D02*
X189331D01*
X180669Y340512D02*
X189331D01*
X180669Y335787D02*
Y340512D01*
X189331Y335787D02*
Y340512D01*
X169291Y323228D02*
X225984D01*
X169291Y266535D02*
X225984D01*
X169291D02*
Y323228D01*
X225984Y266535D02*
Y323228D01*
X226772Y328563D02*
X247244D01*
X226772D02*
Y356004D01*
X247244Y328563D02*
Y356004D01*
X226772D02*
X247244D01*
X360236Y120965D02*
Y123130D01*
X359154Y122047D02*
X361319D01*
X355906Y124409D02*
X364567D01*
X355906Y119685D02*
X364567D01*
Y124409D01*
X355906Y119685D02*
Y124409D01*
X360236Y38287D02*
Y40453D01*
X359154Y39370D02*
X361319D01*
X355906Y41732D02*
X364567D01*
X355906Y37008D02*
X364567D01*
Y41732D01*
X355906Y37008D02*
Y41732D01*
X359960Y360949D02*
Y363115D01*
X358877Y362032D02*
X361043D01*
X355629Y364394D02*
X364291D01*
X355629Y359670D02*
X364291D01*
Y364394D01*
X355629Y359670D02*
Y364394D01*
X359668Y303571D02*
Y305737D01*
X358585Y304654D02*
X360751D01*
X355337Y307016D02*
X363999D01*
X355337Y302292D02*
X363999D01*
Y307016D01*
X355337Y302292D02*
Y307016D01*
X206142Y121689D02*
X208307D01*
X207224Y120606D02*
Y122772D01*
X209587Y117358D02*
Y126020D01*
X204862Y117358D02*
Y126020D01*
Y117358D02*
X209587D01*
X204862Y126020D02*
X209587D01*
X124213Y38287D02*
Y40453D01*
X123130Y39370D02*
X125295D01*
X119882Y37008D02*
X128543D01*
X119882Y41732D02*
X128543D01*
X119882Y37008D02*
Y41732D01*
X128543Y37008D02*
Y41732D01*
X119882Y120965D02*
Y123130D01*
X118799Y122047D02*
X120965D01*
X115551Y119685D02*
X124213D01*
X115551Y124409D02*
X124213D01*
X115551Y119685D02*
Y124409D01*
X124213Y119685D02*
Y124409D01*
X41339Y199705D02*
Y201870D01*
X40256Y200787D02*
X42421D01*
X37008Y198425D02*
X45669D01*
X37008Y203150D02*
X45669D01*
X37008Y198425D02*
Y203150D01*
X45669Y198425D02*
Y203150D01*
X119882Y278445D02*
Y280610D01*
X118799Y279528D02*
X120965D01*
X115551Y277165D02*
X124213D01*
X115551Y281890D02*
X124213D01*
X115551Y277165D02*
Y281890D01*
X124213Y277165D02*
Y281890D01*
X41142Y361122D02*
Y363287D01*
X40059Y362205D02*
X42224D01*
X36811Y359842D02*
X45472D01*
X36811Y364567D02*
X45472D01*
X36811Y359842D02*
Y364567D01*
X45472Y359842D02*
Y364567D01*
X281693Y199705D02*
Y201870D01*
X280610Y200787D02*
X282776D01*
X277362Y198425D02*
X286024D01*
X277362Y203150D02*
X286024D01*
X277362Y198425D02*
Y203150D01*
X286024Y198425D02*
Y203150D01*
X190551Y362402D02*
Y365945D01*
X183465Y362402D02*
Y365945D01*
X190551D01*
X183465Y362402D02*
X190551D01*
X160236Y301969D02*
Y306693D01*
X168898Y301969D02*
Y306693D01*
X160236Y301969D02*
X168898D01*
X160236Y306693D02*
X168898D01*
X190905Y341102D02*
Y347008D01*
X194055Y341102D02*
Y347008D01*
X190905D02*
X194055D01*
X190905Y341102D02*
X194055D01*
X262992Y306496D02*
X266929D01*
X262992Y313976D02*
X266929D01*
Y306496D02*
Y313976D01*
X262992Y306496D02*
Y313976D01*
X355946Y198936D02*
Y203660D01*
X364607Y198936D02*
Y203660D01*
X355946Y198936D02*
X364607D01*
X355946Y203660D02*
X364607D01*
X359194Y201298D02*
X361359D01*
X360277Y200215D02*
Y202381D01*
X190118Y335787D02*
X198779D01*
X190118Y340512D02*
X198779D01*
X190118Y335787D02*
Y340512D01*
X198779Y335787D02*
Y340512D01*
D12*
X183189Y366890D02*
X222323D01*
Y400984D01*
X183189D02*
X222323D01*
X183189Y366890D02*
Y400984D01*
X211840Y341380D02*
X214990D01*
X211840D02*
Y347679D01*
X214990D01*
Y341380D02*
Y347679D01*
X185025Y329444D02*
Y332594D01*
X178726Y329444D02*
X185025D01*
X178726D02*
Y332594D01*
X185025D01*
X199213Y324016D02*
Y330315D01*
X196063D02*
X199213D01*
X196063Y324016D02*
Y330315D01*
Y324016D02*
X199213D01*
X162205Y312205D02*
X168504D01*
X162205Y309055D02*
Y312205D01*
Y309055D02*
X168504D01*
Y312205D01*
X227559Y302756D02*
X233858D01*
Y305906D01*
X227559D02*
X233858D01*
X227559Y302756D02*
Y305906D01*
X162205Y280709D02*
X168504D01*
X162205Y277559D02*
Y280709D01*
Y277559D02*
X168504D01*
Y280709D01*
X208811Y259008D02*
Y265307D01*
Y259008D02*
X211961D01*
Y265307D01*
X208811D02*
X211961D01*
X183189Y366890D02*
X222323D01*
Y400984D01*
X183189D02*
X222323D01*
X183189Y366890D02*
Y400984D01*
X211840Y341380D02*
X214990D01*
X211840D02*
Y347679D01*
X214990D01*
Y341380D02*
Y347679D01*
X185025Y329444D02*
Y332594D01*
X178726Y329444D02*
X185025D01*
X178726D02*
Y332594D01*
X185025D01*
X199213Y324016D02*
Y330315D01*
X196063D02*
X199213D01*
X196063Y324016D02*
Y330315D01*
Y324016D02*
X199213D01*
X162205Y312205D02*
X168504D01*
X162205Y309055D02*
Y312205D01*
Y309055D02*
X168504D01*
Y312205D01*
X227559Y302756D02*
X233858D01*
Y305906D01*
X227559D02*
X233858D01*
X227559Y302756D02*
Y305906D01*
X162205Y280709D02*
X168504D01*
X162205Y277559D02*
Y280709D01*
Y277559D02*
X168504D01*
Y280709D01*
X208811Y259008D02*
Y265307D01*
Y259008D02*
X211961D01*
Y265307D01*
X208811D02*
X211961D01*
X184764Y368701D02*
X220748D01*
Y400591D01*
X184764D02*
X220748D01*
X184764Y368701D02*
Y400591D01*
X183189Y399488D02*
X222323D01*
X212332Y342462D02*
X214498D01*
X212332D02*
Y346596D01*
X214498D01*
Y342462D02*
Y346596D01*
X183943Y329936D02*
Y332102D01*
X179809Y329936D02*
X183943D01*
X179809D02*
Y332102D01*
X183943D01*
X198721Y325098D02*
Y329232D01*
X196555D02*
X198721D01*
X196555Y325098D02*
Y329232D01*
Y325098D02*
X198721D01*
X163287Y311713D02*
X167421D01*
X163287Y309547D02*
Y311713D01*
Y309547D02*
X167421D01*
Y311713D01*
X228642Y303248D02*
X232776D01*
Y305413D01*
X228642D02*
X232776D01*
X228642Y303248D02*
Y305413D01*
X163287Y280217D02*
X167421D01*
X163287Y278051D02*
Y280217D01*
Y278051D02*
X167421D01*
Y280217D01*
X209303Y260091D02*
Y264225D01*
Y260091D02*
X211469D01*
Y264225D01*
X209303D02*
X211469D01*
D13*
X198449Y334368D02*
X198982Y334901D01*
X200048D01*
X200581Y334368D01*
Y332236D01*
X200048Y331702D01*
X198982D01*
X198449Y332236D01*
X197382D02*
X196849Y331702D01*
X195783D01*
X195249Y332236D01*
Y334368D01*
X195783Y334901D01*
X196849D01*
X197382Y334368D01*
Y333835D01*
X196849Y333302D01*
X195249D01*
X165771Y317045D02*
X166304Y317579D01*
X167371D01*
X167904Y317045D01*
Y314913D01*
X167371Y314380D01*
X166304D01*
X165771Y314913D01*
X164705Y317579D02*
X162572D01*
Y317045D01*
X164705Y314913D01*
Y314380D01*
X232700Y300116D02*
X233234Y300649D01*
X234300D01*
X234833Y300116D01*
Y297984D01*
X234300Y297450D01*
X233234D01*
X232700Y297984D01*
X231634Y297450D02*
X230568D01*
X231101D01*
Y300649D01*
X231634Y300116D01*
X228968D02*
X228435Y300649D01*
X227369D01*
X226836Y300116D01*
Y297984D01*
X227369Y297450D01*
X228435D01*
X228968Y297984D01*
Y300116D01*
X165771Y274919D02*
X166304Y275452D01*
X167371D01*
X167904Y274919D01*
Y272787D01*
X167371Y272253D01*
X166304D01*
X165771Y272787D01*
X164705Y274919D02*
X164172Y275452D01*
X163105D01*
X162572Y274919D01*
Y274386D01*
X163105Y273853D01*
X162572Y273320D01*
Y272787D01*
X163105Y272253D01*
X164172D01*
X164705Y272787D01*
Y273320D01*
X164172Y273853D01*
X164705Y274386D01*
Y274919D01*
X164172Y273853D02*
X163105D01*
X210803Y257550D02*
X211336Y258083D01*
X212403D01*
X212936Y257550D01*
Y255417D01*
X212403Y254884D01*
X211336D01*
X210803Y255417D01*
X207604Y258083D02*
X208670Y257550D01*
X209737Y256483D01*
Y255417D01*
X209204Y254884D01*
X208137D01*
X207604Y255417D01*
Y255950D01*
X208137Y256483D01*
X209737D01*
D51*
X182598Y371417D02*
X188898D01*
X185748Y368268D02*
Y374567D01*
X216614Y371417D02*
X222913D01*
X219764Y368268D02*
Y374567D01*
X181614Y392520D02*
X189882D01*
X185748Y388386D02*
Y396654D01*
X215630Y392520D02*
X223898D01*
X219764Y388386D02*
Y396654D01*
X204124Y363386D02*
X205324D01*
X204724Y362786D02*
Y363986D01*
X125431Y234327D02*
X126631D01*
X126031Y233727D02*
Y234927D01*
X121411Y328970D02*
X122611D01*
X122011Y328370D02*
Y329570D01*
X72891Y352367D02*
X74091D01*
X73491Y351767D02*
Y352967D01*
X70038Y256117D02*
X71237D01*
X70638Y255517D02*
Y256717D01*
X72914Y208306D02*
X74114D01*
X73514Y207706D02*
Y208906D01*
X72157Y122104D02*
X73357D01*
X72757Y121504D02*
Y122704D01*
X71995Y39396D02*
X73195D01*
X72595Y38796D02*
Y39996D01*
X150684Y151448D02*
X151884D01*
X151284Y150848D02*
Y152048D01*
X281364Y366492D02*
X282564D01*
X281964Y365892D02*
Y367092D01*
X328168Y370277D02*
X329368D01*
X328768Y369677D02*
Y370877D01*
X300427Y312483D02*
X301627D01*
X301027Y311883D02*
Y313083D01*
X348974Y312576D02*
X350174D01*
X349574Y311976D02*
Y313176D01*
X329186Y229907D02*
X330385D01*
X329785Y229307D02*
Y230507D01*
X328762Y55225D02*
X329962D01*
X329362Y54625D02*
Y55825D01*
X252269Y72727D02*
X253469D01*
X252869Y72127D02*
Y73327D01*
X328140Y142557D02*
X329340D01*
X328740Y141957D02*
Y143157D01*
X253779Y152685D02*
X254979D01*
X254379Y152085D02*
Y153285D01*
X247915Y200837D02*
X249115D01*
X248515Y200237D02*
Y201437D01*
X200065Y260933D02*
X201265D01*
X200665Y260333D02*
Y261533D01*
X203303Y219387D02*
X204503D01*
X203903Y218787D02*
Y219987D01*
X206355Y151457D02*
X207555D01*
X206955Y150857D02*
Y152057D01*
X219491Y72966D02*
X220691D01*
X220091Y72366D02*
Y73566D01*
X152352Y66560D02*
X153552D01*
X152952Y65960D02*
Y67160D01*
X153171Y294878D02*
X154371D01*
X153771Y294278D02*
Y295478D01*
X193838Y239138D02*
X195038D01*
X194438Y238538D02*
Y239738D01*
X241806Y200675D02*
X243006D01*
X242406Y200075D02*
Y201275D01*
X220121Y332591D02*
X221321D01*
X220721Y331991D02*
Y333191D01*
X159985Y319434D02*
X161186D01*
X160585Y318834D02*
Y320034D01*
X200314Y239229D02*
X201514D01*
X200914Y238629D02*
Y239829D01*
X317950Y240525D02*
X319150D01*
X318550Y239925D02*
Y241125D01*
X229199Y319498D02*
X230399D01*
X229799Y318898D02*
Y320098D01*
X341916Y319618D02*
X343116D01*
X342516Y319018D02*
Y320218D01*
X201650Y160568D02*
X202850D01*
X202250Y159968D02*
Y161169D01*
X199400Y363386D02*
X200600D01*
X200000Y362786D02*
Y363986D01*
X199400Y379921D02*
X200600D01*
X200000Y379321D02*
Y380521D01*
X204912Y379921D02*
X206112D01*
X205512Y379321D02*
Y380521D01*
X208455Y379921D02*
X209655D01*
X209055Y379321D02*
Y380521D01*
X211605Y364173D02*
X212805D01*
X212205Y363573D02*
Y364773D01*
M02*
