G04*
G04 #@! TF.GenerationSoftware,Altium Limited,Altium Designer,20.1.14 (287)*
G04*
G04 Layer_Physical_Order=2*
G04 Layer_Color=16711680*
%FSLAX25Y25*%
%MOIN*%
G70*
G04*
G04 #@! TF.SameCoordinates,6159EE71-3121-4CAE-BACB-EE203CEA38BF*
G04*
G04*
G04 #@! TF.FilePolarity,Positive*
G04*
G01*
G75*
%ADD10C,0.00394*%
%ADD11C,0.00197*%
%ADD12C,0.00787*%
%ADD13C,0.00600*%
G04:AMPARAMS|DCode=15|XSize=43.31mil|YSize=82.68mil|CornerRadius=21.65mil|HoleSize=0mil|Usage=FLASHONLY|Rotation=0.000|XOffset=0mil|YOffset=0mil|HoleType=Round|Shape=RoundedRectangle|*
%AMROUNDEDRECTD15*
21,1,0.04331,0.03937,0,0,0.0*
21,1,0.00000,0.08268,0,0,0.0*
1,1,0.04331,0.00000,-0.01968*
1,1,0.04331,0.00000,-0.01968*
1,1,0.04331,0.00000,0.01968*
1,1,0.04331,0.00000,0.01968*
%
%ADD15ROUNDEDRECTD15*%
G04:AMPARAMS|DCode=16|XSize=43.31mil|YSize=102.36mil|CornerRadius=21.65mil|HoleSize=0mil|Usage=FLASHONLY|Rotation=0.000|XOffset=0mil|YOffset=0mil|HoleType=Round|Shape=RoundedRectangle|*
%AMROUNDEDRECTD16*
21,1,0.04331,0.05906,0,0,0.0*
21,1,0.00000,0.10236,0,0,0.0*
1,1,0.04331,0.00000,-0.02953*
1,1,0.04331,0.00000,-0.02953*
1,1,0.04331,0.00000,0.02953*
1,1,0.04331,0.00000,0.02953*
%
%ADD16ROUNDEDRECTD16*%
%ADD18C,0.01000*%
%ADD19C,0.00500*%
%ADD21C,0.02400*%
%ADD22C,0.02000*%
%ADD23R,0.01181X0.02756*%
%ADD24R,0.03937X0.02756*%
%ADD25R,0.02559X0.02953*%
%ADD26R,0.02047X0.02047*%
%ADD27R,0.02047X0.02047*%
%ADD28R,0.02953X0.02559*%
%ADD29R,0.08268X0.22047*%
%ADD30R,0.02559X0.02362*%
%ADD31R,0.02520X0.02677*%
%ADD32R,0.02165X0.02165*%
%ADD33R,0.01772X0.01772*%
%ADD34R,0.02992X0.02835*%
%ADD35O,0.02362X0.08071*%
%ADD36O,0.08071X0.02362*%
%ADD37R,0.05000X0.05000*%
G36*
X401575Y401575D02*
X401575Y-0D01*
X0Y0D01*
X-0Y401575D01*
X401575Y401575D01*
D02*
G37*
%LPC*%
G36*
X220264Y398598D02*
Y393020D01*
X222934D01*
Y395472D01*
X222914Y395827D01*
X222855Y396178D01*
X222756Y396519D01*
X222620Y396848D01*
X222448Y397159D01*
X222242Y397449D01*
X222006Y397714D01*
X221741Y397951D01*
X221450Y398157D01*
X221139Y398329D01*
X220811Y398465D01*
X220469Y398563D01*
X220264Y398598D01*
D02*
G37*
G36*
X219264D02*
X219058Y398563D01*
X218717Y398465D01*
X218388Y398329D01*
X218077Y398157D01*
X217787Y397951D01*
X217522Y397714D01*
X217285Y397449D01*
X217079Y397159D01*
X216907Y396848D01*
X216771Y396519D01*
X216673Y396178D01*
X216613Y395827D01*
X216593Y395472D01*
Y393020D01*
X219264D01*
Y398598D01*
D02*
G37*
G36*
X186248D02*
Y393020D01*
X188918D01*
Y395472D01*
X188899Y395827D01*
X188839Y396178D01*
X188741Y396519D01*
X188604Y396848D01*
X188432Y397159D01*
X188227Y397449D01*
X187990Y397714D01*
X187725Y397951D01*
X187435Y398157D01*
X187124Y398329D01*
X186795Y398465D01*
X186453Y398563D01*
X186248Y398598D01*
D02*
G37*
G36*
X185248D02*
X185043Y398563D01*
X184701Y398465D01*
X184372Y398329D01*
X184061Y398157D01*
X183771Y397951D01*
X183506Y397714D01*
X183269Y397449D01*
X183064Y397159D01*
X182892Y396848D01*
X182756Y396519D01*
X182657Y396178D01*
X182598Y395827D01*
X182578Y395472D01*
Y393020D01*
X185248D01*
Y398598D01*
D02*
G37*
G36*
X222934Y392020D02*
X220264D01*
Y386441D01*
X220469Y386476D01*
X220811Y386575D01*
X221139Y386711D01*
X221450Y386882D01*
X221741Y387088D01*
X222006Y387325D01*
X222242Y387590D01*
X222448Y387880D01*
X222620Y388191D01*
X222756Y388520D01*
X222855Y388861D01*
X222914Y389212D01*
X222934Y389567D01*
Y392020D01*
D02*
G37*
G36*
X219264D02*
X216593D01*
Y389567D01*
X216613Y389212D01*
X216673Y388861D01*
X216771Y388520D01*
X216907Y388191D01*
X217079Y387880D01*
X217285Y387590D01*
X217522Y387325D01*
X217787Y387088D01*
X218077Y386882D01*
X218388Y386711D01*
X218717Y386575D01*
X219058Y386476D01*
X219264Y386441D01*
Y392020D01*
D02*
G37*
G36*
X188918D02*
X186248D01*
Y386441D01*
X186453Y386476D01*
X186795Y386575D01*
X187124Y386711D01*
X187435Y386882D01*
X187725Y387088D01*
X187990Y387325D01*
X188227Y387590D01*
X188432Y387880D01*
X188604Y388191D01*
X188741Y388520D01*
X188839Y388861D01*
X188899Y389212D01*
X188918Y389567D01*
Y392020D01*
D02*
G37*
G36*
X185248D02*
X182578D01*
Y389567D01*
X182598Y389212D01*
X182657Y388861D01*
X182756Y388520D01*
X182892Y388191D01*
X183064Y387880D01*
X183269Y387590D01*
X183506Y387325D01*
X183771Y387088D01*
X184061Y386882D01*
X184372Y386711D01*
X184701Y386575D01*
X185043Y386476D01*
X185248Y386441D01*
Y392020D01*
D02*
G37*
G36*
X211619Y383682D02*
X205721D01*
Y381373D01*
X205520D01*
X205505Y381404D01*
X205485Y381434D01*
X205444Y381495D01*
X205398Y381552D01*
X205352Y381605D01*
X205330Y381626D01*
X205311Y381648D01*
X205293Y381665D01*
X205278Y381681D01*
X205263Y381694D01*
X205254Y381703D01*
X205248Y381709D01*
X205245Y381711D01*
X205171Y381772D01*
X205093Y381829D01*
X205016Y381879D01*
X204982Y381903D01*
X204947Y381923D01*
X204914Y381942D01*
X204886Y381958D01*
X204860Y381973D01*
X204838Y381984D01*
X204820Y381993D01*
X204805Y381999D01*
X204796Y382003D01*
X204794Y382006D01*
Y382304D01*
X204849Y382282D01*
X204905Y382256D01*
X204960Y382230D01*
X205010Y382204D01*
X205032Y382193D01*
X205054Y382180D01*
X205071Y382171D01*
X205086Y382162D01*
X205099Y382156D01*
X205108Y382150D01*
X205115Y382147D01*
X205117Y382145D01*
X205182Y382106D01*
X205239Y382067D01*
X205289Y382030D01*
X205333Y381999D01*
X205350Y381984D01*
X205365Y381971D01*
X205378Y381960D01*
X205392Y381949D01*
X205400Y381942D01*
X205407Y381936D01*
X205409Y381934D01*
X205411Y381931D01*
Y383682D01*
X204003D01*
X204003Y383682D01*
X204029Y383643D01*
X204040Y383628D01*
X204046Y383612D01*
X204053Y383601D01*
X204057Y383590D01*
X204062Y383586D01*
Y383584D01*
X204075Y383549D01*
X204088Y383512D01*
X204107Y383434D01*
X204120Y383353D01*
X204131Y383274D01*
X204134Y383237D01*
X204136Y383205D01*
X204138Y383174D01*
Y383148D01*
X204140Y383126D01*
Y383109D01*
Y383100D01*
Y383096D01*
Y381382D01*
X203807D01*
Y383113D01*
Y383152D01*
X203804Y383189D01*
Y383222D01*
X203802Y383253D01*
X203798Y383281D01*
X203796Y383307D01*
X203794Y383331D01*
X203789Y383353D01*
X203787Y383370D01*
X203783Y383385D01*
X203781Y383399D01*
X203778Y383410D01*
X203776Y383418D01*
X203774Y383425D01*
X203772Y383427D01*
Y383429D01*
X203756Y383464D01*
X203737Y383494D01*
X203717Y383521D01*
X203695Y383542D01*
X203676Y383560D01*
X203661Y383573D01*
X203650Y383582D01*
X203645Y383584D01*
X203610Y383604D01*
X203573Y383617D01*
X203538Y383628D01*
X203504Y383634D01*
X203475Y383638D01*
X203451Y383641D01*
X203430D01*
X203399Y383638D01*
X203368Y383636D01*
X203316Y383623D01*
X203270Y383608D01*
X203233Y383588D01*
X203203Y383569D01*
X203181Y383551D01*
X203174Y383545D01*
X203168Y383540D01*
X203166Y383538D01*
X203164Y383536D01*
X203146Y383514D01*
X203131Y383488D01*
X203118Y383460D01*
X203107Y383429D01*
X203087Y383364D01*
X203074Y383298D01*
X203070Y383268D01*
X203065Y383237D01*
X203063Y383211D01*
X203061Y383187D01*
X203059Y383168D01*
X203057Y383154D01*
Y383143D01*
Y383141D01*
X202756Y383183D01*
Y383250D01*
X202760Y383314D01*
X202769Y383375D01*
X202778Y383429D01*
X202791Y383479D01*
X202806Y383527D01*
X202821Y383569D01*
X202836Y383606D01*
X202852Y383638D01*
X202869Y383667D01*
X202877Y383682D01*
X197436D01*
X197240Y383663D01*
X197052Y383606D01*
X196878Y383513D01*
X196726Y383388D01*
X196140Y382802D01*
X196015Y382650D01*
X195922Y382476D01*
X195865Y382287D01*
X195846Y382091D01*
Y378740D01*
X195865Y378544D01*
X195922Y378356D01*
X196015Y378182D01*
X196140Y378030D01*
X196830Y377340D01*
Y376799D01*
X193520D01*
Y377299D01*
X191051D01*
Y374921D01*
X190051D01*
Y377299D01*
X187583D01*
Y376560D01*
X187217Y376307D01*
X187083Y376259D01*
X186795Y376378D01*
X186453Y376477D01*
X186248Y376512D01*
Y371417D01*
X185748D01*
Y370917D01*
X182578D01*
Y369449D01*
X182598Y369094D01*
X182657Y368743D01*
X182756Y368402D01*
X182892Y368073D01*
X183064Y367762D01*
X183269Y367472D01*
X183506Y367207D01*
X183771Y366970D01*
X183935Y366854D01*
X183782Y366354D01*
X183055D01*
Y364673D01*
X185335D01*
Y364173D01*
X185835D01*
Y361992D01*
X187614D01*
Y362492D01*
X190461D01*
Y363420D01*
X194250D01*
X194397Y363434D01*
X194538Y363477D01*
X194668Y363547D01*
X194782Y363640D01*
X199011Y367869D01*
X199011Y367869D01*
X199057Y367925D01*
X200812D01*
X204232Y364505D01*
X204160Y364423D01*
X204036Y364238D01*
X203938Y364038D01*
X203866Y363827D01*
X203823Y363608D01*
X203808Y363386D01*
X203823Y363163D01*
X203866Y362945D01*
X203901Y362841D01*
X191947Y350887D01*
X191854Y350773D01*
X191784Y350643D01*
X191741Y350501D01*
X191727Y350354D01*
Y347016D01*
X191095D01*
Y344244D01*
X191095D01*
Y343866D01*
X191095D01*
Y341094D01*
X191515D01*
Y340067D01*
X190563D01*
Y336232D01*
X191554D01*
Y334707D01*
X190628Y333781D01*
X190503Y333629D01*
X190410Y333455D01*
X190353Y333267D01*
X190334Y333071D01*
Y321528D01*
X190313Y321514D01*
X190147Y321368D01*
X190068Y321278D01*
X189764Y321236D01*
X189460Y321278D01*
X189380Y321368D01*
X189215Y321514D01*
X189194Y321528D01*
Y333071D01*
X189174Y333267D01*
X189117Y333455D01*
X189024Y333629D01*
X188900Y333781D01*
X187895Y334786D01*
Y336232D01*
X188886D01*
Y340067D01*
X187934D01*
Y341094D01*
X188354D01*
Y343744D01*
X188354Y343866D01*
Y344244D01*
X188354Y344366D01*
Y347016D01*
X187722D01*
Y350042D01*
X199455Y361775D01*
X199559Y361740D01*
X199778Y361697D01*
X200000Y361682D01*
X200222Y361697D01*
X200441Y361740D01*
X200652Y361812D01*
X200852Y361910D01*
X201037Y362034D01*
X201205Y362181D01*
X201352Y362349D01*
X201475Y362534D01*
X201574Y362734D01*
X201646Y362945D01*
X201689Y363163D01*
X201704Y363386D01*
X201689Y363608D01*
X201646Y363827D01*
X201574Y364038D01*
X201475Y364238D01*
X201352Y364423D01*
X201205Y364591D01*
X201037Y364737D01*
X200852Y364861D01*
X200652Y364960D01*
X200441Y365031D01*
X200222Y365075D01*
X200000Y365090D01*
X199778Y365075D01*
X199559Y365031D01*
X199348Y364960D01*
X199148Y364861D01*
X198963Y364737D01*
X198795Y364591D01*
X198648Y364423D01*
X198525Y364238D01*
X198426Y364038D01*
X198354Y363827D01*
X198311Y363608D01*
X198296Y363386D01*
X198311Y363163D01*
X198354Y362945D01*
X198390Y362841D01*
X186436Y350887D01*
X186342Y350773D01*
X186272Y350643D01*
X186229Y350501D01*
X186215Y350354D01*
Y347016D01*
X185583D01*
Y344366D01*
X185583Y344244D01*
Y343866D01*
X185583Y343744D01*
Y341094D01*
X185583D01*
X185585Y341067D01*
X185130Y340567D01*
X183610D01*
Y338150D01*
Y335732D01*
X185606D01*
X185885Y335348D01*
Y334370D01*
X185904Y334174D01*
X185961Y333986D01*
X186054Y333812D01*
X186179Y333660D01*
X187184Y332655D01*
Y321528D01*
X187163Y321514D01*
X186998Y321368D01*
X186918Y321278D01*
X186614Y321236D01*
X186310Y321278D01*
X186231Y321368D01*
X186065Y321514D01*
X186027Y321539D01*
Y329416D01*
X186008Y329612D01*
X185951Y329800D01*
X185858Y329974D01*
X185733Y330126D01*
X184974Y330885D01*
Y332542D01*
X182324D01*
Y333043D01*
X180801D01*
Y331019D01*
Y328995D01*
X182324D01*
Y329495D01*
X183522D01*
X184018Y328999D01*
Y321516D01*
X184014Y321514D01*
X183848Y321368D01*
X183768Y321278D01*
X183465Y321236D01*
X183161Y321278D01*
X183081Y321368D01*
X182915Y321514D01*
X182732Y321636D01*
X182535Y321734D01*
X182326Y321804D01*
X182110Y321848D01*
X181890Y321862D01*
X181670Y321848D01*
X181454Y321804D01*
X181245Y321734D01*
X181047Y321636D01*
X180864Y321514D01*
X180716Y321384D01*
X179531Y322569D01*
X179379Y322694D01*
X179205Y322787D01*
X179016Y322844D01*
X178820Y322863D01*
X163010D01*
X162814Y322844D01*
X162625Y322787D01*
X162451Y322694D01*
X162299Y322569D01*
X160846Y321116D01*
X160808Y321123D01*
X160585Y321138D01*
X160363Y321123D01*
X160144Y321080D01*
X159933Y321008D01*
X159734Y320910D01*
X159548Y320786D01*
X159381Y320639D01*
X159234Y320471D01*
X159110Y320286D01*
X159011Y320086D01*
X158940Y319875D01*
X158896Y319656D01*
X158882Y319434D01*
X158896Y319212D01*
X158940Y318993D01*
X159011Y318782D01*
X159110Y318582D01*
X159234Y318397D01*
X159381Y318230D01*
X159548Y318083D01*
X159734Y317959D01*
X159933Y317860D01*
X160144Y317789D01*
X160363Y317745D01*
X160585Y317730D01*
X160808Y317745D01*
X161026Y317789D01*
X161237Y317860D01*
X161437Y317959D01*
X161623Y318083D01*
X161790Y318230D01*
X161937Y318397D01*
X162061Y318582D01*
X162159Y318782D01*
X162231Y318993D01*
X162275Y319212D01*
X162289Y319434D01*
X162275Y319656D01*
X162267Y319695D01*
X163426Y320853D01*
X178404D01*
X180205Y319053D01*
Y314469D01*
X180219Y314249D01*
X180262Y314033D01*
X180333Y313824D01*
X180431Y313626D01*
X180553Y313443D01*
X180699Y313277D01*
X180864Y313132D01*
X181047Y313010D01*
X181245Y312912D01*
X181454Y312841D01*
X181670Y312798D01*
X181890Y312784D01*
X182110Y312798D01*
X182326Y312841D01*
X182535Y312912D01*
X182732Y313010D01*
X182915Y313132D01*
X183081Y313277D01*
X183161Y313368D01*
X183465Y313410D01*
X183768Y313368D01*
X183848Y313277D01*
X184014Y313132D01*
X184035Y313118D01*
Y310942D01*
X183573Y310750D01*
X182982Y311340D01*
X182830Y311465D01*
X182656Y311558D01*
X182468Y311615D01*
X182272Y311635D01*
X179402D01*
X179388Y311655D01*
X179242Y311821D01*
X179077Y311966D01*
X178893Y312089D01*
X178696Y312186D01*
X178487Y312257D01*
X178271Y312300D01*
X178051Y312315D01*
X172343D01*
X172123Y312300D01*
X171906Y312257D01*
X171698Y312186D01*
X171500Y312089D01*
X171317Y311966D01*
X171151Y311821D01*
X171006Y311655D01*
X170992Y311635D01*
X168453D01*
Y312154D01*
X165803D01*
Y312653D01*
X164279D01*
Y310630D01*
Y308606D01*
X165803D01*
Y309106D01*
X168453D01*
Y309625D01*
X170731D01*
X170816Y309501D01*
X170905Y309145D01*
X170830Y309055D01*
X170797Y309026D01*
X170608Y308811D01*
X170450Y308573D01*
X170323Y308317D01*
X170231Y308046D01*
X170218Y307980D01*
X175197D01*
X180175D01*
X180163Y308046D01*
X180071Y308317D01*
X179944Y308573D01*
X179785Y308811D01*
X179597Y309026D01*
X179563Y309055D01*
X179489Y309145D01*
X179578Y309501D01*
X179663Y309625D01*
X181856D01*
X184329Y307152D01*
X189002Y302479D01*
X188643Y302055D01*
X188255Y301539D01*
X187897Y301003D01*
X187569Y300447D01*
X187273Y299873D01*
X187009Y299285D01*
X186779Y298682D01*
X186583Y298067D01*
X186422Y297442D01*
X186296Y296809D01*
X186206Y296170D01*
X186151Y295527D01*
X186133Y294882D01*
X186151Y294237D01*
X186206Y293594D01*
X186296Y292955D01*
X186422Y292322D01*
X186583Y291697D01*
X186779Y291082D01*
X187009Y290479D01*
X187273Y289890D01*
X187569Y289317D01*
X187897Y288761D01*
X188255Y288225D01*
X188643Y287709D01*
X189059Y287216D01*
X189503Y286747D01*
X189972Y286304D01*
X190465Y285887D01*
X190980Y285499D01*
X191517Y285141D01*
X192073Y284813D01*
X192646Y284517D01*
X193142Y284295D01*
X193325Y283833D01*
X193336Y283781D01*
X189693Y280139D01*
X179663D01*
X179578Y280263D01*
X179489Y280619D01*
X179563Y280709D01*
X179597Y280738D01*
X179785Y280953D01*
X179944Y281191D01*
X180071Y281447D01*
X180163Y281718D01*
X180175Y281783D01*
X175197D01*
X170218D01*
X170231Y281718D01*
X170323Y281447D01*
X170450Y281191D01*
X170608Y280953D01*
X170797Y280738D01*
X170830Y280709D01*
X170905Y280619D01*
X170816Y280263D01*
X170731Y280139D01*
X168453D01*
Y280658D01*
X165803D01*
Y281157D01*
X164279D01*
Y279134D01*
Y277110D01*
X165803D01*
Y277610D01*
X168453D01*
Y278129D01*
X170992D01*
X171006Y278108D01*
X171151Y277943D01*
X171317Y277797D01*
X171500Y277675D01*
X171698Y277577D01*
X171906Y277507D01*
X172123Y277464D01*
X172343Y277449D01*
X178051D01*
X178271Y277464D01*
X178487Y277507D01*
X178696Y277577D01*
X178893Y277675D01*
X179077Y277797D01*
X179242Y277943D01*
X179388Y278108D01*
X179402Y278129D01*
X190110D01*
X190306Y278148D01*
X190494Y278205D01*
X190668Y278298D01*
X190820Y278423D01*
X195909Y283512D01*
X196350Y283450D01*
X196993Y283396D01*
X197638Y283377D01*
X198062Y283389D01*
X198283Y283395D01*
X198555Y283418D01*
X198671Y283428D01*
X198674Y283429D01*
X198926Y283450D01*
X199051Y283467D01*
X199565Y283540D01*
X200198Y283666D01*
X200394Y283716D01*
X206674Y277437D01*
X206664Y277219D01*
X206524Y276880D01*
X206442Y276852D01*
X206244Y276754D01*
X206061Y276632D01*
X205895Y276486D01*
X205816Y276396D01*
X205512Y276354D01*
X205208Y276396D01*
X205128Y276486D01*
X204963Y276632D01*
X204779Y276754D01*
X204582Y276852D01*
X204373Y276923D01*
X204157Y276966D01*
X203937Y276980D01*
X203717Y276966D01*
X203501Y276923D01*
X203292Y276852D01*
X203095Y276754D01*
X202911Y276632D01*
X202746Y276486D01*
X202666Y276396D01*
X202362Y276354D01*
X202058Y276396D01*
X201979Y276486D01*
X201813Y276632D01*
X201630Y276754D01*
X201432Y276852D01*
X201223Y276923D01*
X201007Y276966D01*
X200787Y276980D01*
X200568Y276966D01*
X200351Y276923D01*
X200143Y276852D01*
X199945Y276754D01*
X199762Y276632D01*
X199596Y276486D01*
X199516Y276396D01*
X199213Y276354D01*
X198909Y276396D01*
X198829Y276486D01*
X198663Y276632D01*
X198480Y276754D01*
X198283Y276852D01*
X198074Y276923D01*
X197858Y276966D01*
X197638Y276980D01*
X197418Y276966D01*
X197202Y276923D01*
X196993Y276852D01*
X196795Y276754D01*
X196612Y276632D01*
X196447Y276486D01*
X196367Y276396D01*
X196063Y276354D01*
X195759Y276396D01*
X195679Y276486D01*
X195514Y276632D01*
X195331Y276754D01*
X195133Y276852D01*
X194924Y276923D01*
X194708Y276966D01*
X194488Y276980D01*
X194268Y276966D01*
X194052Y276923D01*
X193843Y276852D01*
X193646Y276754D01*
X193463Y276632D01*
X193297Y276486D01*
X193217Y276396D01*
X192913Y276354D01*
X192610Y276396D01*
X192530Y276486D01*
X192364Y276632D01*
X192181Y276754D01*
X191983Y276852D01*
X191775Y276923D01*
X191559Y276966D01*
X191339Y276980D01*
X191119Y276966D01*
X190902Y276923D01*
X190694Y276852D01*
X190496Y276754D01*
X190313Y276632D01*
X190147Y276486D01*
X190068Y276396D01*
X189764Y276354D01*
X189460Y276396D01*
X189380Y276486D01*
X189215Y276632D01*
X189031Y276754D01*
X188834Y276852D01*
X188625Y276923D01*
X188409Y276966D01*
X188189Y276980D01*
X187969Y276966D01*
X187753Y276923D01*
X187544Y276852D01*
X187347Y276754D01*
X187163Y276632D01*
X186998Y276486D01*
X186918Y276396D01*
X186614Y276354D01*
X186310Y276396D01*
X186231Y276486D01*
X186065Y276632D01*
X185882Y276754D01*
X185684Y276852D01*
X185475Y276923D01*
X185259Y276966D01*
X185039Y276980D01*
X184819Y276966D01*
X184603Y276923D01*
X184395Y276852D01*
X184197Y276754D01*
X184157Y276728D01*
X183671Y276635D01*
X183465Y276807D01*
X183435Y276841D01*
X183220Y277029D01*
X182983Y277188D01*
X182726Y277315D01*
X182456Y277407D01*
X182390Y277420D01*
Y272441D01*
Y267462D01*
X182456Y267475D01*
X182726Y267567D01*
X182983Y267694D01*
X183220Y267852D01*
X183435Y268041D01*
X183465Y268074D01*
X183554Y268149D01*
X183910Y268060D01*
X184035Y267975D01*
Y231704D01*
X75383Y123052D01*
X45087D01*
Y124024D01*
X41528D01*
Y120071D01*
X45087D01*
Y121042D01*
X75799D01*
X75995Y121062D01*
X76183Y121119D01*
X76357Y121212D01*
X76509Y121337D01*
X185750Y230577D01*
X185875Y230729D01*
X185968Y230903D01*
X186025Y231092D01*
X186044Y231288D01*
Y268236D01*
X186065Y268250D01*
X186231Y268395D01*
X186310Y268486D01*
X186614Y268528D01*
X186918Y268486D01*
X186998Y268395D01*
X187163Y268250D01*
X187229Y268206D01*
Y188847D01*
X122406Y124024D01*
X120268D01*
Y120071D01*
X123827D01*
Y122603D01*
X188944Y187720D01*
X189069Y187872D01*
X189162Y188046D01*
X189219Y188234D01*
X189238Y188430D01*
Y268271D01*
X189380Y268395D01*
X189460Y268486D01*
X189764Y268528D01*
X190068Y268486D01*
X190147Y268395D01*
X190313Y268250D01*
X190348Y268226D01*
Y149734D01*
X80989Y40375D01*
X45283D01*
Y41346D01*
X41724D01*
Y37394D01*
X45283D01*
Y38365D01*
X81406D01*
X81602Y38385D01*
X81790Y38442D01*
X81964Y38535D01*
X82116Y38660D01*
X192064Y148607D01*
X192189Y148759D01*
X192282Y148933D01*
X192339Y149122D01*
X192358Y149318D01*
Y238422D01*
X192858Y238504D01*
X192864Y238487D01*
X192963Y238287D01*
X193086Y238101D01*
X193233Y237934D01*
X193401Y237787D01*
X193586Y237663D01*
X193786Y237564D01*
X193997Y237493D01*
X194216Y237449D01*
X194438Y237435D01*
X194660Y237449D01*
X194879Y237493D01*
X195090Y237564D01*
X195290Y237663D01*
X195475Y237787D01*
X195643Y237934D01*
X195790Y238101D01*
X195913Y238287D01*
X196012Y238487D01*
X196079Y238684D01*
X196121Y238705D01*
X196606Y238807D01*
X196620Y238804D01*
X196633Y238787D01*
Y111243D01*
X126736Y41346D01*
X124598D01*
Y37394D01*
X128157D01*
Y39925D01*
X198348Y110116D01*
X198473Y110268D01*
X198566Y110442D01*
X198623Y110631D01*
X198643Y110827D01*
Y249350D01*
X198816Y249778D01*
X199143Y249778D01*
X199909D01*
Y240603D01*
X199877Y240581D01*
X199710Y240434D01*
X199563Y240266D01*
X199439Y240081D01*
X199340Y239881D01*
X199269Y239670D01*
X199225Y239452D01*
X199211Y239229D01*
X199225Y239007D01*
X199269Y238789D01*
X199340Y238577D01*
X199439Y238378D01*
X199563Y238192D01*
X199710Y238025D01*
X199877Y237878D01*
X200062Y237754D01*
X200262Y237655D01*
X200473Y237584D01*
X200692Y237540D01*
X200914Y237526D01*
X201137Y237540D01*
X201355Y237584D01*
X201566Y237655D01*
X201766Y237754D01*
X201951Y237878D01*
X202119Y238025D01*
X202266Y238192D01*
X202390Y238378D01*
X202401Y238401D01*
X202901Y238284D01*
Y211311D01*
X202778Y211189D01*
X200247D01*
Y207629D01*
X204199D01*
Y209767D01*
X204616Y210185D01*
X204741Y210337D01*
X204834Y210511D01*
X204891Y210699D01*
X204911Y210895D01*
Y268215D01*
X204963Y268250D01*
X205128Y268395D01*
X205208Y268486D01*
X205512Y268528D01*
X205816Y268486D01*
X205895Y268395D01*
X206061Y268250D01*
X206096Y268227D01*
Y125634D01*
X205248D01*
Y122075D01*
X209201D01*
Y125634D01*
X208105D01*
Y258166D01*
X208362Y258559D01*
X209886D01*
Y260583D01*
X210386D01*
Y261083D01*
X212410D01*
Y262607D01*
X211910D01*
Y265256D01*
X211316D01*
Y267881D01*
X211816Y268069D01*
X211840Y268041D01*
X212055Y267852D01*
X212293Y267694D01*
X212549Y267567D01*
X212820Y267475D01*
X212886Y267462D01*
Y272441D01*
Y277420D01*
X212820Y277407D01*
X212549Y277315D01*
X212293Y277188D01*
X212055Y277029D01*
X211840Y276841D01*
X211811Y276807D01*
X211595Y276627D01*
X211262Y276632D01*
X211079Y276754D01*
X210881Y276852D01*
X210672Y276923D01*
X210456Y276966D01*
X210236Y276980D01*
X210016Y276966D01*
X209992Y276961D01*
X202873Y284080D01*
X202968Y284692D01*
X203203Y284813D01*
X203759Y285141D01*
X204295Y285499D01*
X204811Y285887D01*
X205304Y286304D01*
X205773Y286747D01*
X206216Y287216D01*
X206632Y287709D01*
X207020Y288225D01*
X207379Y288761D01*
X207707Y289317D01*
X208003Y289890D01*
X208267Y290479D01*
X208497Y291082D01*
X208693Y291697D01*
X208854Y292322D01*
X208980Y292955D01*
X209070Y293594D01*
X209124Y294237D01*
X209142Y294880D01*
X209142Y294882D01*
X209142Y294884D01*
X209124Y295527D01*
X209070Y296170D01*
X208980Y296809D01*
X208854Y297442D01*
X208693Y298067D01*
X208497Y298682D01*
X208267Y299285D01*
X208003Y299873D01*
X207707Y300447D01*
X207379Y301003D01*
X207020Y301539D01*
X206632Y302055D01*
X206216Y302548D01*
X205953Y302826D01*
X206169Y303326D01*
X215613D01*
X215698Y303202D01*
X215787Y302845D01*
X215712Y302756D01*
X215679Y302727D01*
X215490Y302512D01*
X215332Y302274D01*
X215205Y302018D01*
X215113Y301747D01*
X215100Y301681D01*
X220079D01*
X225057D01*
X225044Y301747D01*
X224953Y302018D01*
X224826Y302274D01*
X224667Y302512D01*
X224479Y302727D01*
X224445Y302756D01*
X224370Y302845D01*
X224460Y303202D01*
X224545Y303326D01*
X227610D01*
Y302807D01*
X230260D01*
Y302307D01*
X231784D01*
Y304331D01*
Y306354D01*
X230824D01*
X230617Y306854D01*
X240277Y316515D01*
X240402Y316668D01*
X240495Y316841D01*
X240552Y317030D01*
X240572Y317226D01*
Y319441D01*
X241150D01*
Y322606D01*
X237984D01*
Y322606D01*
X237606D01*
X237192Y322811D01*
X237174Y322853D01*
X237497Y323331D01*
X239224D01*
Y325748D01*
X239724D01*
Y326248D01*
X242220D01*
Y327957D01*
X245508D01*
Y330957D01*
X242008D01*
X238508D01*
Y328165D01*
X237228D01*
Y327665D01*
X235291D01*
X235013Y327944D01*
Y329457D01*
X235008Y329506D01*
Y334457D01*
X233013D01*
Y350110D01*
X235008D01*
Y356110D01*
X229008D01*
Y350110D01*
X231003D01*
Y334457D01*
X229008D01*
Y328457D01*
X233003D01*
Y327528D01*
X233022Y327331D01*
X233080Y327143D01*
X233172Y326969D01*
X233297Y326817D01*
X233870Y326244D01*
Y323831D01*
X234940D01*
Y322606D01*
X234441D01*
Y320490D01*
X234436Y320441D01*
Y317834D01*
X225087Y308485D01*
X224284D01*
X224270Y308506D01*
X224124Y308672D01*
X224033Y308751D01*
X223991Y309055D01*
X224033Y309359D01*
X224124Y309439D01*
X224270Y309604D01*
X224391Y309787D01*
X224563D01*
X224759Y309806D01*
X224948Y309863D01*
X225121Y309956D01*
X225274Y310081D01*
X230523Y315330D01*
X230648Y315483D01*
X230741Y315656D01*
X230798Y315845D01*
X230818Y316041D01*
Y318134D01*
X230836Y318147D01*
X231003Y318293D01*
X231150Y318461D01*
X231274Y318646D01*
X231373Y318846D01*
X231444Y319057D01*
X231488Y319276D01*
X231502Y319498D01*
X231488Y319721D01*
X231444Y319939D01*
X231373Y320150D01*
X231274Y320350D01*
X231150Y320535D01*
X231003Y320703D01*
X230836Y320850D01*
X230651Y320974D01*
X230451Y321072D01*
X230240Y321144D01*
X230021Y321187D01*
X229799Y321202D01*
X229576Y321187D01*
X229358Y321144D01*
X229147Y321072D01*
X228947Y320974D01*
X228762Y320850D01*
X228594Y320703D01*
X228447Y320535D01*
X228323Y320350D01*
X228225Y320150D01*
X228153Y319939D01*
X228110Y319721D01*
X228095Y319498D01*
X228110Y319276D01*
X228153Y319057D01*
X228225Y318846D01*
X228323Y318646D01*
X228447Y318461D01*
X228594Y318293D01*
X228762Y318147D01*
X228808Y318116D01*
Y316457D01*
X224501Y312150D01*
X224124Y311821D01*
X223959Y311966D01*
X223775Y312089D01*
X223578Y312186D01*
X223369Y312257D01*
X223153Y312300D01*
X222933Y312315D01*
X217224D01*
X217004Y312300D01*
X216788Y312257D01*
X216580Y312186D01*
X216382Y312089D01*
X216199Y311966D01*
X216033Y311821D01*
X215888Y311655D01*
X215765Y311472D01*
X215668Y311275D01*
X215597Y311066D01*
X215554Y310850D01*
X215540Y310630D01*
X215554Y310410D01*
X215597Y310194D01*
X215668Y309985D01*
X215765Y309788D01*
X215888Y309604D01*
X216033Y309439D01*
X216124Y309359D01*
X216166Y309055D01*
X216124Y308751D01*
X216033Y308672D01*
X215888Y308506D01*
X215765Y308323D01*
X215668Y308125D01*
X215597Y307916D01*
X215554Y307700D01*
X215540Y307480D01*
X215554Y307260D01*
X215597Y307044D01*
X215668Y306836D01*
X215765Y306638D01*
X215888Y306455D01*
X216033Y306289D01*
X216124Y306209D01*
X216166Y305906D01*
X216124Y305602D01*
X216033Y305522D01*
X215888Y305356D01*
X215874Y305335D01*
X202432D01*
X202040Y305511D01*
X201698Y305642D01*
X201614Y305676D01*
X201595Y305681D01*
X201437Y305741D01*
X200823Y305937D01*
X200198Y306098D01*
X199565Y306224D01*
X198926Y306314D01*
X198283Y306368D01*
X197926Y306378D01*
X197725Y306884D01*
X198348Y307507D01*
X198473Y307660D01*
X198566Y307833D01*
X198623Y308022D01*
X198643Y308218D01*
Y313118D01*
X198663Y313132D01*
X198829Y313277D01*
X198909Y313368D01*
X199213Y313410D01*
X199516Y313368D01*
X199596Y313277D01*
X199762Y313132D01*
X199945Y313010D01*
X200143Y312912D01*
X200351Y312841D01*
X200568Y312798D01*
X200787Y312784D01*
X201007Y312798D01*
X201223Y312841D01*
X201432Y312912D01*
X201630Y313010D01*
X201813Y313132D01*
X201979Y313277D01*
X202058Y313368D01*
X202362Y313410D01*
X202666Y313368D01*
X202746Y313277D01*
X202911Y313132D01*
X203095Y313010D01*
X203292Y312912D01*
X203501Y312841D01*
X203717Y312798D01*
X203937Y312784D01*
X204157Y312798D01*
X204373Y312841D01*
X204582Y312912D01*
X204779Y313010D01*
X204963Y313132D01*
X205128Y313277D01*
X205208Y313368D01*
X205512Y313410D01*
X205816Y313368D01*
X205895Y313277D01*
X206061Y313132D01*
X206244Y313010D01*
X206442Y312912D01*
X206651Y312841D01*
X206867Y312798D01*
X207087Y312784D01*
X207307Y312798D01*
X207523Y312841D01*
X207731Y312912D01*
X207929Y313010D01*
X208112Y313132D01*
X208278Y313277D01*
X208358Y313368D01*
X208661Y313410D01*
X208965Y313368D01*
X209045Y313277D01*
X209211Y313132D01*
X209394Y313010D01*
X209592Y312912D01*
X209800Y312841D01*
X210016Y312798D01*
X210236Y312784D01*
X210456Y312798D01*
X210672Y312841D01*
X210881Y312912D01*
X211079Y313010D01*
X211262Y313132D01*
X211427Y313277D01*
X211507Y313368D01*
X211811Y313410D01*
X212115Y313368D01*
X212194Y313277D01*
X212360Y313132D01*
X212544Y313010D01*
X212741Y312912D01*
X212950Y312841D01*
X213166Y312798D01*
X213386Y312784D01*
X213606Y312798D01*
X213822Y312841D01*
X214031Y312912D01*
X214228Y313010D01*
X214411Y313132D01*
X214577Y313277D01*
X214722Y313443D01*
X214845Y313626D01*
X214942Y313824D01*
X215013Y314033D01*
X215056Y314249D01*
X215071Y314469D01*
Y319798D01*
X215207Y319871D01*
X215359Y319996D01*
X225354Y329991D01*
X225479Y330143D01*
X225572Y330317D01*
X225629Y330505D01*
X225649Y330701D01*
Y355691D01*
X234801Y364843D01*
X257863D01*
X299855Y322850D01*
Y307007D01*
X299081D01*
Y305639D01*
X299047Y305576D01*
X298990Y305387D01*
X298970Y305191D01*
X298990Y304995D01*
X299047Y304807D01*
X299081Y304743D01*
Y303055D01*
X302640D01*
Y307007D01*
X301865D01*
Y323267D01*
X301846Y323463D01*
X301789Y323651D01*
X301696Y323825D01*
X301571Y323977D01*
X258990Y366558D01*
X258929Y366608D01*
X258997Y366956D01*
X259086Y367108D01*
X279822D01*
X282250Y364681D01*
X282043Y364181D01*
X281685D01*
Y360228D01*
X285244D01*
Y364181D01*
X284469D01*
Y364887D01*
X284450Y365083D01*
X284393Y365272D01*
X284300Y365445D01*
X284175Y365598D01*
X281026Y368747D01*
X281091Y369044D01*
X281222Y369247D01*
X352852D01*
X356790Y365309D01*
Y364008D01*
X356015D01*
Y360055D01*
X359574D01*
Y364008D01*
X358799D01*
Y365725D01*
X358780Y365921D01*
X358723Y366110D01*
X358630Y366283D01*
X358505Y366436D01*
X353979Y370962D01*
X353826Y371087D01*
X353653Y371180D01*
X353464Y371237D01*
X353268Y371256D01*
X232012D01*
X231816Y371237D01*
X231627Y371180D01*
X231454Y371087D01*
X231301Y370962D01*
X222919Y362579D01*
X222457Y362770D01*
Y363673D01*
X220677D01*
Y361992D01*
X221678D01*
X221870Y361530D01*
X219179Y358839D01*
X219054Y358687D01*
X218961Y358513D01*
X218904Y358325D01*
X218884Y358129D01*
Y342317D01*
X203226Y326659D01*
X203101Y326507D01*
X203009Y326333D01*
X202952Y326145D01*
X202932Y325949D01*
Y321528D01*
X202911Y321514D01*
X202746Y321368D01*
X202666Y321278D01*
X202362Y321236D01*
X202058Y321278D01*
X201979Y321368D01*
X201813Y321514D01*
X201630Y321636D01*
X201432Y321734D01*
X201223Y321804D01*
X201007Y321848D01*
X200787Y321862D01*
X200568Y321848D01*
X200351Y321804D01*
X200143Y321734D01*
X199945Y321636D01*
X199762Y321514D01*
X199596Y321368D01*
X199516Y321278D01*
X199213Y321236D01*
X198909Y321278D01*
X198829Y321368D01*
X198663Y321514D01*
X198643Y321528D01*
Y324067D01*
X199161D01*
Y324680D01*
X199576D01*
X199772Y324699D01*
X199960Y324757D01*
X200134Y324849D01*
X200286Y324974D01*
X209372Y334060D01*
X214056Y338744D01*
X214181Y338896D01*
X214274Y339070D01*
X214331Y339258D01*
X214350Y339454D01*
Y341431D01*
X214939D01*
Y344081D01*
X215439D01*
Y345604D01*
X213415D01*
X211391D01*
Y344081D01*
X211891D01*
Y341431D01*
X212340D01*
Y339871D01*
X210128Y337659D01*
X209666Y337850D01*
Y367925D01*
X212976D01*
Y367425D01*
X214067D01*
Y369803D01*
X215067D01*
Y367425D01*
X216158D01*
Y368792D01*
X216657Y368834D01*
X216673Y368743D01*
X216771Y368402D01*
X216907Y368073D01*
X217079Y367762D01*
X217285Y367472D01*
X217522Y367207D01*
X217787Y366970D01*
X217950Y366854D01*
X217898Y366354D01*
X217898D01*
Y365854D01*
X215051D01*
Y364927D01*
X213729D01*
X213680Y365025D01*
X213556Y365210D01*
X213409Y365378D01*
X213242Y365525D01*
X213057Y365649D01*
X212857Y365747D01*
X212646Y365819D01*
X212427Y365862D01*
X212205Y365877D01*
X211982Y365862D01*
X211764Y365819D01*
X211553Y365747D01*
X211353Y365649D01*
X211168Y365525D01*
X211000Y365378D01*
X210853Y365210D01*
X210729Y365025D01*
X210631Y364825D01*
X210559Y364614D01*
X210516Y364396D01*
X210501Y364173D01*
X210516Y363951D01*
X210559Y363732D01*
X210631Y363521D01*
X210729Y363321D01*
X210853Y363136D01*
X211000Y362969D01*
X211168Y362822D01*
X211353Y362698D01*
X211553Y362599D01*
X211764Y362528D01*
X211982Y362484D01*
X212205Y362470D01*
X212427Y362484D01*
X212646Y362528D01*
X212857Y362599D01*
X213057Y362698D01*
X213242Y362822D01*
X213409Y362969D01*
X213556Y363136D01*
X213680Y363321D01*
X213729Y363420D01*
X215051D01*
Y362492D01*
X217898D01*
Y361992D01*
X219677D01*
Y364173D01*
X220177D01*
Y364673D01*
X222457D01*
Y366354D01*
X221730D01*
X221577Y366854D01*
X221741Y366970D01*
X222006Y367207D01*
X222242Y367472D01*
X222448Y367762D01*
X222620Y368073D01*
X222756Y368402D01*
X222855Y368743D01*
X222914Y369094D01*
X222934Y369449D01*
Y370917D01*
X219764D01*
Y371417D01*
X219264D01*
Y376512D01*
X219058Y376477D01*
X218717Y376378D01*
X218429Y376259D01*
X218295Y376307D01*
X217929Y376560D01*
Y377299D01*
X215461D01*
Y374921D01*
X214461D01*
Y377299D01*
X213552D01*
X213465Y377356D01*
X213199Y377750D01*
X213194Y377799D01*
X213210Y377960D01*
Y382091D01*
X213190Y382287D01*
X213133Y382476D01*
X213040Y382650D01*
X212915Y382802D01*
X212330Y383388D01*
X212177Y383513D01*
X212003Y383606D01*
X211815Y383663D01*
X211619Y383682D01*
D02*
G37*
G36*
X220264Y376512D02*
Y371917D01*
X222934D01*
Y373386D01*
X222914Y373741D01*
X222855Y374091D01*
X222756Y374433D01*
X222620Y374761D01*
X222448Y375073D01*
X222242Y375362D01*
X222006Y375628D01*
X221741Y375865D01*
X221450Y376070D01*
X221139Y376242D01*
X220811Y376378D01*
X220469Y376477D01*
X220264Y376512D01*
D02*
G37*
G36*
X185248D02*
X185043Y376477D01*
X184701Y376378D01*
X184372Y376242D01*
X184061Y376070D01*
X183771Y375865D01*
X183506Y375628D01*
X183269Y375362D01*
X183064Y375073D01*
X182892Y374761D01*
X182756Y374433D01*
X182657Y374091D01*
X182598Y373741D01*
X182578Y373386D01*
Y371917D01*
X185248D01*
Y376512D01*
D02*
G37*
G36*
X184835Y363673D02*
X183055D01*
Y361992D01*
X184835D01*
Y363673D01*
D02*
G37*
G36*
X115820Y369612D02*
X41102D01*
X40906Y369593D01*
X40717Y369535D01*
X40543Y369443D01*
X40391Y369318D01*
X38266Y367192D01*
X38141Y367040D01*
X38048Y366866D01*
X37991Y366678D01*
X37971Y366482D01*
Y364181D01*
X37197D01*
Y360228D01*
X38070D01*
Y287205D01*
Y281504D01*
X37197D01*
Y277551D01*
X38070D01*
Y202764D01*
X37394D01*
Y198811D01*
X38070D01*
Y194708D01*
Y124024D01*
X37197D01*
Y120071D01*
X38070D01*
Y114354D01*
Y41346D01*
X37394D01*
Y37394D01*
X38168D01*
Y35149D01*
X38188Y34953D01*
X38245Y34765D01*
X38338Y34591D01*
X38463Y34439D01*
X40710Y32192D01*
X40862Y32067D01*
X41036Y31974D01*
X41224Y31917D01*
X41421Y31897D01*
X120358D01*
X120554Y31917D01*
X120742Y31974D01*
X120916Y32067D01*
X121068Y32192D01*
X122006Y33130D01*
X122936Y32200D01*
X123088Y32075D01*
X123262Y31982D01*
X123451Y31925D01*
X123647Y31905D01*
X198755D01*
X198951Y31925D01*
X199140Y31982D01*
X199314Y32075D01*
X199466Y32200D01*
X200700Y33433D01*
X201933Y32200D01*
X202086Y32075D01*
X202259Y31982D01*
X202448Y31925D01*
X202644Y31905D01*
X277684D01*
X277881Y31925D01*
X278069Y31982D01*
X278243Y32075D01*
X278395Y32200D01*
X279765Y33570D01*
X280999Y32336D01*
X281151Y32211D01*
X281325Y32118D01*
X281514Y32061D01*
X281710Y32042D01*
X360025D01*
X360221Y32061D01*
X360409Y32118D01*
X360583Y32211D01*
X360735Y32336D01*
X363191Y34792D01*
X363316Y34944D01*
X363409Y35118D01*
X363466Y35307D01*
X363485Y35503D01*
Y37394D01*
X364181D01*
Y41346D01*
X363406D01*
Y116647D01*
Y120071D01*
X364181D01*
Y124024D01*
X363427D01*
Y193706D01*
Y199322D01*
X364221D01*
Y203274D01*
X363071D01*
Y301179D01*
Y302677D01*
X363613D01*
Y306630D01*
X363071D01*
Y360055D01*
X363905D01*
Y364008D01*
X360346D01*
Y360055D01*
X361061D01*
Y306630D01*
X360054D01*
Y302677D01*
X361061D01*
Y301595D01*
X356699Y297233D01*
X314410D01*
X306971Y304673D01*
Y307007D01*
X306196D01*
Y324348D01*
X306177Y324544D01*
X306119Y324733D01*
X306027Y324906D01*
X305902Y325059D01*
X280139Y350822D01*
Y360228D01*
X280913D01*
Y364181D01*
X277354D01*
Y360228D01*
X278129D01*
Y350405D01*
X278148Y350209D01*
X278205Y350021D01*
X278298Y349847D01*
X278423Y349695D01*
X304186Y323932D01*
Y307007D01*
X303412D01*
Y303055D01*
X305746D01*
X313284Y295517D01*
X313436Y295392D01*
X313610Y295300D01*
X313798Y295242D01*
X313994Y295223D01*
X357115D01*
X357311Y295242D01*
X357500Y295300D01*
X357673Y295392D01*
X357825Y295517D01*
X360599Y298291D01*
X361061Y298100D01*
Y203274D01*
X360662D01*
Y199322D01*
X361417D01*
Y194122D01*
X357007Y189712D01*
X285144D01*
X280532Y194324D01*
Y198811D01*
X281307D01*
Y202764D01*
X277748D01*
Y198811D01*
X278523D01*
Y193907D01*
X278542Y193711D01*
X278599Y193523D01*
X278692Y193349D01*
X278817Y193197D01*
X284017Y187997D01*
X284170Y187872D01*
X284343Y187779D01*
X284532Y187722D01*
X284728Y187702D01*
X357423D01*
X357619Y187722D01*
X357808Y187779D01*
X357981Y187872D01*
X358134Y187997D01*
X360955Y190818D01*
X361417Y190627D01*
Y124024D01*
X360622D01*
Y120071D01*
X361397D01*
Y117063D01*
X356387Y112053D01*
X282559D01*
X278564Y116048D01*
Y120071D01*
X279339D01*
Y124024D01*
X275780D01*
Y120071D01*
X276554D01*
Y115632D01*
X276573Y115436D01*
X276631Y115247D01*
X276724Y115074D01*
X276849Y114921D01*
X281432Y110338D01*
X281584Y110213D01*
X281758Y110120D01*
X281947Y110063D01*
X282143Y110043D01*
X356803D01*
X356999Y110063D01*
X357187Y110120D01*
X357361Y110213D01*
X357513Y110338D01*
X360935Y113759D01*
X361397Y113568D01*
Y41346D01*
X360622D01*
Y37394D01*
X361476D01*
Y35919D01*
X359609Y34052D01*
X282126D01*
X280532Y35645D01*
Y37394D01*
X281307D01*
Y41346D01*
X277748D01*
Y37394D01*
X278523D01*
Y35229D01*
X278528Y35175D01*
X277268Y33915D01*
X203060D01*
X201792Y35183D01*
Y37394D01*
X202567D01*
Y41346D01*
X201596D01*
Y53202D01*
X207935Y59541D01*
X208060Y59693D01*
X208153Y59867D01*
X208210Y60056D01*
X208229Y60251D01*
Y117744D01*
X209201D01*
Y121303D01*
X205248D01*
Y120439D01*
X204665D01*
X203228Y121876D01*
Y159177D01*
X203287Y159217D01*
X203454Y159364D01*
X203601Y159531D01*
X203725Y159717D01*
X203824Y159917D01*
X203895Y160128D01*
X203939Y160346D01*
X203953Y160568D01*
X203939Y160791D01*
X203895Y161010D01*
X203824Y161221D01*
X203725Y161420D01*
X203601Y161606D01*
X203454Y161773D01*
X203287Y161920D01*
X203228Y161960D01*
Y203299D01*
X204199D01*
Y206858D01*
X200247D01*
Y203299D01*
X201218D01*
Y161924D01*
X201213Y161920D01*
X201045Y161773D01*
X200898Y161606D01*
X200774Y161420D01*
X200676Y161221D01*
X200604Y161010D01*
X200560Y160791D01*
X200546Y160568D01*
X200560Y160346D01*
X200604Y160128D01*
X200676Y159917D01*
X200774Y159717D01*
X200898Y159531D01*
X201045Y159364D01*
X201213Y159217D01*
X201218Y159213D01*
Y121459D01*
X201237Y121263D01*
X201294Y121075D01*
X201387Y120901D01*
X201512Y120749D01*
X203538Y118723D01*
X203690Y118598D01*
X203864Y118506D01*
X204052Y118448D01*
X204248Y118429D01*
X205248D01*
Y117744D01*
X206220D01*
Y60668D01*
X199881Y54329D01*
X199756Y54176D01*
X199663Y54003D01*
X199606Y53814D01*
X199586Y53618D01*
Y41346D01*
X199008D01*
Y37394D01*
X199783D01*
Y35359D01*
X198339Y33915D01*
X124063D01*
X123052Y34926D01*
Y37394D01*
X123827D01*
Y41346D01*
X120268D01*
Y37394D01*
X121042D01*
Y35008D01*
X119941Y33907D01*
X41837D01*
X40178Y35566D01*
Y37394D01*
X40953D01*
Y41346D01*
X40080D01*
Y111275D01*
X40542Y111466D01*
X44967Y107041D01*
X45120Y106916D01*
X45293Y106823D01*
X45482Y106766D01*
X45678Y106746D01*
X103350D01*
X103546Y106766D01*
X103734Y106823D01*
X103908Y106916D01*
X104060Y107041D01*
X117090Y120071D01*
X119496D01*
Y124024D01*
X115937D01*
Y121759D01*
X102934Y108756D01*
X46094D01*
X40080Y114770D01*
Y120071D01*
X40756D01*
Y124024D01*
X40080D01*
Y191629D01*
X40542Y191820D01*
X43775Y188586D01*
X43928Y188461D01*
X44101Y188368D01*
X44290Y188311D01*
X44486Y188292D01*
X110060D01*
X110256Y188311D01*
X110445Y188368D01*
X110618Y188461D01*
X110771Y188586D01*
X120995Y198811D01*
X123433D01*
Y202764D01*
X119874D01*
Y200530D01*
X119864Y200522D01*
X109644Y190302D01*
X44902D01*
X40080Y195124D01*
Y198811D01*
X40953D01*
Y202764D01*
X40080D01*
Y277551D01*
X40756D01*
Y281504D01*
X40080D01*
Y286789D01*
X49841Y296550D01*
X99273D01*
X115937Y279886D01*
Y277551D01*
X119496D01*
Y281504D01*
X117161D01*
X100400Y298265D01*
X100248Y298390D01*
X100074Y298483D01*
X99886Y298540D01*
X99690Y298559D01*
X49424D01*
X49228Y298540D01*
X49040Y298483D01*
X48866Y298390D01*
X48714Y298265D01*
X40542Y290093D01*
X40080Y290284D01*
Y360228D01*
X40756D01*
Y364181D01*
X39981D01*
Y366065D01*
X41518Y367602D01*
X115403D01*
X116578Y366427D01*
Y364181D01*
X115937D01*
Y360228D01*
X119496D01*
Y364181D01*
X118588D01*
Y366843D01*
X118569Y367039D01*
X118512Y367228D01*
X118419Y367402D01*
X118294Y367554D01*
X116530Y369318D01*
X116378Y369443D01*
X116204Y369535D01*
X116016Y369593D01*
X115820Y369612D01*
D02*
G37*
G36*
X245508Y356610D02*
X242508D01*
Y353610D01*
X245508D01*
Y356610D01*
D02*
G37*
G36*
X241508D02*
X238508D01*
Y353610D01*
X241508D01*
Y356610D01*
D02*
G37*
G36*
X245508Y352610D02*
X242508D01*
Y349610D01*
X245508D01*
Y352610D01*
D02*
G37*
G36*
X241508D02*
X238508D01*
Y349610D01*
X241508D01*
Y352610D01*
D02*
G37*
G36*
X215439Y348128D02*
X213915D01*
Y346604D01*
X215439D01*
Y348128D01*
D02*
G37*
G36*
X212915D02*
X211391D01*
Y346604D01*
X212915D01*
Y348128D01*
D02*
G37*
G36*
X182610Y340567D02*
X180614D01*
Y338650D01*
X182610D01*
Y340567D01*
D02*
G37*
G36*
Y337650D02*
X180614D01*
Y335732D01*
X182610D01*
Y337650D01*
D02*
G37*
G36*
X245508Y334957D02*
X242508D01*
Y331957D01*
X245508D01*
Y334957D01*
D02*
G37*
G36*
X241508D02*
X238508D01*
Y331957D01*
X241508D01*
Y334957D01*
D02*
G37*
G36*
X179801Y333043D02*
X178277D01*
Y331519D01*
X179801D01*
Y333043D01*
D02*
G37*
G36*
Y330519D02*
X178277D01*
Y328995D01*
X179801D01*
Y330519D01*
D02*
G37*
G36*
X242220Y325248D02*
X240224D01*
Y323331D01*
X242220D01*
Y325248D01*
D02*
G37*
G36*
X163279Y312653D02*
X161756D01*
Y311130D01*
X163279D01*
Y312653D01*
D02*
G37*
G36*
X257390Y323532D02*
X248122D01*
Y301905D01*
X245253Y299036D01*
X224545D01*
X224460Y299161D01*
X224370Y299517D01*
X224445Y299606D01*
X224479Y299636D01*
X224667Y299851D01*
X224826Y300088D01*
X224953Y300345D01*
X225044Y300615D01*
X225057Y300681D01*
X220079D01*
X215100D01*
X215113Y300615D01*
X215205Y300345D01*
X215332Y300088D01*
X215490Y299851D01*
X215679Y299636D01*
X215712Y299606D01*
X215893Y299390D01*
X215888Y299057D01*
X215765Y298874D01*
X215668Y298676D01*
X215597Y298467D01*
X215554Y298251D01*
X215540Y298031D01*
X215554Y297812D01*
X215597Y297595D01*
X215668Y297387D01*
X215765Y297189D01*
X215888Y297006D01*
X216033Y296840D01*
X216124Y296761D01*
X216166Y296457D01*
X216124Y296153D01*
X216033Y296073D01*
X215888Y295907D01*
X215765Y295724D01*
X215668Y295527D01*
X215597Y295318D01*
X215554Y295102D01*
X215540Y294882D01*
X215554Y294662D01*
X215597Y294446D01*
X215668Y294237D01*
X215765Y294040D01*
X215888Y293856D01*
X216033Y293691D01*
X216124Y293611D01*
X216166Y293307D01*
X216124Y293003D01*
X216033Y292923D01*
X215888Y292758D01*
X215765Y292575D01*
X215668Y292377D01*
X215597Y292168D01*
X215554Y291952D01*
X215540Y291732D01*
X215554Y291512D01*
X215597Y291296D01*
X215668Y291088D01*
X215765Y290890D01*
X215888Y290707D01*
X216033Y290541D01*
X216124Y290461D01*
X216166Y290158D01*
X216124Y289854D01*
X216033Y289774D01*
X215888Y289608D01*
X215765Y289425D01*
X215668Y289227D01*
X215597Y289019D01*
X215554Y288803D01*
X215540Y288583D01*
X215554Y288363D01*
X215597Y288147D01*
X215668Y287938D01*
X215765Y287740D01*
X215888Y287557D01*
X216033Y287391D01*
X216124Y287312D01*
X216166Y287008D01*
X216124Y286704D01*
X216033Y286624D01*
X215888Y286459D01*
X215765Y286275D01*
X215668Y286078D01*
X215597Y285869D01*
X215554Y285653D01*
X215540Y285433D01*
X215554Y285213D01*
X215597Y284997D01*
X215668Y284788D01*
X215765Y284591D01*
X215888Y284407D01*
X216033Y284242D01*
X216124Y284162D01*
X216166Y283858D01*
X216124Y283554D01*
X216033Y283475D01*
X215888Y283309D01*
X215765Y283126D01*
X215668Y282928D01*
X215597Y282719D01*
X215554Y282503D01*
X215540Y282283D01*
X215554Y282064D01*
X215597Y281847D01*
X215668Y281639D01*
X215765Y281441D01*
X215888Y281258D01*
X216033Y281092D01*
X216124Y281013D01*
X216166Y280709D01*
X216124Y280405D01*
X216033Y280325D01*
X215888Y280159D01*
X215765Y279976D01*
X215668Y279779D01*
X215597Y279570D01*
X215554Y279354D01*
X215540Y279134D01*
X215554Y278914D01*
X215597Y278698D01*
X215668Y278489D01*
X215765Y278292D01*
X215888Y278108D01*
X216033Y277943D01*
X216199Y277797D01*
X216382Y277675D01*
X216580Y277577D01*
X216788Y277507D01*
X217004Y277464D01*
X217224Y277449D01*
X219137D01*
Y55007D01*
X205477Y41346D01*
X203339D01*
Y37394D01*
X206898D01*
Y39925D01*
X220853Y53880D01*
X220978Y54033D01*
X221071Y54206D01*
X221128Y54395D01*
X221147Y54591D01*
Y277449D01*
X222933D01*
X223153Y277464D01*
X223369Y277507D01*
X223578Y277577D01*
X223775Y277675D01*
X223959Y277797D01*
X224124Y277943D01*
X224270Y278108D01*
X224392Y278292D01*
X224489Y278489D01*
X224560Y278698D01*
X224603Y278914D01*
X224618Y279134D01*
X224603Y279354D01*
X224560Y279570D01*
X224489Y279779D01*
X224392Y279976D01*
X224270Y280159D01*
X224124Y280325D01*
X224033Y280405D01*
X223991Y280709D01*
X224033Y281013D01*
X224124Y281092D01*
X224258Y281245D01*
X225248D01*
X228099Y278394D01*
Y96546D01*
X228118Y96350D01*
X228175Y96162D01*
X228268Y95988D01*
X228393Y95836D01*
X282382Y41846D01*
X282175Y41346D01*
X282079D01*
Y37394D01*
X285638D01*
Y41346D01*
X284863D01*
Y41792D01*
X284844Y41988D01*
X284787Y42176D01*
X284694Y42350D01*
X284569Y42502D01*
X230109Y96962D01*
Y278810D01*
X230089Y279006D01*
X230032Y279195D01*
X229939Y279368D01*
X229814Y279521D01*
X226375Y282960D01*
X226223Y283085D01*
X226049Y283178D01*
X225861Y283235D01*
X225665Y283254D01*
X224306D01*
X224270Y283309D01*
X224124Y283475D01*
X224033Y283554D01*
X223991Y283858D01*
X224033Y284162D01*
X224124Y284242D01*
X224270Y284407D01*
X224284Y284428D01*
X226448D01*
X231257Y279620D01*
Y98264D01*
X231276Y98068D01*
X231333Y97879D01*
X231426Y97706D01*
X231551Y97553D01*
X274678Y54426D01*
X274830Y54301D01*
X275004Y54208D01*
X275193Y54151D01*
X275389Y54132D01*
X352914D01*
X357224Y49822D01*
Y41346D01*
X356291D01*
Y37394D01*
X359850D01*
Y41346D01*
X359234D01*
Y50238D01*
X359214Y50434D01*
X359157Y50623D01*
X359064Y50797D01*
X358939Y50949D01*
X354041Y55847D01*
X353889Y55972D01*
X353715Y56065D01*
X353526Y56122D01*
X353330Y56142D01*
X275805D01*
X233266Y98680D01*
Y280036D01*
X233247Y280232D01*
X233190Y280420D01*
X233097Y280594D01*
X232972Y280747D01*
X227575Y286144D01*
X227423Y286269D01*
X227249Y286361D01*
X227060Y286419D01*
X226864Y286438D01*
X224284D01*
X224270Y286459D01*
X224124Y286624D01*
X224033Y286704D01*
X223991Y287008D01*
X224033Y287312D01*
X224124Y287391D01*
X224270Y287557D01*
X224284Y287578D01*
X227715D01*
X234467Y280826D01*
Y171568D01*
X234486Y171372D01*
X234543Y171183D01*
X234636Y171009D01*
X234761Y170857D01*
X280885Y124733D01*
Y124024D01*
X280110D01*
Y120071D01*
X283669D01*
Y124024D01*
X282895D01*
Y125149D01*
X282875Y125345D01*
X282818Y125534D01*
X282725Y125708D01*
X282600Y125860D01*
X236476Y171984D01*
Y281242D01*
X236457Y281438D01*
X236400Y281627D01*
X236307Y281800D01*
X236182Y281953D01*
X228841Y289293D01*
X228689Y289418D01*
X228516Y289511D01*
X228327Y289568D01*
X228131Y289587D01*
X224284D01*
X224270Y289608D01*
X224124Y289774D01*
X224033Y289854D01*
X223991Y290158D01*
X224033Y290461D01*
X224124Y290541D01*
X224270Y290707D01*
X224284Y290727D01*
X229237D01*
X237726Y282238D01*
Y173097D01*
X237745Y172901D01*
X237803Y172713D01*
X237895Y172539D01*
X238020Y172387D01*
X268663Y141744D01*
X268815Y141619D01*
X268989Y141526D01*
X269177Y141469D01*
X269373Y141450D01*
X346999D01*
X356992Y131457D01*
Y124024D01*
X356291D01*
Y120071D01*
X359850D01*
Y124024D01*
X359002D01*
Y131873D01*
X358983Y132069D01*
X358926Y132257D01*
X358833Y132431D01*
X358708Y132583D01*
X348126Y143165D01*
X347973Y143290D01*
X347800Y143383D01*
X347611Y143440D01*
X347415Y143460D01*
X269790D01*
X239736Y173513D01*
Y282654D01*
X239717Y282850D01*
X239659Y283039D01*
X239566Y283213D01*
X239441Y283365D01*
X230364Y292443D01*
X230211Y292568D01*
X230038Y292661D01*
X229849Y292718D01*
X229653Y292737D01*
X224284D01*
X224270Y292758D01*
X224124Y292923D01*
X224033Y293003D01*
X223991Y293307D01*
X224033Y293611D01*
X224124Y293691D01*
X224270Y293856D01*
X224284Y293877D01*
X238954D01*
X248122Y284709D01*
Y263083D01*
X257390D01*
Y273641D01*
X263201D01*
Y272807D01*
X266721D01*
Y275772D01*
X267220D01*
Y277610D01*
X264961D01*
X262701D01*
Y275772D01*
X262251Y275651D01*
X257390D01*
Y286130D01*
X249543D01*
X240081Y295592D01*
X239928Y295717D01*
X239755Y295810D01*
X239566Y295867D01*
X239370Y295887D01*
X224284D01*
X224270Y295907D01*
X224124Y296073D01*
X224033Y296153D01*
X223991Y296457D01*
X224033Y296761D01*
X224124Y296840D01*
X224270Y297006D01*
X224284Y297027D01*
X245669D01*
X245865Y297046D01*
X246054Y297103D01*
X246228Y297196D01*
X246380Y297321D01*
X249543Y300484D01*
X257390D01*
Y310964D01*
X262251D01*
X262701Y310842D01*
Y309004D01*
X267220D01*
Y310842D01*
X266721D01*
Y313807D01*
X263201D01*
Y312973D01*
X257390D01*
Y323532D01*
D02*
G37*
G36*
X163279Y310130D02*
X161756D01*
Y308606D01*
X163279D01*
Y310130D01*
D02*
G37*
G36*
X267220Y308004D02*
X265461D01*
Y306165D01*
X267220D01*
Y308004D01*
D02*
G37*
G36*
X264461D02*
X262701D01*
Y306165D01*
X264461D01*
Y308004D01*
D02*
G37*
G36*
X162138Y306748D02*
X160142D01*
Y304831D01*
X162138D01*
Y306748D01*
D02*
G37*
G36*
X234307Y306354D02*
X232784D01*
Y304831D01*
X234307D01*
Y306354D01*
D02*
G37*
G36*
X342516Y321322D02*
X342294Y321307D01*
X342075Y321264D01*
X341864Y321192D01*
X341665Y321093D01*
X341479Y320970D01*
X341312Y320823D01*
X341165Y320655D01*
X341041Y320470D01*
X340943Y320270D01*
X340871Y320059D01*
X340827Y319840D01*
X340813Y319618D01*
X340827Y319395D01*
X340871Y319177D01*
X340943Y318966D01*
X341041Y318766D01*
X341165Y318581D01*
X341312Y318413D01*
X341479Y318266D01*
X341665Y318143D01*
X341864Y318044D01*
X342075Y317972D01*
X342294Y317929D01*
X342516Y317914D01*
X342739Y317929D01*
X342777Y317936D01*
X355723Y304990D01*
Y302677D01*
X359282D01*
Y306630D01*
X356925D01*
X344198Y319357D01*
X344206Y319395D01*
X344220Y319618D01*
X344206Y319840D01*
X344162Y320059D01*
X344091Y320270D01*
X343992Y320470D01*
X343868Y320655D01*
X343721Y320823D01*
X343554Y320970D01*
X343368Y321093D01*
X343168Y321192D01*
X342957Y321264D01*
X342739Y321307D01*
X342516Y321322D01*
D02*
G37*
G36*
X234307Y303831D02*
X232784D01*
Y302307D01*
X234307D01*
Y303831D01*
D02*
G37*
G36*
X123827Y364181D02*
X120268D01*
Y360228D01*
X121042D01*
Y309213D01*
X121062Y309017D01*
X121119Y308828D01*
X121212Y308655D01*
X121337Y308503D01*
X129369Y300471D01*
X129521Y300346D01*
X129695Y300253D01*
X129883Y300196D01*
X130079Y300176D01*
X170992D01*
X171006Y300155D01*
X171151Y299990D01*
X171242Y299910D01*
X171284Y299606D01*
X171242Y299302D01*
X171151Y299223D01*
X171006Y299057D01*
X170955Y298981D01*
X128232D01*
X64297Y362915D01*
X64145Y363040D01*
X63971Y363133D01*
X63783Y363190D01*
X63587Y363210D01*
X45087D01*
Y364181D01*
X41528D01*
Y360228D01*
X45087D01*
Y361200D01*
X63170D01*
X127105Y297265D01*
X127257Y297140D01*
X127431Y297047D01*
X127620Y296990D01*
X127816Y296971D01*
X171037D01*
X171151Y296840D01*
X171242Y296761D01*
X171284Y296457D01*
X171242Y296153D01*
X171151Y296073D01*
X171006Y295907D01*
X170998Y295895D01*
X150647D01*
X150451Y295876D01*
X150263Y295818D01*
X150089Y295726D01*
X149937Y295601D01*
X134868Y280532D01*
X123827D01*
Y281504D01*
X120268D01*
Y277551D01*
X123827D01*
Y278523D01*
X135285D01*
X135481Y278542D01*
X135669Y278599D01*
X135843Y278692D01*
X135995Y278817D01*
X151063Y293885D01*
X170987D01*
X171006Y293856D01*
X171151Y293691D01*
X171242Y293611D01*
X171284Y293307D01*
X171242Y293003D01*
X171151Y292923D01*
X171092Y292856D01*
X152233D01*
X152037Y292836D01*
X151848Y292779D01*
X151674Y292686D01*
X151522Y292561D01*
X116225Y257264D01*
X66991D01*
X45087Y279169D01*
Y281504D01*
X41528D01*
Y277551D01*
X43862D01*
X65864Y255549D01*
X66017Y255424D01*
X66190Y255331D01*
X66379Y255274D01*
X66575Y255255D01*
X116641D01*
X116838Y255274D01*
X117026Y255331D01*
X117200Y255424D01*
X117352Y255549D01*
X152649Y290846D01*
X170913D01*
X171006Y290707D01*
X171151Y290541D01*
X171242Y290461D01*
X171284Y290158D01*
X171242Y289854D01*
X171151Y289774D01*
X171006Y289608D01*
X170944Y289516D01*
X153718D01*
X153522Y289497D01*
X153333Y289440D01*
X153160Y289347D01*
X153007Y289222D01*
X65578Y201792D01*
X45283D01*
Y202764D01*
X41724D01*
Y198811D01*
X45283D01*
Y199783D01*
X65994D01*
X66190Y199802D01*
X66379Y199859D01*
X66552Y199952D01*
X66705Y200077D01*
X154134Y287506D01*
X171050D01*
X171151Y287391D01*
X171242Y287312D01*
X171284Y287008D01*
X171242Y286704D01*
X171151Y286624D01*
X171006Y286459D01*
X170992Y286438D01*
X155532D01*
X155335Y286419D01*
X155147Y286361D01*
X154973Y286269D01*
X154821Y286144D01*
X125274Y256596D01*
X125149Y256444D01*
X125056Y256270D01*
X124999Y256082D01*
X124979Y255886D01*
Y202764D01*
X124205D01*
Y198811D01*
X127764D01*
Y202764D01*
X126989D01*
Y255470D01*
X155948Y284428D01*
X170731D01*
X170816Y284304D01*
X170905Y283948D01*
X170830Y283858D01*
X170797Y283829D01*
X170608Y283614D01*
X170450Y283376D01*
X170323Y283120D01*
X170231Y282849D01*
X170218Y282783D01*
X175197D01*
X180175D01*
X180163Y282849D01*
X180071Y283120D01*
X179944Y283376D01*
X179785Y283614D01*
X179597Y283829D01*
X179563Y283858D01*
X179391Y284065D01*
X179484Y284551D01*
X179510Y284591D01*
X179608Y284788D01*
X179678Y284997D01*
X179721Y285213D01*
X179736Y285433D01*
X179721Y285653D01*
X179678Y285869D01*
X179608Y286078D01*
X179510Y286275D01*
X179388Y286459D01*
X179242Y286624D01*
X179152Y286704D01*
X179110Y287008D01*
X179152Y287312D01*
X179242Y287391D01*
X179388Y287557D01*
X179510Y287740D01*
X179608Y287938D01*
X179678Y288147D01*
X179721Y288363D01*
X179736Y288583D01*
X179721Y288803D01*
X179678Y289019D01*
X179608Y289227D01*
X179510Y289425D01*
X179388Y289608D01*
X179242Y289774D01*
X179152Y289854D01*
X179110Y290158D01*
X179152Y290461D01*
X179242Y290541D01*
X179388Y290707D01*
X179510Y290890D01*
X179608Y291088D01*
X179678Y291296D01*
X179721Y291512D01*
X179736Y291732D01*
X179721Y291952D01*
X179678Y292168D01*
X179608Y292377D01*
X179510Y292575D01*
X179388Y292758D01*
X179242Y292923D01*
X179152Y293003D01*
X179110Y293307D01*
X179152Y293611D01*
X179242Y293691D01*
X179388Y293856D01*
X179510Y294040D01*
X179608Y294237D01*
X179678Y294446D01*
X179721Y294662D01*
X179736Y294882D01*
X179721Y295102D01*
X179678Y295318D01*
X179608Y295527D01*
X179510Y295724D01*
X179388Y295907D01*
X179242Y296073D01*
X179152Y296153D01*
X179110Y296457D01*
X179152Y296761D01*
X179242Y296840D01*
X179388Y297006D01*
X179510Y297189D01*
X179608Y297387D01*
X179678Y297595D01*
X179721Y297812D01*
X179736Y298031D01*
X179721Y298251D01*
X179678Y298467D01*
X179608Y298676D01*
X179510Y298874D01*
X179388Y299057D01*
X179242Y299223D01*
X179152Y299302D01*
X179110Y299606D01*
X179152Y299910D01*
X179242Y299990D01*
X179388Y300155D01*
X179510Y300339D01*
X179608Y300536D01*
X179678Y300745D01*
X179721Y300961D01*
X179736Y301181D01*
X179721Y301401D01*
X179678Y301617D01*
X179608Y301826D01*
X179510Y302024D01*
X179388Y302207D01*
X179242Y302372D01*
X179152Y302452D01*
X179110Y302756D01*
X179152Y303060D01*
X179242Y303139D01*
X179388Y303305D01*
X179510Y303488D01*
X179608Y303686D01*
X179678Y303895D01*
X179721Y304111D01*
X179736Y304331D01*
X179721Y304551D01*
X179678Y304767D01*
X179608Y304975D01*
X179510Y305173D01*
X179484Y305213D01*
X179391Y305699D01*
X179563Y305906D01*
X179597Y305935D01*
X179785Y306150D01*
X179944Y306387D01*
X180071Y306644D01*
X180163Y306915D01*
X180175Y306980D01*
X175197D01*
X170218D01*
X170231Y306915D01*
X170323Y306644D01*
X170450Y306387D01*
X170608Y306150D01*
X170797Y305935D01*
X170830Y305906D01*
X170905Y305816D01*
X170816Y305460D01*
X170731Y305335D01*
X168492D01*
Y306248D01*
X165134D01*
Y306748D01*
X163138D01*
Y304331D01*
X162638D01*
Y303831D01*
X160142D01*
Y302186D01*
X130495D01*
X123052Y309629D01*
Y360228D01*
X123827D01*
Y364181D01*
D02*
G37*
G36*
X163279Y281157D02*
X161756D01*
Y279634D01*
X163279D01*
Y281157D01*
D02*
G37*
G36*
X267220Y280449D02*
X265461D01*
Y278610D01*
X267220D01*
Y280449D01*
D02*
G37*
G36*
X264461D02*
X262701D01*
Y278610D01*
X264461D01*
Y280449D01*
D02*
G37*
G36*
X163279Y278634D02*
X161756D01*
Y277110D01*
X163279D01*
Y278634D01*
D02*
G37*
G36*
X213886Y277420D02*
Y272941D01*
X215572D01*
Y275295D01*
X215553Y275581D01*
X215497Y275861D01*
X215405Y276132D01*
X215279Y276388D01*
X215120Y276626D01*
X214931Y276841D01*
X214716Y277029D01*
X214479Y277188D01*
X214222Y277315D01*
X213951Y277407D01*
X213886Y277420D01*
D02*
G37*
G36*
X181390Y277420D02*
X181324Y277407D01*
X181053Y277315D01*
X180797Y277188D01*
X180559Y277029D01*
X180344Y276841D01*
X180156Y276626D01*
X179997Y276388D01*
X179870Y276132D01*
X179778Y275861D01*
X179723Y275581D01*
X179704Y275295D01*
Y272941D01*
X181390D01*
Y277420D01*
D02*
G37*
G36*
X215572Y271941D02*
X213886D01*
Y267462D01*
X213951Y267475D01*
X214222Y267567D01*
X214479Y267694D01*
X214716Y267852D01*
X214931Y268041D01*
X215120Y268256D01*
X215279Y268494D01*
X215405Y268750D01*
X215497Y269021D01*
X215553Y269301D01*
X215572Y269587D01*
Y271941D01*
D02*
G37*
G36*
X181390D02*
X179704D01*
Y269587D01*
X179723Y269301D01*
X179778Y269021D01*
X179870Y268750D01*
X179997Y268494D01*
X180156Y268256D01*
X180344Y268041D01*
X180559Y267852D01*
X180797Y267694D01*
X181053Y267567D01*
X181324Y267475D01*
X181390Y267462D01*
Y271941D01*
D02*
G37*
G36*
X212410Y260083D02*
X210886D01*
Y258559D01*
X212410D01*
Y260083D01*
D02*
G37*
G36*
X318550Y242229D02*
X318327Y242214D01*
X318109Y242171D01*
X317898Y242099D01*
X317698Y242001D01*
X317512Y241877D01*
X317345Y241730D01*
X317198Y241562D01*
X317074Y241377D01*
X316976Y241177D01*
X316904Y240966D01*
X316861Y240748D01*
X316846Y240525D01*
X316861Y240303D01*
X316904Y240084D01*
X316976Y239873D01*
X317074Y239673D01*
X317198Y239488D01*
X317345Y239320D01*
X317512Y239174D01*
X317698Y239050D01*
X317898Y238951D01*
X318109Y238880D01*
X318327Y238836D01*
X318550Y238822D01*
X318772Y238836D01*
X318990Y238880D01*
X319202Y238951D01*
X319223Y238962D01*
X356332Y201853D01*
Y199322D01*
X359891D01*
Y203274D01*
X357753D01*
X320229Y240799D01*
X320195Y240966D01*
X320124Y241177D01*
X320025Y241377D01*
X319901Y241562D01*
X319754Y241730D01*
X319587Y241877D01*
X319401Y242001D01*
X319202Y242099D01*
X318990Y242171D01*
X318772Y242214D01*
X318550Y242229D01*
D02*
G37*
G36*
X281976Y205996D02*
X270375D01*
X270179Y205977D01*
X269991Y205919D01*
X269817Y205826D01*
X269665Y205702D01*
X265643Y201680D01*
X243779D01*
X243758Y201712D01*
X243611Y201879D01*
X243443Y202026D01*
X243258Y202150D01*
X243058Y202249D01*
X242847Y202320D01*
X242629Y202364D01*
X242406Y202378D01*
X242184Y202364D01*
X241965Y202320D01*
X241754Y202249D01*
X241554Y202150D01*
X241369Y202026D01*
X241201Y201879D01*
X241055Y201712D01*
X240931Y201527D01*
X240832Y201327D01*
X240761Y201116D01*
X240717Y200897D01*
X240703Y200675D01*
X240717Y200452D01*
X240761Y200234D01*
X240832Y200023D01*
X240931Y199823D01*
X241055Y199638D01*
X241201Y199470D01*
X241369Y199323D01*
X241554Y199199D01*
X241754Y199101D01*
X241965Y199029D01*
X242184Y198986D01*
X242406Y198971D01*
X242629Y198986D01*
X242847Y199029D01*
X243058Y199101D01*
X243258Y199199D01*
X243443Y199323D01*
X243611Y199470D01*
X243758Y199638D01*
X243779Y199670D01*
X266059D01*
X266255Y199689D01*
X266444Y199746D01*
X266617Y199839D01*
X266770Y199964D01*
X270792Y203986D01*
X281560D01*
X282320Y203226D01*
X282129Y202764D01*
X282079D01*
Y198811D01*
X285638D01*
Y202764D01*
X284794D01*
Y203178D01*
X284774Y203374D01*
X284717Y203562D01*
X284624Y203736D01*
X284500Y203889D01*
X282686Y205702D01*
X282534Y205826D01*
X282360Y205919D01*
X282172Y205977D01*
X281976Y205996D01*
D02*
G37*
%LPD*%
G36*
X207657Y362891D02*
Y335187D01*
X200123Y327654D01*
X199661Y327845D01*
Y328240D01*
X197638D01*
X195614D01*
Y326716D01*
X196114D01*
Y324067D01*
X196633D01*
Y321789D01*
X196509Y321704D01*
X196152Y321615D01*
X196063Y321689D01*
X196034Y321723D01*
X195819Y321911D01*
X195581Y322070D01*
X195325Y322197D01*
X195054Y322288D01*
X194988Y322302D01*
Y317323D01*
Y312344D01*
X195054Y312357D01*
X195325Y312449D01*
X195581Y312576D01*
X195819Y312734D01*
X196034Y312923D01*
X196063Y312956D01*
X196152Y313031D01*
X196509Y312942D01*
X196633Y312857D01*
Y308634D01*
X193679Y305680D01*
X193235Y305511D01*
X192646Y305247D01*
X192073Y304951D01*
X191517Y304623D01*
X190980Y304264D01*
X190465Y303876D01*
X190455Y303868D01*
X186044Y308279D01*
Y313118D01*
X186065Y313132D01*
X186231Y313277D01*
X186310Y313368D01*
X186614Y313410D01*
X186918Y313368D01*
X186998Y313277D01*
X187163Y313132D01*
X187347Y313010D01*
X187544Y312912D01*
X187753Y312841D01*
X187969Y312798D01*
X188189Y312784D01*
X188409Y312798D01*
X188625Y312841D01*
X188834Y312912D01*
X189031Y313010D01*
X189215Y313132D01*
X189380Y313277D01*
X189460Y313368D01*
X189764Y313410D01*
X190068Y313368D01*
X190147Y313277D01*
X190313Y313132D01*
X190496Y313010D01*
X190694Y312912D01*
X190902Y312841D01*
X191119Y312798D01*
X191339Y312784D01*
X191559Y312798D01*
X191775Y312841D01*
X191983Y312912D01*
X192181Y313010D01*
X192364Y313132D01*
X192697Y313137D01*
X192913Y312956D01*
X192943Y312923D01*
X193158Y312734D01*
X193395Y312576D01*
X193652Y312449D01*
X193922Y312357D01*
X193988Y312344D01*
Y317323D01*
Y322302D01*
X193922Y322288D01*
X193652Y322197D01*
X193395Y322070D01*
X193158Y321911D01*
X192943Y321723D01*
X192913Y321689D01*
X192824Y321615D01*
X192468Y321704D01*
X192343Y321789D01*
Y332655D01*
X193270Y333581D01*
X193394Y333733D01*
X193487Y333907D01*
X193545Y334095D01*
X193564Y334291D01*
Y335348D01*
X193842Y335732D01*
X195839D01*
Y338150D01*
Y340567D01*
X194318D01*
X193863Y341067D01*
X193866Y341094D01*
X193866D01*
Y343866D01*
X193866D01*
Y344244D01*
X193866D01*
Y347016D01*
X193234D01*
Y350042D01*
X204967Y361775D01*
X205071Y361740D01*
X205289Y361697D01*
X205512Y361682D01*
X205734Y361697D01*
X205953Y361740D01*
X206164Y361812D01*
X206364Y361910D01*
X206549Y362034D01*
X206716Y362181D01*
X206863Y362349D01*
X206987Y362534D01*
X207086Y362734D01*
X207157Y362945D01*
X207657Y362891D01*
D02*
G37*
G36*
X223381Y339195D02*
X223639Y339062D01*
Y331118D01*
X214227Y321705D01*
X214111Y321694D01*
X214031Y321734D01*
X213822Y321804D01*
X213606Y321848D01*
X213386Y321862D01*
X213166Y321848D01*
X212950Y321804D01*
X212741Y321734D01*
X212544Y321636D01*
X212360Y321514D01*
X212194Y321368D01*
X212115Y321278D01*
X211885Y321246D01*
X211562Y321474D01*
X211556Y322005D01*
X220461Y330909D01*
X220498Y330902D01*
X220721Y330887D01*
X220943Y330902D01*
X221162Y330945D01*
X221373Y331017D01*
X221573Y331115D01*
X221758Y331239D01*
X221926Y331386D01*
X222073Y331554D01*
X222196Y331739D01*
X222295Y331939D01*
X222366Y332150D01*
X222410Y332368D01*
X222425Y332591D01*
X222410Y332813D01*
X222366Y333032D01*
X222295Y333243D01*
X222196Y333442D01*
X222073Y333628D01*
X221926Y333795D01*
X221758Y333942D01*
X221573Y334066D01*
X221373Y334165D01*
X221162Y334236D01*
X220943Y334280D01*
X220721Y334294D01*
X220498Y334280D01*
X220280Y334236D01*
X220069Y334165D01*
X219869Y334066D01*
X219684Y333942D01*
X219516Y333795D01*
X219369Y333628D01*
X219246Y333442D01*
X219147Y333243D01*
X219075Y333032D01*
X219032Y332813D01*
X219017Y332591D01*
X219032Y332368D01*
X219039Y332330D01*
X209526Y322816D01*
X209401Y322664D01*
X209308Y322490D01*
X209251Y322302D01*
X209231Y322106D01*
Y321528D01*
X209211Y321514D01*
X209045Y321368D01*
X208965Y321278D01*
X208661Y321236D01*
X208358Y321278D01*
X208278Y321368D01*
X208112Y321514D01*
X208077Y321537D01*
Y324146D01*
X223070Y339139D01*
X223139Y339223D01*
X223381Y339195D01*
D02*
G37*
G36*
X221354Y341621D02*
Y340266D01*
X206361Y325273D01*
X206236Y325120D01*
X206143Y324947D01*
X206086Y324758D01*
X206067Y324562D01*
Y321518D01*
X206061Y321514D01*
X205895Y321368D01*
X205816Y321278D01*
X205512Y321236D01*
X205208Y321278D01*
X205128Y321368D01*
X204963Y321514D01*
X204942Y321528D01*
Y325532D01*
X220600Y341190D01*
X220725Y341343D01*
X220818Y341516D01*
X220875Y341705D01*
X221354Y341621D01*
D02*
G37*
G36*
X238562Y317642D02*
X228423Y307503D01*
X228298Y307351D01*
X228205Y307177D01*
X228148Y306989D01*
X228129Y306793D01*
Y305854D01*
X227610D01*
Y305335D01*
X224284D01*
X224270Y305356D01*
X224124Y305522D01*
X224033Y305602D01*
X223991Y305906D01*
X224033Y306209D01*
X224124Y306289D01*
X224270Y306455D01*
X224284Y306475D01*
X225503D01*
X225699Y306495D01*
X225888Y306552D01*
X226062Y306645D01*
X226214Y306770D01*
X236152Y316707D01*
X236276Y316860D01*
X236369Y317033D01*
X236426Y317222D01*
X236446Y317418D01*
Y319441D01*
X237606D01*
Y319441D01*
X237984D01*
Y319441D01*
X238562D01*
Y317642D01*
D02*
G37*
G36*
X198194Y303363D02*
X198747Y303309D01*
X199296Y303218D01*
X199838Y303092D01*
X200370Y302930D01*
X200890Y302734D01*
X201397Y302505D01*
X201888Y302243D01*
X202360Y301949D01*
X202812Y301625D01*
X203242Y301272D01*
X203648Y300892D01*
X204028Y300486D01*
X204381Y300056D01*
X204705Y299604D01*
X204999Y299132D01*
X205261Y298641D01*
X205490Y298134D01*
X205686Y297614D01*
X205848Y297082D01*
X205974Y296540D01*
X206065Y295991D01*
X206119Y295438D01*
X206136Y294919D01*
X206133Y294882D01*
X206136Y294844D01*
X206119Y294326D01*
X206065Y293773D01*
X205974Y293224D01*
X205848Y292682D01*
X205686Y292150D01*
X205490Y291629D01*
X205261Y291123D01*
X204999Y290632D01*
X204705Y290160D01*
X204381Y289708D01*
X204028Y289278D01*
X203648Y288872D01*
X203242Y288492D01*
X202812Y288139D01*
X202360Y287815D01*
X201888Y287521D01*
X201397Y287259D01*
X200890Y287029D01*
X200370Y286833D01*
X199838Y286672D01*
X199296Y286546D01*
X198807Y286465D01*
X198315Y286413D01*
X197822Y286388D01*
X197638Y286382D01*
X197082Y286401D01*
X196528Y286455D01*
X195980Y286546D01*
X195438Y286672D01*
X194906Y286833D01*
X194385Y287029D01*
X193878Y287259D01*
X193388Y287521D01*
X192916Y287815D01*
X192464Y288139D01*
X192034Y288492D01*
X191628Y288872D01*
X191247Y289278D01*
X190895Y289708D01*
X190571Y290160D01*
X190277Y290632D01*
X190015Y291123D01*
X189785Y291629D01*
X189589Y292150D01*
X189428Y292682D01*
X189302Y293224D01*
X189211Y293773D01*
X189156Y294326D01*
X189138Y294882D01*
X189156Y295438D01*
X189211Y295991D01*
X189302Y296540D01*
X189428Y297082D01*
X189589Y297614D01*
X189785Y298134D01*
X190015Y298641D01*
X190277Y299132D01*
X190571Y299604D01*
X190895Y300056D01*
X191247Y300486D01*
X191628Y300892D01*
X191795Y301049D01*
X192034Y301272D01*
X192464Y301625D01*
X192916Y301949D01*
X193388Y302243D01*
X193878Y302505D01*
X194001Y302560D01*
X194006Y302563D01*
X194008Y302563D01*
X194385Y302734D01*
X194906Y302930D01*
X195438Y303092D01*
X195980Y303218D01*
X196528Y303309D01*
X197082Y303363D01*
X197638Y303381D01*
X198194Y303363D01*
D02*
G37*
G36*
X193217Y268486D02*
X193297Y268395D01*
X193458Y268254D01*
Y240528D01*
X193401Y240490D01*
X193233Y240343D01*
X193086Y240176D01*
X192963Y239990D01*
X192864Y239790D01*
X192858Y239773D01*
X192358Y239855D01*
Y268246D01*
X192364Y268250D01*
X192530Y268395D01*
X192610Y268486D01*
X192913Y268528D01*
X193217Y268486D01*
D02*
G37*
G36*
X196367Y268486D02*
X196447Y268395D01*
X196612Y268250D01*
X196633Y268236D01*
Y239490D01*
X196620Y239473D01*
X196606Y239470D01*
X196121Y239571D01*
X196079Y239593D01*
X196012Y239790D01*
X195913Y239990D01*
X195790Y240176D01*
X195643Y240343D01*
X195475Y240490D01*
X195468Y240495D01*
Y268219D01*
X195514Y268250D01*
X195679Y268395D01*
X195759Y268486D01*
X196063Y268528D01*
X196367Y268486D01*
D02*
G37*
%LPC*%
G36*
X196839Y340567D02*
Y338650D01*
X198835D01*
Y340567D01*
X196839D01*
D02*
G37*
G36*
X198835Y337650D02*
X196839D01*
Y335732D01*
X198835D01*
Y337650D01*
D02*
G37*
G36*
X199661Y330764D02*
X198138D01*
Y329240D01*
X199661D01*
Y330764D01*
D02*
G37*
G36*
X197138D02*
X195614D01*
Y329240D01*
X197138D01*
Y330764D01*
D02*
G37*
%LPD*%
D10*
X183465Y311024D02*
G03*
X183465Y311024I-1969J0D01*
G01*
X300959Y306114D02*
X305093D01*
X300959Y303948D02*
X305093D01*
Y306114D01*
X300959Y303948D02*
Y306114D01*
X203306Y205177D02*
Y209311D01*
X201140Y205177D02*
Y209311D01*
Y205177D02*
X203306D01*
X201140Y209311D02*
X203306D01*
X199709Y255790D02*
X201875D01*
X199709Y251656D02*
X201875D01*
X199709D02*
Y255790D01*
X201875Y251656D02*
Y255790D01*
X243504Y318307D02*
X262008D01*
X243504Y268307D02*
X262008D01*
Y318307D01*
X243504Y268307D02*
Y318307D01*
X277658Y120965D02*
X281791D01*
X277658Y123130D02*
X281791D01*
X277658Y120965D02*
Y123130D01*
X281791Y120965D02*
Y123130D01*
X279626Y38287D02*
X283760D01*
X279626Y40453D02*
X283760D01*
X279626Y38287D02*
Y40453D01*
X283760Y38287D02*
Y40453D01*
X200886Y38287D02*
X205020D01*
X200886Y40453D02*
X205020D01*
X200886Y38287D02*
Y40453D01*
X205020Y38287D02*
Y40453D01*
X279232Y361122D02*
X283366D01*
X279232Y363287D02*
X283366D01*
X279232Y361122D02*
Y363287D01*
X283366Y361122D02*
Y363287D01*
X39272Y38287D02*
X43406D01*
X39272Y40453D02*
X43406D01*
X39272Y38287D02*
Y40453D01*
X43406Y38287D02*
Y40453D01*
X39075Y120965D02*
X43209D01*
X39075Y123130D02*
X43209D01*
X39075Y120965D02*
Y123130D01*
X43209Y120965D02*
Y123130D01*
X121752Y199705D02*
X125886D01*
X121752Y201870D02*
X125886D01*
X121752Y199705D02*
Y201870D01*
X125886Y199705D02*
Y201870D01*
X39075Y278445D02*
X43209D01*
X39075Y280610D02*
X43209D01*
X39075Y278445D02*
Y280610D01*
X43209Y278445D02*
Y280610D01*
X117815Y361122D02*
X121949D01*
X117815Y363287D02*
X121949D01*
X117815Y361122D02*
Y363287D01*
X121949Y361122D02*
Y363287D01*
X216339Y362992D02*
Y365354D01*
X220669Y362992D02*
Y365354D01*
X216339Y362992D02*
X220669D01*
X216339Y365354D02*
X220669D01*
X263779Y278543D02*
X266142D01*
X263779Y274213D02*
X266142D01*
X263779D02*
Y278543D01*
X266142Y274213D02*
Y278543D01*
X235728Y319941D02*
X239862D01*
X235728Y322106D02*
X239862D01*
X235728Y319941D02*
Y322106D01*
X239862Y319941D02*
Y322106D01*
X185886Y341988D02*
X188051D01*
X185886Y346122D02*
X188051D01*
Y341988D02*
Y346122D01*
X185886Y341988D02*
Y346122D01*
X235728Y326831D02*
X239862D01*
X235728Y324665D02*
X239862D01*
Y326831D01*
X235728Y324665D02*
Y326831D01*
X182933Y337067D02*
X187067D01*
X182933Y339232D02*
X187067D01*
X182933Y337067D02*
Y339232D01*
X187067Y337067D02*
Y339232D01*
X177953Y314567D02*
X217323D01*
X177953Y275197D02*
X217323D01*
X177953D02*
Y314567D01*
X217323Y275197D02*
Y314567D01*
X227165Y332441D02*
X246850D01*
X227165Y352126D02*
X246850D01*
Y332441D02*
Y352126D01*
X227165Y332441D02*
Y352126D01*
X358169Y123130D02*
X362303D01*
X358169Y120965D02*
X362303D01*
Y123130D01*
X358169Y120965D02*
Y123130D01*
Y40453D02*
X362303D01*
X358169Y38287D02*
X362303D01*
Y40453D01*
X358169Y38287D02*
Y40453D01*
X357893Y363115D02*
X362027D01*
X357893Y360949D02*
X362027D01*
Y363115D01*
X357893Y360949D02*
Y363115D01*
X357601Y305737D02*
X361735D01*
X357601Y303571D02*
X361735D01*
Y305737D01*
X357601Y303571D02*
Y305737D01*
X208307Y119622D02*
Y123756D01*
X206142Y119622D02*
Y123756D01*
Y119622D02*
X208307D01*
X206142Y123756D02*
X208307D01*
X122146Y38287D02*
X126279D01*
X122146Y40453D02*
X126279D01*
X122146Y38287D02*
Y40453D01*
X126279Y38287D02*
Y40453D01*
X117815Y120965D02*
X121949D01*
X117815Y123130D02*
X121949D01*
X117815Y120965D02*
Y123130D01*
X121949Y120965D02*
Y123130D01*
X39272Y199705D02*
X43406D01*
X39272Y201870D02*
X43406D01*
X39272Y199705D02*
Y201870D01*
X43406Y199705D02*
Y201870D01*
X117815Y278445D02*
X121949D01*
X117815Y280610D02*
X121949D01*
X117815Y278445D02*
Y280610D01*
X121949Y278445D02*
Y280610D01*
X39075Y361122D02*
X43209D01*
X39075Y363287D02*
X43209D01*
X39075Y361122D02*
Y363287D01*
X43209Y361122D02*
Y363287D01*
X279626Y199705D02*
X283760D01*
X279626Y201870D02*
X283760D01*
X279626Y199705D02*
Y201870D01*
X283760Y199705D02*
Y201870D01*
X189173Y362992D02*
Y365354D01*
X184843Y362992D02*
Y365354D01*
X189173D01*
X184843Y362992D02*
X189173D01*
X162500Y303248D02*
Y305413D01*
X166634Y303248D02*
Y305413D01*
X162500Y303248D02*
X166634D01*
X162500Y305413D02*
X166634D01*
X191398Y341988D02*
Y346122D01*
X193563Y341988D02*
Y346122D01*
X191398D02*
X193563D01*
X191398Y341988D02*
X193563D01*
X263779Y308071D02*
X266142D01*
X263779Y312402D02*
X266142D01*
Y308071D02*
Y312402D01*
X263779Y308071D02*
Y312402D01*
X358210Y200215D02*
Y202381D01*
X362343Y200215D02*
Y202381D01*
X358210Y200215D02*
X362343D01*
X358210Y202381D02*
X362343D01*
X192382Y337067D02*
X196516D01*
X192382Y339232D02*
X196516D01*
X192382Y337067D02*
Y339232D01*
X196516Y337067D02*
Y339232D01*
X252756Y291339D02*
Y295276D01*
X250787Y293307D02*
X254724D01*
X217323Y364173D02*
X219685D01*
X218504Y362992D02*
Y365354D01*
X264961Y275197D02*
Y277559D01*
X263779Y276378D02*
X266142D01*
X237795Y319941D02*
Y322106D01*
X236713Y321024D02*
X238878D01*
X186969Y342972D02*
Y345138D01*
X185886Y344055D02*
X188051D01*
X237795Y324665D02*
Y326831D01*
X236713Y325748D02*
X238878D01*
X185000Y337067D02*
Y339232D01*
X183917Y338150D02*
X186083D01*
X197638Y292913D02*
Y296850D01*
X195669Y294882D02*
X199606D01*
X235039Y342284D02*
X238976D01*
X237008Y340315D02*
Y344252D01*
X185827Y364173D02*
X188189D01*
X187008Y362992D02*
Y365354D01*
X163484Y304331D02*
X165650D01*
X164567Y303248D02*
Y305413D01*
X191398Y344055D02*
X193563D01*
X192480Y342972D02*
Y345138D01*
X264961Y309055D02*
Y311417D01*
X263779Y310236D02*
X266142D01*
X194449Y337067D02*
Y339232D01*
X193366Y338150D02*
X195531D01*
X197642Y384646D02*
X207870D01*
X202756Y379532D02*
Y389760D01*
X211446Y344529D02*
X215384D01*
X213415Y342561D02*
Y346498D01*
X181876Y329050D02*
Y332987D01*
X179907Y331019D02*
X183844D01*
X197638Y325197D02*
Y329134D01*
X195669Y327165D02*
X199606D01*
X163386Y310630D02*
X167323D01*
X165354Y308661D02*
Y312598D01*
X228740Y304331D02*
X232677D01*
X230709Y302362D02*
Y306299D01*
X163386Y279134D02*
X167323D01*
X165354Y277165D02*
Y281102D01*
X210386Y260189D02*
Y264126D01*
X208418Y262158D02*
X212354D01*
D11*
X303026Y303948D02*
Y306114D01*
X301943Y305031D02*
X304108D01*
X298695Y307393D02*
X307356D01*
X298695Y302669D02*
X307356D01*
Y307393D01*
X298695Y302669D02*
Y307393D01*
X201140Y207244D02*
X203306D01*
X202223Y206161D02*
Y208326D01*
X204585Y202913D02*
Y211574D01*
X199861Y202913D02*
Y211574D01*
Y202913D02*
X204585D01*
X199861Y211574D02*
X204585D01*
X198430Y258054D02*
X203154D01*
X198430Y249392D02*
X203154D01*
X198430D02*
Y258054D01*
X203154Y249392D02*
Y258054D01*
X200792Y252640D02*
Y254806D01*
X199709Y253723D02*
X201875D01*
X243110Y263189D02*
Y323425D01*
X262402Y263189D02*
Y323425D01*
X243110Y263189D02*
X262402D01*
X243110Y323425D02*
X262402D01*
X279724Y120965D02*
Y123130D01*
X278642Y122047D02*
X280807D01*
X275394Y119685D02*
X284055D01*
X275394Y124409D02*
X284055D01*
X275394Y119685D02*
Y124409D01*
X284055Y119685D02*
Y124409D01*
X281693Y38287D02*
Y40453D01*
X280610Y39370D02*
X282776D01*
X277362Y37008D02*
X286024D01*
X277362Y41732D02*
X286024D01*
X277362Y37008D02*
Y41732D01*
X286024Y37008D02*
Y41732D01*
X202953Y38287D02*
Y40453D01*
X201870Y39370D02*
X204035D01*
X198622Y37008D02*
X207283D01*
X198622Y41732D02*
X207283D01*
X198622Y37008D02*
Y41732D01*
X207283Y37008D02*
Y41732D01*
X281299Y361122D02*
Y363287D01*
X280217Y362205D02*
X282382D01*
X276969Y359842D02*
X285630D01*
X276969Y364567D02*
X285630D01*
X276969Y359842D02*
Y364567D01*
X285630Y359842D02*
Y364567D01*
X41339Y38287D02*
Y40453D01*
X40256Y39370D02*
X42421D01*
X37008Y37008D02*
X45669D01*
X37008Y41732D02*
X45669D01*
X37008Y37008D02*
Y41732D01*
X45669Y37008D02*
Y41732D01*
X41142Y120965D02*
Y123130D01*
X40059Y122047D02*
X42224D01*
X36811Y119685D02*
X45472D01*
X36811Y124409D02*
X45472D01*
X36811Y119685D02*
Y124409D01*
X45472Y119685D02*
Y124409D01*
X123819Y199705D02*
Y201870D01*
X122736Y200787D02*
X124902D01*
X119488Y198425D02*
X128150D01*
X119488Y203150D02*
X128150D01*
X119488Y198425D02*
Y203150D01*
X128150Y198425D02*
Y203150D01*
X41142Y278445D02*
Y280610D01*
X40059Y279528D02*
X42224D01*
X36811Y277165D02*
X45472D01*
X36811Y281890D02*
X45472D01*
X36811Y277165D02*
Y281890D01*
X45472Y277165D02*
Y281890D01*
X119882Y361122D02*
Y363287D01*
X118799Y362205D02*
X120965D01*
X115551Y359842D02*
X124213D01*
X115551Y364567D02*
X124213D01*
X115551Y359842D02*
Y364567D01*
X124213Y359842D02*
Y364567D01*
X214961Y362402D02*
Y365945D01*
X222047Y362402D02*
Y365945D01*
X214961Y362402D02*
X222047D01*
X214961Y365945D02*
X222047D01*
X262992Y280118D02*
X266929D01*
X262992Y272638D02*
X266929D01*
X262992D02*
Y280118D01*
X266929Y272638D02*
Y280118D01*
X234252Y319252D02*
X241339D01*
X234252Y322795D02*
X241339D01*
X234252Y319252D02*
Y322795D01*
X241339Y319252D02*
Y322795D01*
X185394Y341102D02*
X188543D01*
X185394Y347008D02*
X188543D01*
Y341102D02*
Y347008D01*
X185394Y341102D02*
Y347008D01*
X233465Y328110D02*
X242126D01*
X233465Y323386D02*
X242126D01*
Y328110D01*
X233465Y323386D02*
Y328110D01*
X180669Y335787D02*
X189331D01*
X180669Y340512D02*
X189331D01*
X180669Y335787D02*
Y340512D01*
X189331Y335787D02*
Y340512D01*
X169291Y323228D02*
X225984D01*
X169291Y266535D02*
X225984D01*
X169291D02*
Y323228D01*
X225984Y266535D02*
Y323228D01*
X226772Y328563D02*
X247244D01*
X226772D02*
Y356004D01*
X247244Y328563D02*
Y356004D01*
X226772D02*
X247244D01*
X360236Y120965D02*
Y123130D01*
X359154Y122047D02*
X361319D01*
X355906Y124409D02*
X364567D01*
X355906Y119685D02*
X364567D01*
Y124409D01*
X355906Y119685D02*
Y124409D01*
X360236Y38287D02*
Y40453D01*
X359154Y39370D02*
X361319D01*
X355906Y41732D02*
X364567D01*
X355906Y37008D02*
X364567D01*
Y41732D01*
X355906Y37008D02*
Y41732D01*
X359960Y360949D02*
Y363115D01*
X358877Y362032D02*
X361043D01*
X355629Y364394D02*
X364291D01*
X355629Y359670D02*
X364291D01*
Y364394D01*
X355629Y359670D02*
Y364394D01*
X359668Y303571D02*
Y305737D01*
X358585Y304654D02*
X360751D01*
X355337Y307016D02*
X363999D01*
X355337Y302292D02*
X363999D01*
Y307016D01*
X355337Y302292D02*
Y307016D01*
X206142Y121689D02*
X208307D01*
X207224Y120606D02*
Y122772D01*
X209587Y117358D02*
Y126020D01*
X204862Y117358D02*
Y126020D01*
Y117358D02*
X209587D01*
X204862Y126020D02*
X209587D01*
X124213Y38287D02*
Y40453D01*
X123130Y39370D02*
X125295D01*
X119882Y37008D02*
X128543D01*
X119882Y41732D02*
X128543D01*
X119882Y37008D02*
Y41732D01*
X128543Y37008D02*
Y41732D01*
X119882Y120965D02*
Y123130D01*
X118799Y122047D02*
X120965D01*
X115551Y119685D02*
X124213D01*
X115551Y124409D02*
X124213D01*
X115551Y119685D02*
Y124409D01*
X124213Y119685D02*
Y124409D01*
X41339Y199705D02*
Y201870D01*
X40256Y200787D02*
X42421D01*
X37008Y198425D02*
X45669D01*
X37008Y203150D02*
X45669D01*
X37008Y198425D02*
Y203150D01*
X45669Y198425D02*
Y203150D01*
X119882Y278445D02*
Y280610D01*
X118799Y279528D02*
X120965D01*
X115551Y277165D02*
X124213D01*
X115551Y281890D02*
X124213D01*
X115551Y277165D02*
Y281890D01*
X124213Y277165D02*
Y281890D01*
X41142Y361122D02*
Y363287D01*
X40059Y362205D02*
X42224D01*
X36811Y359842D02*
X45472D01*
X36811Y364567D02*
X45472D01*
X36811Y359842D02*
Y364567D01*
X45472Y359842D02*
Y364567D01*
X281693Y199705D02*
Y201870D01*
X280610Y200787D02*
X282776D01*
X277362Y198425D02*
X286024D01*
X277362Y203150D02*
X286024D01*
X277362Y198425D02*
Y203150D01*
X286024Y198425D02*
Y203150D01*
X190551Y362402D02*
Y365945D01*
X183465Y362402D02*
Y365945D01*
X190551D01*
X183465Y362402D02*
X190551D01*
X160236Y301969D02*
Y306693D01*
X168898Y301969D02*
Y306693D01*
X160236Y301969D02*
X168898D01*
X160236Y306693D02*
X168898D01*
X190905Y341102D02*
Y347008D01*
X194055Y341102D02*
Y347008D01*
X190905D02*
X194055D01*
X190905Y341102D02*
X194055D01*
X262992Y306496D02*
X266929D01*
X262992Y313976D02*
X266929D01*
Y306496D02*
Y313976D01*
X262992Y306496D02*
Y313976D01*
X355946Y198936D02*
Y203660D01*
X364607Y198936D02*
Y203660D01*
X355946Y198936D02*
X364607D01*
X355946Y203660D02*
X364607D01*
X359194Y201298D02*
X361359D01*
X360277Y200215D02*
Y202381D01*
X190118Y335787D02*
X198779D01*
X190118Y340512D02*
X198779D01*
X190118Y335787D02*
Y340512D01*
X198779Y335787D02*
Y340512D01*
D12*
X183189Y366890D02*
X222323D01*
Y400984D01*
X183189D02*
X222323D01*
X183189Y366890D02*
Y400984D01*
X211840Y341380D02*
X214990D01*
X211840D02*
Y347679D01*
X214990D01*
Y341380D02*
Y347679D01*
X185025Y329444D02*
Y332594D01*
X178726Y329444D02*
X185025D01*
X178726D02*
Y332594D01*
X185025D01*
X199213Y324016D02*
Y330315D01*
X196063D02*
X199213D01*
X196063Y324016D02*
Y330315D01*
Y324016D02*
X199213D01*
X162205Y312205D02*
X168504D01*
X162205Y309055D02*
Y312205D01*
Y309055D02*
X168504D01*
Y312205D01*
X227559Y302756D02*
X233858D01*
Y305906D01*
X227559D02*
X233858D01*
X227559Y302756D02*
Y305906D01*
X162205Y280709D02*
X168504D01*
X162205Y277559D02*
Y280709D01*
Y277559D02*
X168504D01*
Y280709D01*
X208811Y259008D02*
Y265307D01*
Y259008D02*
X211961D01*
Y265307D01*
X208811D02*
X211961D01*
X183189Y366890D02*
X222323D01*
Y400984D01*
X183189D02*
X222323D01*
X183189Y366890D02*
Y400984D01*
X211840Y341380D02*
X214990D01*
X211840D02*
Y347679D01*
X214990D01*
Y341380D02*
Y347679D01*
X185025Y329444D02*
Y332594D01*
X178726Y329444D02*
X185025D01*
X178726D02*
Y332594D01*
X185025D01*
X199213Y324016D02*
Y330315D01*
X196063D02*
X199213D01*
X196063Y324016D02*
Y330315D01*
Y324016D02*
X199213D01*
X162205Y312205D02*
X168504D01*
X162205Y309055D02*
Y312205D01*
Y309055D02*
X168504D01*
Y312205D01*
X227559Y302756D02*
X233858D01*
Y305906D01*
X227559D02*
X233858D01*
X227559Y302756D02*
Y305906D01*
X162205Y280709D02*
X168504D01*
X162205Y277559D02*
Y280709D01*
Y277559D02*
X168504D01*
Y280709D01*
X208811Y259008D02*
Y265307D01*
Y259008D02*
X211961D01*
Y265307D01*
X208811D02*
X211961D01*
X184764Y368701D02*
X220748D01*
Y400591D01*
X184764D02*
X220748D01*
X184764Y368701D02*
Y400591D01*
X183189Y399488D02*
X222323D01*
X212332Y342462D02*
X214498D01*
X212332D02*
Y346596D01*
X214498D01*
Y342462D02*
Y346596D01*
X183943Y329936D02*
Y332102D01*
X179809Y329936D02*
X183943D01*
X179809D02*
Y332102D01*
X183943D01*
X198721Y325098D02*
Y329232D01*
X196555D02*
X198721D01*
X196555Y325098D02*
Y329232D01*
Y325098D02*
X198721D01*
X163287Y311713D02*
X167421D01*
X163287Y309547D02*
Y311713D01*
Y309547D02*
X167421D01*
Y311713D01*
X228642Y303248D02*
X232776D01*
Y305413D01*
X228642D02*
X232776D01*
X228642Y303248D02*
Y305413D01*
X163287Y280217D02*
X167421D01*
X163287Y278051D02*
Y280217D01*
Y278051D02*
X167421D01*
Y280217D01*
X209303Y260091D02*
Y264225D01*
Y260091D02*
X211469D01*
Y264225D01*
X209303D02*
X211469D01*
D13*
X198449Y334368D02*
X198982Y334901D01*
X200048D01*
X200581Y334368D01*
Y332236D01*
X200048Y331702D01*
X198982D01*
X198449Y332236D01*
X197382D02*
X196849Y331702D01*
X195783D01*
X195249Y332236D01*
Y334368D01*
X195783Y334901D01*
X196849D01*
X197382Y334368D01*
Y333835D01*
X196849Y333302D01*
X195249D01*
X165771Y317045D02*
X166304Y317579D01*
X167371D01*
X167904Y317045D01*
Y314913D01*
X167371Y314380D01*
X166304D01*
X165771Y314913D01*
X164705Y317579D02*
X162572D01*
Y317045D01*
X164705Y314913D01*
Y314380D01*
X232700Y300116D02*
X233234Y300649D01*
X234300D01*
X234833Y300116D01*
Y297984D01*
X234300Y297450D01*
X233234D01*
X232700Y297984D01*
X231634Y297450D02*
X230568D01*
X231101D01*
Y300649D01*
X231634Y300116D01*
X228968D02*
X228435Y300649D01*
X227369D01*
X226836Y300116D01*
Y297984D01*
X227369Y297450D01*
X228435D01*
X228968Y297984D01*
Y300116D01*
X165771Y274919D02*
X166304Y275452D01*
X167371D01*
X167904Y274919D01*
Y272787D01*
X167371Y272253D01*
X166304D01*
X165771Y272787D01*
X164705Y274919D02*
X164172Y275452D01*
X163105D01*
X162572Y274919D01*
Y274386D01*
X163105Y273853D01*
X162572Y273320D01*
Y272787D01*
X163105Y272253D01*
X164172D01*
X164705Y272787D01*
Y273320D01*
X164172Y273853D01*
X164705Y274386D01*
Y274919D01*
X164172Y273853D02*
X163105D01*
X210803Y257550D02*
X211336Y258083D01*
X212403D01*
X212936Y257550D01*
Y255417D01*
X212403Y254884D01*
X211336D01*
X210803Y255417D01*
X207604Y258083D02*
X208670Y257550D01*
X209737Y256483D01*
Y255417D01*
X209204Y254884D01*
X208137D01*
X207604Y255417D01*
Y255950D01*
X208137Y256483D01*
X209737D01*
D15*
X185748Y371417D02*
D03*
X219764D02*
D03*
D16*
X185748Y392520D02*
D03*
X219764D02*
D03*
D18*
X194463Y272416D02*
X194488Y272441D01*
X194463Y239510D02*
Y272416D01*
X194418Y239464D02*
X194463Y239510D01*
X266059Y200675D02*
X270375Y204991D01*
X281976D02*
X283789Y203178D01*
X270375Y204991D02*
X281976D01*
X283789Y200857D02*
X283858Y200787D01*
X283789Y200857D02*
Y203178D01*
X242406Y200675D02*
X266059D01*
X210236Y322106D02*
X220721Y332591D01*
X210236Y317323D02*
Y322106D01*
X178820Y321858D02*
X181890Y318789D01*
X163010Y321858D02*
X178820D01*
X160585Y319434D02*
X163010Y321858D01*
X200914Y239229D02*
Y251255D01*
X200721Y251448D02*
X200914Y251255D01*
X181890Y317323D02*
Y318789D01*
X319081Y240525D02*
X358078Y201528D01*
X318550Y240525D02*
X319081D01*
X358078Y201018D02*
Y201528D01*
X229813Y316041D02*
Y319437D01*
X224563Y310791D02*
X229813Y316041D01*
X220079Y310630D02*
X220240Y310791D01*
X224563D01*
X220079Y307480D02*
X225503D01*
X235441Y317418D01*
Y320441D01*
X222359Y339849D02*
Y357200D01*
X233273Y368113D01*
X280239D01*
X224644Y330701D02*
Y356107D01*
X234384Y365848D01*
X258279D01*
X213237Y319659D02*
X214283Y320706D01*
X214649D01*
X224644Y330701D01*
X207072Y317752D02*
Y324562D01*
X222359Y339849D01*
X258279Y365848D02*
X300860Y323267D01*
X280239Y368113D02*
X283465Y364887D01*
X300860Y305031D02*
Y323267D01*
X219889Y341901D02*
Y358129D01*
X232012Y370251D02*
X353268D01*
X219889Y358129D02*
X232012Y370251D01*
X202223Y121459D02*
Y205078D01*
X305191Y305031D02*
Y324348D01*
X279134Y350405D02*
X305191Y324348D01*
X279134Y350405D02*
Y362205D01*
X39075Y114354D02*
Y194708D01*
X362066Y301179D02*
Y361973D01*
X39075Y194708D02*
Y287205D01*
X362481Y35503D02*
Y39732D01*
X117613Y121747D02*
Y122085D01*
X357115Y296228D02*
X362066Y301179D01*
X306168Y304055D02*
X313994Y296228D01*
X357115D01*
X362066Y201674D02*
Y301179D01*
X305191Y304834D02*
X305971Y304055D01*
X306168D01*
X299975Y305191D02*
X300399D01*
X342516Y319618D02*
X357212Y304922D01*
X353268Y370251D02*
X357795Y365725D01*
Y362032D02*
Y365725D01*
X362066Y361973D02*
X362125Y362032D01*
X279528Y193907D02*
X284728Y188707D01*
X357423D01*
X362422Y193706D01*
Y201278D01*
Y122515D02*
Y193706D01*
X279528Y193907D02*
Y200787D01*
X362402Y116647D02*
Y122047D01*
Y39811D02*
Y116647D01*
X356803Y111048D02*
X362402Y116647D01*
X282143Y111048D02*
X356803D01*
X277559Y115632D02*
Y122047D01*
Y115632D02*
X282143Y111048D01*
X116937Y121071D02*
X117613Y121747D01*
X116669Y121071D02*
X116937D01*
X45678Y107751D02*
X103350D01*
X116669Y121071D01*
X39075Y39851D02*
Y114354D01*
X45678Y107751D01*
X39075Y287205D02*
Y362106D01*
X49424Y297554D02*
X99690D01*
X39075Y287205D02*
X49424Y297554D01*
X99690D02*
X116740Y280504D01*
X117717Y279528D02*
Y279724D01*
X116937Y280504D02*
X117717Y279724D01*
X116740Y280504D02*
X116937D01*
X39075Y194708D02*
X44486Y189297D01*
X110060D01*
X120574Y199811D01*
X121514Y200451D02*
Y200751D01*
X120874Y199811D02*
X121514Y200451D01*
X120574Y199811D02*
X120874D01*
X200591Y40289D02*
Y53618D01*
X207224Y60251D02*
Y119524D01*
X200591Y53618D02*
X207224Y60251D01*
X362422Y201278D02*
X362442Y201298D01*
X204248Y119434D02*
X207120D01*
X202223Y121459D02*
X204248Y119434D01*
X207101Y124601D02*
X207880Y123822D01*
X207101Y124601D02*
Y272531D01*
X207880Y123822D02*
X207967D01*
X232261Y98264D02*
Y280036D01*
X220142Y54591D02*
Y279034D01*
X229104Y96546D02*
Y278810D01*
X232261Y98264D02*
X275389Y55137D01*
X229104Y96546D02*
X283858Y41792D01*
X226864Y285433D02*
X232261Y280036D01*
X205118Y39567D02*
X220142Y54591D01*
X225665Y282249D02*
X229104Y278810D01*
X362402Y39811D02*
X362481Y39732D01*
X279663Y34889D02*
Y35093D01*
X281710Y33047D01*
X279528Y35229D02*
X279663Y35093D01*
X281710Y33047D02*
X360025D01*
X362481Y35503D01*
X279528Y35229D02*
Y39370D01*
X277684Y32910D02*
X279663Y34889D01*
X202644Y32910D02*
X277684D01*
X200787Y34767D02*
X202644Y32910D01*
X200787Y34767D02*
Y39370D01*
X122047Y34592D02*
Y39370D01*
Y34510D02*
Y34592D01*
X120358Y32902D02*
X122047Y34592D01*
X198755Y32910D02*
X200529Y34684D01*
X123647Y32910D02*
X198755D01*
X122047Y34510D02*
X123647Y32910D01*
X41421Y32902D02*
X120358D01*
X39173Y35149D02*
Y39370D01*
Y35149D02*
X41421Y32902D01*
X362422Y122515D02*
X362443Y122493D01*
X362066Y201674D02*
X362442Y201298D01*
X353330Y55137D02*
X358229Y50238D01*
Y39616D02*
Y50238D01*
X275389Y55137D02*
X353330D01*
X347415Y142455D02*
X357997Y131873D01*
Y122209D02*
Y131873D01*
X38976Y362205D02*
X39075Y362106D01*
X117717Y362205D02*
Y362461D01*
X117583Y362594D02*
X117717Y362461D01*
X117583Y362594D02*
Y366843D01*
X115820Y368607D02*
X117583Y366843D01*
X41102Y368607D02*
X115820D01*
X38976Y362205D02*
Y366482D01*
X41102Y368607D01*
X203937Y325949D02*
X219889Y341901D01*
X203937Y317323D02*
Y325949D01*
X208661Y334771D02*
X213345Y339454D01*
Y342909D01*
X201149Y304245D02*
X201235Y304331D01*
X198435Y284914D02*
X198435D01*
X200618D01*
X193323Y303903D02*
X197638Y308218D01*
X185039Y307862D02*
X190760Y302141D01*
X190110Y279134D02*
X195994Y285018D01*
X283465Y362205D02*
Y364887D01*
X208661Y334771D02*
Y369803D01*
X185022Y317399D02*
Y329416D01*
X183554Y330915D02*
X183974Y330495D01*
Y330464D02*
Y330495D01*
Y330464D02*
X185022Y329416D01*
X185039Y307862D02*
Y317323D01*
X229134Y306793D02*
X239567Y317226D01*
X229134Y304331D02*
Y306793D01*
X239567Y317226D02*
Y321024D01*
X229134Y304331D02*
X229134Y304331D01*
X238731Y173097D02*
Y282654D01*
X269373Y142455D02*
X347415D01*
X238731Y173097D02*
X269373Y142455D01*
X228131Y288583D02*
X235472Y281242D01*
Y171568D02*
X281890Y125149D01*
X235472Y171568D02*
Y281242D01*
X229653Y291732D02*
X238731Y282654D01*
X281890Y122047D02*
Y125149D01*
X283858Y39370D02*
Y41792D01*
X220079Y291732D02*
X229653D01*
X220079Y285433D02*
X226864D01*
X220079Y288583D02*
X228131D01*
X220500Y282249D02*
X225665D01*
X220079Y304331D02*
X229134D01*
X201235D02*
X220079D01*
X205118Y39370D02*
Y39567D01*
X210311Y263807D02*
X210386Y263733D01*
X210311Y263807D02*
Y272174D01*
X210223Y272262D02*
X210311Y272174D01*
X203906Y210895D02*
Y272410D01*
X202420Y209409D02*
X203906Y210895D01*
Y272410D02*
X203937Y272441D01*
X202223Y209409D02*
X202420D01*
X200787Y256070D02*
Y272250D01*
X43307Y122047D02*
X75799D01*
X185039Y231288D02*
Y271710D01*
X75799Y122047D02*
X185039Y231288D01*
X81406Y39370D02*
X191353Y149318D01*
Y272758D01*
X43504Y39370D02*
X81406D01*
X126378D02*
Y39567D01*
X197638Y110827D01*
Y272267D01*
X197713Y272343D01*
X188233Y188430D02*
Y272004D01*
X122047Y122244D02*
X188233Y188430D01*
X122047Y122047D02*
Y122244D01*
Y309213D02*
X130079Y301181D01*
X175197D01*
X122047Y309213D02*
Y362205D01*
X127816Y297976D02*
X175141D01*
X43307Y362205D02*
X63587D01*
X127816Y297976D01*
X175141D02*
X175197Y298031D01*
X152233Y291851D02*
X175133D01*
X66575Y256260D02*
X116641D01*
X152233Y291851D01*
X65994Y200787D02*
X153718Y288511D01*
X43504Y200787D02*
X65994D01*
X153718Y288511D02*
X174942D01*
X175133Y291851D02*
X175228Y291755D01*
X43307Y279331D02*
Y279528D01*
Y279331D02*
X44087Y278551D01*
X44284D01*
X66575Y256260D01*
X175197Y285433D02*
X175299D01*
X155532D02*
X175197D01*
X122047Y279528D02*
X135285D01*
X150647Y294890D01*
X175299Y285433D02*
X175514Y285649D01*
X125984Y255886D02*
X155532Y285433D01*
X150647Y294890D02*
X175438D01*
X125984Y200787D02*
Y255886D01*
X197638Y317323D02*
Y325591D01*
X197732Y325685D02*
X199576D01*
X197638Y325591D02*
X197732Y325685D01*
X199576D02*
X208661Y334771D01*
X207768Y375012D02*
Y376788D01*
X212205Y377960D02*
Y382091D01*
X207768Y376788D02*
X208353Y377374D01*
X211619D01*
X212205Y377960D01*
X196850Y378740D02*
Y382091D01*
X211619Y382677D02*
X212205Y382091D01*
X197436Y382677D02*
X211619D01*
X196850Y382091D02*
X197436Y382677D01*
X207677Y374921D02*
X207768Y375012D01*
X196850Y378740D02*
X197835Y377756D01*
Y374921D02*
Y377756D01*
X182272Y310630D02*
X185039Y307862D01*
X175197Y279134D02*
X190110D01*
X200618Y284914D02*
X210236Y275295D01*
X197638Y308218D02*
Y317323D01*
X200787D01*
X175197Y310630D02*
X182272D01*
X252795Y274646D02*
X264961D01*
X252756Y274606D02*
X252795Y274646D01*
X220079Y294882D02*
X239370D01*
X252756Y281496D01*
Y274606D02*
Y281496D01*
X220079Y298031D02*
X245669D01*
X252756Y305118D01*
Y312008D01*
X252795Y311968D01*
X264961D01*
X232008Y331457D02*
Y353110D01*
X234008Y327528D02*
X235945Y325591D01*
Y321102D02*
X236024Y321024D01*
X235945Y321102D02*
Y325591D01*
X232008Y331457D02*
X234008Y329457D01*
Y327528D02*
Y329457D01*
X207677Y372202D02*
Y374921D01*
Y372202D02*
X208571Y371308D01*
Y369894D02*
Y371308D01*
Y369894D02*
X208661Y369803D01*
X196850D02*
Y372523D01*
X197744Y373416D01*
Y374831D01*
X197835Y374921D01*
X192559Y334291D02*
Y338150D01*
X191339Y317323D02*
Y333071D01*
X192559Y334291D01*
X186890Y334370D02*
Y338150D01*
X188189Y317323D02*
Y333071D01*
X186890Y334370D02*
X188189Y333071D01*
X192480Y342480D02*
X192520Y342441D01*
Y338189D02*
Y342441D01*
Y338189D02*
X192559Y338150D01*
X186929Y342441D02*
X186969Y342480D01*
X186929Y338189D02*
Y342441D01*
X186890Y338150D02*
X186929Y338189D01*
X166496Y304331D02*
X166496Y304331D01*
X175197D01*
X166929Y279134D02*
X166929Y279134D01*
X175197D01*
X166929Y310630D02*
X166929Y310630D01*
X175197D01*
X197638Y317323D02*
X197638Y317323D01*
D19*
X200716Y255965D02*
X200792Y255888D01*
X200787Y272250D02*
X200859Y272322D01*
X212205Y364173D02*
X216831D01*
X205709Y377049D02*
X208581Y379921D01*
X209055D01*
X205709Y374921D02*
Y377049D01*
X188681Y364173D02*
X194250D01*
X198478Y368402D01*
Y369463D01*
X198819Y369803D01*
X204724D02*
Y370591D01*
X204384Y370931D02*
X204724Y370591D01*
X203634Y370931D02*
X204384D01*
X200787Y369016D02*
Y369803D01*
Y369016D02*
X205148Y364655D01*
Y363749D02*
Y364655D01*
Y363749D02*
X205512Y363386D01*
X201772Y372793D02*
Y374921D01*
Y372793D02*
X203634Y370931D01*
X200787Y369803D02*
X201128Y370144D01*
X201772Y374921D02*
Y378150D01*
X200000Y379921D02*
X201772Y378150D01*
X203740Y374921D02*
Y378150D01*
X205512Y379921D01*
X203400Y374581D02*
X203740Y374921D01*
X192480Y345630D02*
Y350354D01*
X205512Y363386D01*
X186969Y345630D02*
Y350354D01*
X200000Y363386D01*
D21*
X194438Y239138D02*
D03*
X242406Y200675D02*
D03*
X220721Y332591D02*
D03*
X160585Y319434D02*
D03*
X200914Y239229D02*
D03*
X318550Y240525D02*
D03*
X229799Y319498D02*
D03*
X342516Y319618D02*
D03*
X202250Y160568D02*
D03*
X200000Y363386D02*
D03*
X205512D02*
D03*
X200000Y379921D02*
D03*
X205512D02*
D03*
X209055D02*
D03*
X212205Y364173D02*
D03*
D22*
X207638Y294882D02*
G03*
X201149Y304245I-10000J0D01*
G01*
X198435Y284914D02*
G03*
X207638Y294882I-797J9968D01*
G01*
X201149Y304245D02*
G03*
X193323Y303903I-3511J-9363D01*
G01*
X195994Y285018D02*
G03*
X198435Y284914I1644J9864D01*
G01*
X193323Y303903D02*
G03*
X190760Y302141I4315J-9021D01*
G01*
D02*
G03*
X195994Y285018I6877J-7260D01*
G01*
D23*
X190945Y369803D02*
D03*
X192913D02*
D03*
X194882D02*
D03*
X196850D02*
D03*
X198819D02*
D03*
X200787D02*
D03*
X204724D02*
D03*
X206693D02*
D03*
X208661D02*
D03*
X210630D02*
D03*
X212598D02*
D03*
X214567D02*
D03*
X211614Y374921D02*
D03*
X209646D02*
D03*
X207677D02*
D03*
X205709D02*
D03*
X203740D02*
D03*
X201772D02*
D03*
X199803D02*
D03*
X197835D02*
D03*
X195866D02*
D03*
X193898D02*
D03*
D24*
X190551D02*
D03*
X214961D02*
D03*
D25*
X305191Y305031D02*
D03*
X300860D02*
D03*
X277559Y122047D02*
D03*
X281890D02*
D03*
X279528Y39370D02*
D03*
X283858D02*
D03*
X200787D02*
D03*
X205118D02*
D03*
X279134Y362205D02*
D03*
X283465D02*
D03*
X39173Y39370D02*
D03*
X43504D02*
D03*
X38976Y122047D02*
D03*
X43307D02*
D03*
X121653Y200787D02*
D03*
X125984D02*
D03*
X38976Y279528D02*
D03*
X43307D02*
D03*
X117717Y362205D02*
D03*
X122047D02*
D03*
X362402Y122047D02*
D03*
X358071D02*
D03*
X362402Y39370D02*
D03*
X358071D02*
D03*
X362125Y362032D02*
D03*
X357795D02*
D03*
X361833Y304654D02*
D03*
X357503D02*
D03*
X122047Y39370D02*
D03*
X126378D02*
D03*
X117717Y122047D02*
D03*
X122047D02*
D03*
X39173Y200787D02*
D03*
X43504D02*
D03*
X117717Y279528D02*
D03*
X122047D02*
D03*
X38976Y362205D02*
D03*
X43307D02*
D03*
X279528Y200787D02*
D03*
X283858D02*
D03*
X358111Y201298D02*
D03*
X362442D02*
D03*
D26*
X213415Y346104D02*
D03*
Y342955D02*
D03*
X197638Y325591D02*
D03*
Y328740D02*
D03*
X210386Y263733D02*
D03*
Y260583D02*
D03*
D27*
X180301Y331019D02*
D03*
X183450D02*
D03*
X166929Y310630D02*
D03*
X163779D02*
D03*
X229134Y304331D02*
D03*
X232283D02*
D03*
X166929Y279134D02*
D03*
X163779D02*
D03*
D28*
X202223Y205078D02*
D03*
Y209409D02*
D03*
X200792Y255888D02*
D03*
Y251558D02*
D03*
X207224Y119524D02*
D03*
Y123854D02*
D03*
D29*
X252756Y312008D02*
D03*
Y274606D02*
D03*
D30*
X216831Y364173D02*
D03*
X220177D02*
D03*
X188681D02*
D03*
X185335D02*
D03*
D31*
X264961Y278110D02*
D03*
Y274646D02*
D03*
Y308504D02*
D03*
Y311968D02*
D03*
D32*
X236024Y321024D02*
D03*
X239567D02*
D03*
D33*
X186969Y342480D02*
D03*
Y345630D02*
D03*
X192480D02*
D03*
Y342480D02*
D03*
D34*
X239724Y325748D02*
D03*
X235866D02*
D03*
X183110Y338150D02*
D03*
X186890D02*
D03*
X162638Y304331D02*
D03*
X166496D02*
D03*
X192559Y338150D02*
D03*
X196339D02*
D03*
D35*
X181890Y317323D02*
D03*
X185039D02*
D03*
X188189D02*
D03*
X191339D02*
D03*
X194488D02*
D03*
X197638D02*
D03*
X200787D02*
D03*
X203937D02*
D03*
X207087D02*
D03*
X210236D02*
D03*
X213386D02*
D03*
Y272441D02*
D03*
X210236D02*
D03*
X207087D02*
D03*
X203937D02*
D03*
X200787D02*
D03*
X197638D02*
D03*
X194488D02*
D03*
X191339D02*
D03*
X188189D02*
D03*
X185039D02*
D03*
X181890D02*
D03*
D36*
X220079Y310630D02*
D03*
Y307480D02*
D03*
Y304331D02*
D03*
Y301181D02*
D03*
Y298031D02*
D03*
Y294882D02*
D03*
Y291732D02*
D03*
Y288583D02*
D03*
Y285433D02*
D03*
Y282283D02*
D03*
Y279134D02*
D03*
X175197D02*
D03*
Y282283D02*
D03*
Y285433D02*
D03*
Y288583D02*
D03*
Y291732D02*
D03*
Y294882D02*
D03*
Y298031D02*
D03*
Y301181D02*
D03*
Y304331D02*
D03*
Y307480D02*
D03*
Y310630D02*
D03*
D37*
X232008Y331457D02*
D03*
X242008D02*
D03*
Y353110D02*
D03*
X232008D02*
D03*
M02*
