G04*
G04 #@! TF.GenerationSoftware,Altium Limited,Altium Designer,20.2.4 (192)*
G04*
G04 Layer_Color=8388736*
%FSLAX25Y25*%
%MOIN*%
G70*
G04*
G04 #@! TF.SameCoordinates,1DD117FB-4894-4434-94E6-58AE3DA5C218*
G04*
G04*
G04 #@! TF.FilePolarity,Negative*
G04*
G01*
G75*
%ADD10C,0.00394*%
%ADD11C,0.00197*%
%ADD12C,0.00787*%
%ADD13C,0.00600*%
%ADD14C,0.01968*%
G04:AMPARAMS|DCode=15|XSize=43.31mil|YSize=82.68mil|CornerRadius=21.65mil|HoleSize=0mil|Usage=FLASHONLY|Rotation=0.000|XOffset=0mil|YOffset=0mil|HoleType=Round|Shape=RoundedRectangle|*
%AMROUNDEDRECTD15*
21,1,0.04331,0.03937,0,0,0.0*
21,1,0.00000,0.08268,0,0,0.0*
1,1,0.04331,0.00000,-0.01968*
1,1,0.04331,0.00000,-0.01968*
1,1,0.04331,0.00000,0.01968*
1,1,0.04331,0.00000,0.01968*
%
%ADD15ROUNDEDRECTD15*%
G04:AMPARAMS|DCode=16|XSize=43.31mil|YSize=102.36mil|CornerRadius=21.65mil|HoleSize=0mil|Usage=FLASHONLY|Rotation=0.000|XOffset=0mil|YOffset=0mil|HoleType=Round|Shape=RoundedRectangle|*
%AMROUNDEDRECTD16*
21,1,0.04331,0.05906,0,0,0.0*
21,1,0.00000,0.10236,0,0,0.0*
1,1,0.04331,0.00000,-0.02953*
1,1,0.04331,0.00000,-0.02953*
1,1,0.04331,0.00000,0.02953*
1,1,0.04331,0.00000,0.02953*
%
%ADD16ROUNDEDRECTD16*%
%ADD17C,0.03200*%
G36*
X205726Y381364D02*
X205526D01*
X205489Y381425D01*
X205450Y381484D01*
X205402Y381542D01*
X205359Y381593D01*
X205315Y381637D01*
X205282Y381673D01*
X205268Y381684D01*
X205257Y381695D01*
X205253Y381698D01*
X205249Y381702D01*
X205173Y381764D01*
X205096Y381822D01*
X205024Y381873D01*
X204951Y381913D01*
X204889Y381950D01*
X204863Y381964D01*
X204842Y381975D01*
X204823Y381986D01*
X204809Y381990D01*
X204802Y381997D01*
X204798D01*
Y382295D01*
X204853Y382274D01*
X204907Y382248D01*
X204962Y382223D01*
X205013Y382197D01*
X205056Y382175D01*
X205093Y382157D01*
X205115Y382142D01*
X205118Y382139D01*
X205122D01*
X205187Y382099D01*
X205246Y382059D01*
X205297Y382022D01*
X205337Y381990D01*
X205373Y381964D01*
X205395Y381942D01*
X205413Y381928D01*
X205417Y381924D01*
Y383893D01*
X205726D01*
Y381364D01*
D02*
G37*
G36*
X203513Y383933D02*
X203586Y383923D01*
X203651Y383908D01*
X203710Y383890D01*
X203757Y383875D01*
X203790Y383861D01*
X203812Y383850D01*
X203819Y383846D01*
X203877Y383810D01*
X203928Y383766D01*
X203968Y383722D01*
X204004Y383682D01*
X204030Y383642D01*
X204048Y383613D01*
X204059Y383591D01*
X204063Y383588D01*
Y383584D01*
X204088Y383511D01*
X204110Y383435D01*
X204124Y383351D01*
X204132Y383271D01*
X204139Y383202D01*
Y383173D01*
X204143Y383143D01*
Y383122D01*
Y383107D01*
Y383096D01*
Y383093D01*
Y381375D01*
X203808D01*
Y383111D01*
Y383187D01*
X203801Y383253D01*
X203797Y383307D01*
X203790Y383351D01*
X203782Y383384D01*
X203779Y383409D01*
X203771Y383424D01*
Y383428D01*
X203757Y383464D01*
X203739Y383493D01*
X203717Y383519D01*
X203699Y383544D01*
X203677Y383559D01*
X203662Y383573D01*
X203651Y383580D01*
X203648Y383584D01*
X203611Y383602D01*
X203575Y383617D01*
X203538Y383624D01*
X203506Y383631D01*
X203473Y383635D01*
X203451Y383639D01*
X203429D01*
X203371Y383635D01*
X203316Y383620D01*
X203273Y383606D01*
X203233Y383584D01*
X203204Y383566D01*
X203182Y383548D01*
X203167Y383537D01*
X203164Y383533D01*
X203145Y383511D01*
X203131Y383486D01*
X203109Y383428D01*
X203087Y383362D01*
X203076Y383296D01*
X203065Y383235D01*
Y383209D01*
X203062Y383187D01*
X203058Y383165D01*
Y383151D01*
Y383143D01*
Y383140D01*
X202756Y383184D01*
Y383253D01*
X202760Y383315D01*
X202770Y383377D01*
X202778Y383431D01*
X202792Y383482D01*
X202807Y383526D01*
X202821Y383569D01*
X202836Y383606D01*
X202854Y383639D01*
X202869Y383668D01*
X202883Y383693D01*
X202898Y383711D01*
X202909Y383726D01*
X202916Y383740D01*
X202920Y383744D01*
X202923Y383748D01*
X202960Y383781D01*
X202996Y383810D01*
X203036Y383835D01*
X203080Y383857D01*
X203164Y383890D01*
X203244Y383912D01*
X203320Y383926D01*
X203349Y383930D01*
X203378Y383933D01*
X203400Y383937D01*
X203433D01*
X203513Y383933D01*
D02*
G37*
D10*
X183465Y311024D02*
G03*
X183465Y311024I-1969J0D01*
G01*
X300959Y306114D02*
X305093D01*
X300959Y303948D02*
X305093D01*
Y306114D01*
X300959Y303948D02*
Y306114D01*
X203306Y205177D02*
Y209311D01*
X201140Y205177D02*
Y209311D01*
Y205177D02*
X203306D01*
X201140Y209311D02*
X203306D01*
X199709Y255790D02*
X201875D01*
X199709Y251656D02*
X201875D01*
X199709D02*
Y255790D01*
X201875Y251656D02*
Y255790D01*
X243504Y318307D02*
X262008D01*
X243504Y268307D02*
X262008D01*
Y318307D01*
X243504Y268307D02*
Y318307D01*
X277658Y120965D02*
X281791D01*
X277658Y123130D02*
X281791D01*
X277658Y120965D02*
Y123130D01*
X281791Y120965D02*
Y123130D01*
X279626Y38287D02*
X283760D01*
X279626Y40453D02*
X283760D01*
X279626Y38287D02*
Y40453D01*
X283760Y38287D02*
Y40453D01*
X200886Y38287D02*
X205020D01*
X200886Y40453D02*
X205020D01*
X200886Y38287D02*
Y40453D01*
X205020Y38287D02*
Y40453D01*
X279232Y361122D02*
X283366D01*
X279232Y363287D02*
X283366D01*
X279232Y361122D02*
Y363287D01*
X283366Y361122D02*
Y363287D01*
X39272Y38287D02*
X43406D01*
X39272Y40453D02*
X43406D01*
X39272Y38287D02*
Y40453D01*
X43406Y38287D02*
Y40453D01*
X39075Y120965D02*
X43209D01*
X39075Y123130D02*
X43209D01*
X39075Y120965D02*
Y123130D01*
X43209Y120965D02*
Y123130D01*
X121752Y199705D02*
X125886D01*
X121752Y201870D02*
X125886D01*
X121752Y199705D02*
Y201870D01*
X125886Y199705D02*
Y201870D01*
X39075Y278445D02*
X43209D01*
X39075Y280610D02*
X43209D01*
X39075Y278445D02*
Y280610D01*
X43209Y278445D02*
Y280610D01*
X117815Y361122D02*
X121949D01*
X117815Y363287D02*
X121949D01*
X117815Y361122D02*
Y363287D01*
X121949Y361122D02*
Y363287D01*
X216339Y362992D02*
Y365354D01*
X220669Y362992D02*
Y365354D01*
X216339Y362992D02*
X220669D01*
X216339Y365354D02*
X220669D01*
X263779Y278543D02*
X266142D01*
X263779Y274213D02*
X266142D01*
X263779D02*
Y278543D01*
X266142Y274213D02*
Y278543D01*
X235728Y319941D02*
X239862D01*
X235728Y322106D02*
X239862D01*
X235728Y319941D02*
Y322106D01*
X239862Y319941D02*
Y322106D01*
X185886Y341988D02*
X188051D01*
X185886Y346122D02*
X188051D01*
Y341988D02*
Y346122D01*
X185886Y341988D02*
Y346122D01*
X235728Y326831D02*
X239862D01*
X235728Y324665D02*
X239862D01*
Y326831D01*
X235728Y324665D02*
Y326831D01*
X182933Y337067D02*
X187067D01*
X182933Y339232D02*
X187067D01*
X182933Y337067D02*
Y339232D01*
X187067Y337067D02*
Y339232D01*
X177953Y314567D02*
X217323D01*
X177953Y275197D02*
X217323D01*
X177953D02*
Y314567D01*
X217323Y275197D02*
Y314567D01*
X227165Y332441D02*
X246850D01*
X227165Y352126D02*
X246850D01*
Y332441D02*
Y352126D01*
X227165Y332441D02*
Y352126D01*
X358169Y123130D02*
X362303D01*
X358169Y120965D02*
X362303D01*
Y123130D01*
X358169Y120965D02*
Y123130D01*
Y40453D02*
X362303D01*
X358169Y38287D02*
X362303D01*
Y40453D01*
X358169Y38287D02*
Y40453D01*
X357893Y363115D02*
X362027D01*
X357893Y360949D02*
X362027D01*
Y363115D01*
X357893Y360949D02*
Y363115D01*
X357601Y305737D02*
X361735D01*
X357601Y303571D02*
X361735D01*
Y305737D01*
X357601Y303571D02*
Y305737D01*
X208307Y119622D02*
Y123756D01*
X206142Y119622D02*
Y123756D01*
Y119622D02*
X208307D01*
X206142Y123756D02*
X208307D01*
X122146Y38287D02*
X126279D01*
X122146Y40453D02*
X126279D01*
X122146Y38287D02*
Y40453D01*
X126279Y38287D02*
Y40453D01*
X117815Y120965D02*
X121949D01*
X117815Y123130D02*
X121949D01*
X117815Y120965D02*
Y123130D01*
X121949Y120965D02*
Y123130D01*
X39272Y199705D02*
X43406D01*
X39272Y201870D02*
X43406D01*
X39272Y199705D02*
Y201870D01*
X43406Y199705D02*
Y201870D01*
X117815Y278445D02*
X121949D01*
X117815Y280610D02*
X121949D01*
X117815Y278445D02*
Y280610D01*
X121949Y278445D02*
Y280610D01*
X39075Y361122D02*
X43209D01*
X39075Y363287D02*
X43209D01*
X39075Y361122D02*
Y363287D01*
X43209Y361122D02*
Y363287D01*
X279626Y199705D02*
X283760D01*
X279626Y201870D02*
X283760D01*
X279626Y199705D02*
Y201870D01*
X283760Y199705D02*
Y201870D01*
X189173Y362992D02*
Y365354D01*
X184843Y362992D02*
Y365354D01*
X189173D01*
X184843Y362992D02*
X189173D01*
X162500Y303248D02*
Y305413D01*
X166634Y303248D02*
Y305413D01*
X162500Y303248D02*
X166634D01*
X162500Y305413D02*
X166634D01*
X191398Y341988D02*
Y346122D01*
X193563Y341988D02*
Y346122D01*
X191398D02*
X193563D01*
X191398Y341988D02*
X193563D01*
X263779Y308071D02*
X266142D01*
X263779Y312402D02*
X266142D01*
Y308071D02*
Y312402D01*
X263779Y308071D02*
Y312402D01*
X358210Y200215D02*
Y202381D01*
X362343Y200215D02*
Y202381D01*
X358210Y200215D02*
X362343D01*
X358210Y202381D02*
X362343D01*
X192382Y337067D02*
X196516D01*
X192382Y339232D02*
X196516D01*
X192382Y337067D02*
Y339232D01*
X196516Y337067D02*
Y339232D01*
X252756Y291339D02*
Y295276D01*
X250787Y293307D02*
X254724D01*
X217323Y364173D02*
X219685D01*
X218504Y362992D02*
Y365354D01*
X264961Y275197D02*
Y277559D01*
X263779Y276378D02*
X266142D01*
X237795Y319941D02*
Y322106D01*
X236713Y321024D02*
X238878D01*
X186969Y342972D02*
Y345138D01*
X185886Y344055D02*
X188051D01*
X237795Y324665D02*
Y326831D01*
X236713Y325748D02*
X238878D01*
X185000Y337067D02*
Y339232D01*
X183917Y338150D02*
X186083D01*
X197638Y292913D02*
Y296850D01*
X195669Y294882D02*
X199606D01*
X235039Y342284D02*
X238976D01*
X237008Y340315D02*
Y344252D01*
X185827Y364173D02*
X188189D01*
X187008Y362992D02*
Y365354D01*
X163484Y304331D02*
X165650D01*
X164567Y303248D02*
Y305413D01*
X191398Y344055D02*
X193563D01*
X192480Y342972D02*
Y345138D01*
X264961Y309055D02*
Y311417D01*
X263779Y310236D02*
X266142D01*
X194449Y337067D02*
Y339232D01*
X193366Y338150D02*
X195531D01*
X197642Y384646D02*
X207870D01*
X202756Y379532D02*
Y389760D01*
X211446Y344529D02*
X215384D01*
X213415Y342561D02*
Y346498D01*
X181876Y329050D02*
Y332987D01*
X179907Y331019D02*
X183844D01*
X197638Y325197D02*
Y329134D01*
X195669Y327165D02*
X199606D01*
X163386Y310630D02*
X167323D01*
X165354Y308661D02*
Y312598D01*
X228740Y304331D02*
X232677D01*
X230709Y302362D02*
Y306299D01*
X163386Y279134D02*
X167323D01*
X165354Y277165D02*
Y281102D01*
X210386Y260189D02*
Y264126D01*
X208418Y262158D02*
X212354D01*
D11*
X303026Y303948D02*
Y306114D01*
X301943Y305031D02*
X304108D01*
X298695Y307393D02*
X307356D01*
X298695Y302669D02*
X307356D01*
Y307393D01*
X298695Y302669D02*
Y307393D01*
X201140Y207244D02*
X203306D01*
X202223Y206161D02*
Y208326D01*
X204585Y202913D02*
Y211574D01*
X199861Y202913D02*
Y211574D01*
Y202913D02*
X204585D01*
X199861Y211574D02*
X204585D01*
X198430Y258054D02*
X203154D01*
X198430Y249392D02*
X203154D01*
X198430D02*
Y258054D01*
X203154Y249392D02*
Y258054D01*
X200792Y252640D02*
Y254806D01*
X199709Y253723D02*
X201875D01*
X243110Y263189D02*
Y323425D01*
X262402Y263189D02*
Y323425D01*
X243110Y263189D02*
X262402D01*
X243110Y323425D02*
X262402D01*
X279724Y120965D02*
Y123130D01*
X278642Y122047D02*
X280807D01*
X275394Y119685D02*
X284055D01*
X275394Y124409D02*
X284055D01*
X275394Y119685D02*
Y124409D01*
X284055Y119685D02*
Y124409D01*
X281693Y38287D02*
Y40453D01*
X280610Y39370D02*
X282776D01*
X277362Y37008D02*
X286024D01*
X277362Y41732D02*
X286024D01*
X277362Y37008D02*
Y41732D01*
X286024Y37008D02*
Y41732D01*
X202953Y38287D02*
Y40453D01*
X201870Y39370D02*
X204035D01*
X198622Y37008D02*
X207283D01*
X198622Y41732D02*
X207283D01*
X198622Y37008D02*
Y41732D01*
X207283Y37008D02*
Y41732D01*
X281299Y361122D02*
Y363287D01*
X280217Y362205D02*
X282382D01*
X276969Y359842D02*
X285630D01*
X276969Y364567D02*
X285630D01*
X276969Y359842D02*
Y364567D01*
X285630Y359842D02*
Y364567D01*
X41339Y38287D02*
Y40453D01*
X40256Y39370D02*
X42421D01*
X37008Y37008D02*
X45669D01*
X37008Y41732D02*
X45669D01*
X37008Y37008D02*
Y41732D01*
X45669Y37008D02*
Y41732D01*
X41142Y120965D02*
Y123130D01*
X40059Y122047D02*
X42224D01*
X36811Y119685D02*
X45472D01*
X36811Y124409D02*
X45472D01*
X36811Y119685D02*
Y124409D01*
X45472Y119685D02*
Y124409D01*
X123819Y199705D02*
Y201870D01*
X122736Y200787D02*
X124902D01*
X119488Y198425D02*
X128150D01*
X119488Y203150D02*
X128150D01*
X119488Y198425D02*
Y203150D01*
X128150Y198425D02*
Y203150D01*
X41142Y278445D02*
Y280610D01*
X40059Y279528D02*
X42224D01*
X36811Y277165D02*
X45472D01*
X36811Y281890D02*
X45472D01*
X36811Y277165D02*
Y281890D01*
X45472Y277165D02*
Y281890D01*
X119882Y361122D02*
Y363287D01*
X118799Y362205D02*
X120965D01*
X115551Y359842D02*
X124213D01*
X115551Y364567D02*
X124213D01*
X115551Y359842D02*
Y364567D01*
X124213Y359842D02*
Y364567D01*
X214961Y362402D02*
Y365945D01*
X222047Y362402D02*
Y365945D01*
X214961Y362402D02*
X222047D01*
X214961Y365945D02*
X222047D01*
X262992Y280118D02*
X266929D01*
X262992Y272638D02*
X266929D01*
X262992D02*
Y280118D01*
X266929Y272638D02*
Y280118D01*
X234252Y319252D02*
X241339D01*
X234252Y322795D02*
X241339D01*
X234252Y319252D02*
Y322795D01*
X241339Y319252D02*
Y322795D01*
X185394Y341102D02*
X188543D01*
X185394Y347008D02*
X188543D01*
Y341102D02*
Y347008D01*
X185394Y341102D02*
Y347008D01*
X233465Y328110D02*
X242126D01*
X233465Y323386D02*
X242126D01*
Y328110D01*
X233465Y323386D02*
Y328110D01*
X180669Y335787D02*
X189331D01*
X180669Y340512D02*
X189331D01*
X180669Y335787D02*
Y340512D01*
X189331Y335787D02*
Y340512D01*
X169291Y323228D02*
X225984D01*
X169291Y266535D02*
X225984D01*
X169291D02*
Y323228D01*
X225984Y266535D02*
Y323228D01*
X226772Y328563D02*
X247244D01*
X226772D02*
Y356004D01*
X247244Y328563D02*
Y356004D01*
X226772D02*
X247244D01*
X360236Y120965D02*
Y123130D01*
X359154Y122047D02*
X361319D01*
X355906Y124409D02*
X364567D01*
X355906Y119685D02*
X364567D01*
Y124409D01*
X355906Y119685D02*
Y124409D01*
X360236Y38287D02*
Y40453D01*
X359154Y39370D02*
X361319D01*
X355906Y41732D02*
X364567D01*
X355906Y37008D02*
X364567D01*
Y41732D01*
X355906Y37008D02*
Y41732D01*
X359960Y360949D02*
Y363115D01*
X358877Y362032D02*
X361043D01*
X355629Y364394D02*
X364291D01*
X355629Y359670D02*
X364291D01*
Y364394D01*
X355629Y359670D02*
Y364394D01*
X359668Y303571D02*
Y305737D01*
X358585Y304654D02*
X360751D01*
X355337Y307016D02*
X363999D01*
X355337Y302292D02*
X363999D01*
Y307016D01*
X355337Y302292D02*
Y307016D01*
X206142Y121689D02*
X208307D01*
X207224Y120606D02*
Y122772D01*
X209587Y117358D02*
Y126020D01*
X204862Y117358D02*
Y126020D01*
Y117358D02*
X209587D01*
X204862Y126020D02*
X209587D01*
X124213Y38287D02*
Y40453D01*
X123130Y39370D02*
X125295D01*
X119882Y37008D02*
X128543D01*
X119882Y41732D02*
X128543D01*
X119882Y37008D02*
Y41732D01*
X128543Y37008D02*
Y41732D01*
X119882Y120965D02*
Y123130D01*
X118799Y122047D02*
X120965D01*
X115551Y119685D02*
X124213D01*
X115551Y124409D02*
X124213D01*
X115551Y119685D02*
Y124409D01*
X124213Y119685D02*
Y124409D01*
X41339Y199705D02*
Y201870D01*
X40256Y200787D02*
X42421D01*
X37008Y198425D02*
X45669D01*
X37008Y203150D02*
X45669D01*
X37008Y198425D02*
Y203150D01*
X45669Y198425D02*
Y203150D01*
X119882Y278445D02*
Y280610D01*
X118799Y279528D02*
X120965D01*
X115551Y277165D02*
X124213D01*
X115551Y281890D02*
X124213D01*
X115551Y277165D02*
Y281890D01*
X124213Y277165D02*
Y281890D01*
X41142Y361122D02*
Y363287D01*
X40059Y362205D02*
X42224D01*
X36811Y359842D02*
X45472D01*
X36811Y364567D02*
X45472D01*
X36811Y359842D02*
Y364567D01*
X45472Y359842D02*
Y364567D01*
X281693Y199705D02*
Y201870D01*
X280610Y200787D02*
X282776D01*
X277362Y198425D02*
X286024D01*
X277362Y203150D02*
X286024D01*
X277362Y198425D02*
Y203150D01*
X286024Y198425D02*
Y203150D01*
X190551Y362402D02*
Y365945D01*
X183465Y362402D02*
Y365945D01*
X190551D01*
X183465Y362402D02*
X190551D01*
X160236Y301969D02*
Y306693D01*
X168898Y301969D02*
Y306693D01*
X160236Y301969D02*
X168898D01*
X160236Y306693D02*
X168898D01*
X190905Y341102D02*
Y347008D01*
X194055Y341102D02*
Y347008D01*
X190905D02*
X194055D01*
X190905Y341102D02*
X194055D01*
X262992Y306496D02*
X266929D01*
X262992Y313976D02*
X266929D01*
Y306496D02*
Y313976D01*
X262992Y306496D02*
Y313976D01*
X355946Y198936D02*
Y203660D01*
X364607Y198936D02*
Y203660D01*
X355946Y198936D02*
X364607D01*
X355946Y203660D02*
X364607D01*
X359194Y201298D02*
X361359D01*
X360277Y200215D02*
Y202381D01*
X190118Y335787D02*
X198779D01*
X190118Y340512D02*
X198779D01*
X190118Y335787D02*
Y340512D01*
X198779Y335787D02*
Y340512D01*
D12*
X183189Y366890D02*
X222323D01*
Y400984D01*
X183189D02*
X222323D01*
X183189Y366890D02*
Y400984D01*
X211840Y341380D02*
X214990D01*
X211840D02*
Y347679D01*
X214990D01*
Y341380D02*
Y347679D01*
X185025Y329444D02*
Y332594D01*
X178726Y329444D02*
X185025D01*
X178726D02*
Y332594D01*
X185025D01*
X199213Y324016D02*
Y330315D01*
X196063D02*
X199213D01*
X196063Y324016D02*
Y330315D01*
Y324016D02*
X199213D01*
X162205Y312205D02*
X168504D01*
X162205Y309055D02*
Y312205D01*
Y309055D02*
X168504D01*
Y312205D01*
X227559Y302756D02*
X233858D01*
Y305906D01*
X227559D02*
X233858D01*
X227559Y302756D02*
Y305906D01*
X162205Y280709D02*
X168504D01*
X162205Y277559D02*
Y280709D01*
Y277559D02*
X168504D01*
Y280709D01*
X208811Y259008D02*
Y265307D01*
Y259008D02*
X211961D01*
Y265307D01*
X208811D02*
X211961D01*
X183189Y366890D02*
X222323D01*
Y400984D01*
X183189D02*
X222323D01*
X183189Y366890D02*
Y400984D01*
X211840Y341380D02*
X214990D01*
X211840D02*
Y347679D01*
X214990D01*
Y341380D02*
Y347679D01*
X185025Y329444D02*
Y332594D01*
X178726Y329444D02*
X185025D01*
X178726D02*
Y332594D01*
X185025D01*
X199213Y324016D02*
Y330315D01*
X196063D02*
X199213D01*
X196063Y324016D02*
Y330315D01*
Y324016D02*
X199213D01*
X162205Y312205D02*
X168504D01*
X162205Y309055D02*
Y312205D01*
Y309055D02*
X168504D01*
Y312205D01*
X227559Y302756D02*
X233858D01*
Y305906D01*
X227559D02*
X233858D01*
X227559Y302756D02*
Y305906D01*
X162205Y280709D02*
X168504D01*
X162205Y277559D02*
Y280709D01*
Y277559D02*
X168504D01*
Y280709D01*
X208811Y259008D02*
Y265307D01*
Y259008D02*
X211961D01*
Y265307D01*
X208811D02*
X211961D01*
X184764Y368701D02*
X220748D01*
Y400591D01*
X184764D02*
X220748D01*
X184764Y368701D02*
Y400591D01*
X183189Y399488D02*
X222323D01*
X212332Y342462D02*
X214498D01*
X212332D02*
Y346596D01*
X214498D01*
Y342462D02*
Y346596D01*
X183943Y329936D02*
Y332102D01*
X179809Y329936D02*
X183943D01*
X179809D02*
Y332102D01*
X183943D01*
X198721Y325098D02*
Y329232D01*
X196555D02*
X198721D01*
X196555Y325098D02*
Y329232D01*
Y325098D02*
X198721D01*
X163287Y311713D02*
X167421D01*
X163287Y309547D02*
Y311713D01*
Y309547D02*
X167421D01*
Y311713D01*
X228642Y303248D02*
X232776D01*
Y305413D01*
X228642D02*
X232776D01*
X228642Y303248D02*
Y305413D01*
X163287Y280217D02*
X167421D01*
X163287Y278051D02*
Y280217D01*
Y278051D02*
X167421D01*
Y280217D01*
X209303Y260091D02*
Y264225D01*
Y260091D02*
X211469D01*
Y264225D01*
X209303D02*
X211469D01*
D13*
X198449Y334368D02*
X198982Y334901D01*
X200048D01*
X200581Y334368D01*
Y332236D01*
X200048Y331702D01*
X198982D01*
X198449Y332236D01*
X197382D02*
X196849Y331702D01*
X195783D01*
X195249Y332236D01*
Y334368D01*
X195783Y334901D01*
X196849D01*
X197382Y334368D01*
Y333835D01*
X196849Y333302D01*
X195249D01*
X165771Y317045D02*
X166304Y317579D01*
X167371D01*
X167904Y317045D01*
Y314913D01*
X167371Y314380D01*
X166304D01*
X165771Y314913D01*
X164705Y317579D02*
X162572D01*
Y317045D01*
X164705Y314913D01*
Y314380D01*
X232700Y300116D02*
X233234Y300649D01*
X234300D01*
X234833Y300116D01*
Y297984D01*
X234300Y297450D01*
X233234D01*
X232700Y297984D01*
X231634Y297450D02*
X230568D01*
X231101D01*
Y300649D01*
X231634Y300116D01*
X228968D02*
X228435Y300649D01*
X227369D01*
X226836Y300116D01*
Y297984D01*
X227369Y297450D01*
X228435D01*
X228968Y297984D01*
Y300116D01*
X165771Y274919D02*
X166304Y275452D01*
X167371D01*
X167904Y274919D01*
Y272787D01*
X167371Y272253D01*
X166304D01*
X165771Y272787D01*
X164705Y274919D02*
X164172Y275452D01*
X163105D01*
X162572Y274919D01*
Y274386D01*
X163105Y273853D01*
X162572Y273320D01*
Y272787D01*
X163105Y272253D01*
X164172D01*
X164705Y272787D01*
Y273320D01*
X164172Y273853D01*
X164705Y274386D01*
Y274919D01*
X164172Y273853D02*
X163105D01*
X210803Y257550D02*
X211336Y258083D01*
X212403D01*
X212936Y257550D01*
Y255417D01*
X212403Y254884D01*
X211336D01*
X210803Y255417D01*
X207604Y258083D02*
X208670Y257550D01*
X209737Y256483D01*
Y255417D01*
X209204Y254884D01*
X208137D01*
X207604Y255417D01*
Y255950D01*
X208137Y256483D01*
X209737D01*
D14*
X356174Y206426D02*
X360110D01*
X361422Y207738D01*
X360110Y209050D01*
X357486D01*
X356174Y210362D01*
X357486Y211674D01*
X361422D01*
X364046Y206426D02*
Y214298D01*
Y209050D02*
X367981Y211674D01*
X364046Y209050D02*
X367981Y206426D01*
X338463Y197503D02*
X341087D01*
X342399Y196192D01*
Y192256D01*
X338463D01*
X337152Y193568D01*
X338463Y194880D01*
X342399D01*
X350271Y200127D02*
Y192256D01*
X346335D01*
X345023Y193568D01*
Y196192D01*
X346335Y197503D01*
X350271D01*
X358142Y200127D02*
Y192256D01*
X354206D01*
X352894Y193568D01*
Y196192D01*
X354206Y197503D01*
X358142D01*
X360766Y192256D02*
X366014Y197503D01*
X372573Y192256D02*
X369949D01*
X368637Y193568D01*
Y196192D01*
X369949Y197503D01*
X372573D01*
X373885Y196192D01*
Y194880D01*
X368637D01*
X376509Y192256D02*
Y197503D01*
X380445D01*
X381756Y196192D01*
Y192256D01*
X385692Y198815D02*
Y197503D01*
X384380D01*
X387004D01*
X385692D01*
Y193568D01*
X387004Y192256D01*
X339246Y118110D02*
X343181D01*
X344493Y119422D01*
X343181Y120734D01*
X340558D01*
X339246Y122046D01*
X340558Y123358D01*
X344493D01*
X347117Y118110D02*
Y125982D01*
Y120734D02*
X351053Y123358D01*
X347117Y120734D02*
X351053Y118110D01*
X366796D02*
X364172D01*
X362860Y119422D01*
Y122046D01*
X364172Y123358D01*
X366796D01*
X368108Y122046D01*
Y120734D01*
X362860D01*
X370731Y118110D02*
Y123358D01*
X374667D01*
X375979Y122046D01*
Y118110D01*
X379915Y124670D02*
Y123358D01*
X378603D01*
X381227D01*
X379915D01*
Y119422D01*
X381227Y118110D01*
X341214Y37402D02*
X345150D01*
X346462Y38713D01*
X345150Y40025D01*
X342526D01*
X341214Y41337D01*
X342526Y42649D01*
X346462D01*
X349086Y37402D02*
Y45273D01*
Y40025D02*
X353021Y42649D01*
X349086Y40025D02*
X353021Y37402D01*
X370076Y45273D02*
Y37402D01*
X366141D01*
X364828Y38713D01*
Y41337D01*
X366141Y42649D01*
X370076D01*
X376636Y37402D02*
X374012D01*
X372700Y38713D01*
Y41337D01*
X374012Y42649D01*
X376636D01*
X377948Y41337D01*
Y40025D01*
X372700D01*
X380572Y37402D02*
X383195D01*
X381883D01*
Y45273D01*
X380572D01*
X267065Y37402D02*
X271001D01*
X272313Y38713D01*
X271001Y40025D01*
X268377D01*
X267065Y41337D01*
X268377Y42649D01*
X272313D01*
X274937Y37402D02*
Y45273D01*
Y40025D02*
X278872Y42649D01*
X274937Y40025D02*
X278872Y37402D01*
X290680Y43961D02*
X291991Y45273D01*
X294615D01*
X295927Y43961D01*
Y38713D01*
X294615Y37402D01*
X291991D01*
X290680Y38713D01*
Y43961D01*
X267065Y118110D02*
X271001D01*
X272313Y119422D01*
X271001Y120734D01*
X268377D01*
X267065Y122046D01*
X268377Y123358D01*
X272313D01*
X274937Y118110D02*
Y125982D01*
Y120734D02*
X278872Y123358D01*
X274937Y120734D02*
X278872Y118110D01*
X290680Y124670D02*
X291991Y125982D01*
X294615D01*
X295927Y124670D01*
Y123358D01*
X294615Y122046D01*
X293303D01*
X294615D01*
X295927Y120734D01*
Y119422D01*
X294615Y118110D01*
X291991D01*
X290680Y119422D01*
X267065Y197244D02*
X271001D01*
X272313Y198556D01*
X271001Y199868D01*
X268377D01*
X267065Y201180D01*
X268377Y202492D01*
X272313D01*
X274937Y197244D02*
Y205116D01*
Y199868D02*
X278872Y202492D01*
X274937Y199868D02*
X278872Y197244D01*
X295927Y205116D02*
X293303Y203804D01*
X290680Y201180D01*
Y198556D01*
X291991Y197244D01*
X294615D01*
X295927Y198556D01*
Y199868D01*
X294615Y201180D01*
X290680D01*
X186356Y37402D02*
X190292D01*
X191604Y38713D01*
X190292Y40025D01*
X187668D01*
X186356Y41337D01*
X187668Y42649D01*
X191604D01*
X194228Y37402D02*
Y45273D01*
Y40025D02*
X198164Y42649D01*
X194228Y40025D02*
X198164Y37402D01*
X209971Y42649D02*
X215218Y37402D01*
X212595Y40025D01*
X215218Y42649D01*
X209971Y37402D01*
X186356Y118110D02*
X190292D01*
X191604Y119422D01*
X190292Y120734D01*
X187668D01*
X186356Y122046D01*
X187668Y123358D01*
X191604D01*
X194228Y118110D02*
Y125982D01*
Y120734D02*
X198164Y123358D01*
X194228Y120734D02*
X198164Y118110D01*
X215218D02*
X209971D01*
X215218Y123358D01*
Y124670D01*
X213907Y125982D01*
X211283D01*
X209971Y124670D01*
X186356Y198819D02*
X190292D01*
X191604Y200131D01*
X190292Y201443D01*
X187668D01*
X186356Y202755D01*
X187668Y204067D01*
X191604D01*
X194228Y198819D02*
Y206690D01*
Y201443D02*
X198164Y204067D01*
X194228Y201443D02*
X198164Y198819D01*
X215218Y206690D02*
X209971D01*
Y202755D01*
X212595Y204067D01*
X213907D01*
X215218Y202755D01*
Y200131D01*
X213907Y198819D01*
X211283D01*
X209971Y200131D01*
X105648Y198819D02*
X109583D01*
X110895Y200131D01*
X109583Y201443D01*
X106960D01*
X105648Y202755D01*
X106960Y204066D01*
X110895D01*
X113519Y198819D02*
Y206690D01*
Y201443D02*
X117455Y204066D01*
X113519Y201443D02*
X117455Y198819D01*
X133198D02*
Y206690D01*
X129262Y202755D01*
X134510D01*
X106960Y116142D02*
X110895D01*
X112207Y117454D01*
X110895Y118766D01*
X108272D01*
X106960Y120078D01*
X108272Y121389D01*
X112207D01*
X114831Y116142D02*
Y124013D01*
Y118766D02*
X118767Y121389D01*
X114831Y118766D02*
X118767Y116142D01*
X130574D02*
X133198D01*
X131886D01*
Y124013D01*
X130574Y122701D01*
X105648Y37402D02*
X109583D01*
X110895Y38713D01*
X109583Y40025D01*
X106960D01*
X105648Y41337D01*
X106960Y42649D01*
X110895D01*
X113519Y37402D02*
Y45273D01*
Y40025D02*
X117455Y42649D01*
X113519Y40025D02*
X117455Y37402D01*
X129262Y42649D02*
X134510Y37402D01*
X131886Y40025D01*
X134510Y42649D01*
X129262Y37402D01*
X26941Y36970D02*
X30877D01*
X32189Y38281D01*
X30877Y39593D01*
X28253D01*
X26941Y40905D01*
X28253Y42217D01*
X32189D01*
X34813Y36970D02*
Y44841D01*
Y39593D02*
X38748Y42217D01*
X34813Y39593D02*
X38748Y36970D01*
X50556Y42217D02*
X55803D01*
X50556Y36970D01*
X55803D01*
X21003Y116142D02*
X24939D01*
X26251Y117454D01*
X24939Y118766D01*
X22315D01*
X21003Y120078D01*
X22315Y121389D01*
X26251D01*
X28875Y116142D02*
Y124013D01*
Y118766D02*
X32811Y121389D01*
X28875Y118766D02*
X32811Y116142D01*
X44618Y118766D02*
X49865D01*
X44618Y121389D02*
X49865D01*
X52489Y122701D02*
X53801Y124013D01*
X56425D01*
X57737Y122701D01*
Y121389D01*
X56425Y120078D01*
X55113D01*
X56425D01*
X57737Y118766D01*
Y117454D01*
X56425Y116142D01*
X53801D01*
X52489Y117454D01*
X21003Y198819D02*
X24939D01*
X26251Y200131D01*
X24939Y201443D01*
X22315D01*
X21003Y202755D01*
X22315Y204066D01*
X26251D01*
X28875Y198819D02*
Y206690D01*
Y201443D02*
X32811Y204066D01*
X28875Y201443D02*
X32811Y198819D01*
X44618Y201443D02*
X49865D01*
X44618Y204066D02*
X49865D01*
X57737Y198819D02*
X52489D01*
X57737Y204066D01*
Y205379D01*
X56425Y206690D01*
X53801D01*
X52489Y205379D01*
X339902Y279528D02*
X343838D01*
X345150Y280839D01*
X343838Y282151D01*
X341214D01*
X339902Y283463D01*
X341214Y284775D01*
X345150D01*
X347774Y279528D02*
Y287399D01*
Y282151D02*
X351709Y284775D01*
X347774Y282151D02*
X351709Y279528D01*
X364828Y284775D02*
X367452D01*
X368764Y283463D01*
Y279528D01*
X364828D01*
X363517Y280839D01*
X364828Y282151D01*
X368764D01*
X376636Y287399D02*
Y279528D01*
X372700D01*
X371388Y280839D01*
Y283463D01*
X372700Y284775D01*
X376636D01*
X384507Y287399D02*
Y279528D01*
X380572D01*
X379260Y280839D01*
Y283463D01*
X380572Y284775D01*
X384507D01*
X265096Y279528D02*
X269032D01*
X270344Y280839D01*
X269032Y282151D01*
X266408D01*
X265096Y283463D01*
X266408Y284775D01*
X270344D01*
X272968Y279528D02*
Y287399D01*
Y282151D02*
X276904Y284775D01*
X272968Y282151D02*
X276904Y279528D01*
X288711Y280839D02*
X290023Y279528D01*
X292647D01*
X293959Y280839D01*
Y286087D01*
X292647Y287399D01*
X290023D01*
X288711Y286087D01*
Y284775D01*
X290023Y283463D01*
X293959D01*
X186356Y277559D02*
X190292D01*
X191604Y278871D01*
X190292Y280183D01*
X187668D01*
X186356Y281495D01*
X187668Y282807D01*
X191604D01*
X194228Y277559D02*
Y285431D01*
Y280183D02*
X198164Y282807D01*
X194228Y280183D02*
X198164Y277559D01*
X209971Y284119D02*
X211283Y285431D01*
X213907D01*
X215218Y284119D01*
Y282807D01*
X213907Y281495D01*
X215218Y280183D01*
Y278871D01*
X213907Y277559D01*
X211283D01*
X209971Y278871D01*
Y280183D01*
X211283Y281495D01*
X209971Y282807D01*
Y284119D01*
X211283Y281495D02*
X213907D01*
X105648Y279528D02*
X109583D01*
X110895Y280839D01*
X109583Y282151D01*
X106960D01*
X105648Y283463D01*
X106960Y284775D01*
X110895D01*
X113519Y279528D02*
Y287399D01*
Y282151D02*
X117455Y284775D01*
X113519Y282151D02*
X117455Y279528D01*
X129262Y287399D02*
X134510D01*
Y286087D01*
X129262Y280839D01*
Y279528D01*
X22315D02*
X26251D01*
X27563Y280839D01*
X26251Y282151D01*
X23627D01*
X22315Y283463D01*
X23627Y284775D01*
X27563D01*
X30187Y279528D02*
Y287399D01*
Y282151D02*
X34122Y284775D01*
X30187Y282151D02*
X34122Y279528D01*
X45930Y282151D02*
X51177D01*
X45930Y284775D02*
X51177D01*
X53801Y279528D02*
X56425D01*
X55113D01*
Y287399D01*
X53801Y286087D01*
X340551Y360236D02*
X344487D01*
X345799Y361548D01*
X344487Y362860D01*
X341863D01*
X340551Y364172D01*
X341863Y365484D01*
X345799D01*
X348423Y360236D02*
Y368108D01*
Y362860D02*
X352358Y365484D01*
X348423Y362860D02*
X352358Y360236D01*
X364166D02*
X368101D01*
X369413Y361548D01*
X368101Y362860D01*
X365477D01*
X364166Y364172D01*
X365477Y365484D01*
X369413D01*
X372037D02*
Y361548D01*
X373349Y360236D01*
X377285D01*
Y365484D01*
X379909Y368108D02*
Y360236D01*
X383844D01*
X385156Y361548D01*
Y362860D01*
Y364172D01*
X383844Y365484D01*
X379909D01*
X257226Y360236D02*
X261161D01*
X262473Y361548D01*
X261161Y362860D01*
X258538D01*
X257226Y364172D01*
X258538Y365484D01*
X262473D01*
X265097Y360236D02*
Y368108D01*
Y362860D02*
X269033Y365484D01*
X265097Y362860D02*
X269033Y360236D01*
X280840D02*
Y365484D01*
X282152D01*
X283464Y364172D01*
Y360236D01*
Y364172D01*
X284776Y365484D01*
X286088Y364172D01*
Y360236D01*
X288712Y365484D02*
Y361548D01*
X290023Y360236D01*
X293959D01*
Y365484D01*
X296583Y360236D02*
X299207D01*
X297895D01*
Y368108D01*
X296583D01*
X304454Y366796D02*
Y365484D01*
X303143D01*
X305766D01*
X304454D01*
Y361548D01*
X305766Y360236D01*
X98432D02*
X102368D01*
X103680Y361548D01*
X102368Y362860D01*
X99744D01*
X98432Y364172D01*
X99744Y365484D01*
X103680D01*
X106304Y360236D02*
Y368108D01*
Y362860D02*
X110239Y365484D01*
X106304Y362860D02*
X110239Y360236D01*
X127294Y368108D02*
Y360236D01*
X123359D01*
X122047Y361548D01*
Y364172D01*
X123359Y365484D01*
X127294D01*
X129918Y360236D02*
X132542D01*
X131230D01*
Y365484D01*
X129918D01*
X136478D02*
X139102Y360236D01*
X141725Y365484D01*
X17068Y360236D02*
X21003D01*
X22315Y361548D01*
X21003Y362860D01*
X18380D01*
X17068Y364172D01*
X18380Y365484D01*
X22315D01*
X24939Y360236D02*
Y368108D01*
Y362860D02*
X28875Y365484D01*
X24939Y362860D02*
X28875Y360236D01*
X40682D02*
Y365484D01*
X44618D01*
X45930Y364172D01*
Y360236D01*
X48553Y365484D02*
Y361548D01*
X49865Y360236D01*
X53801D01*
Y365484D01*
X56425Y360236D02*
Y365484D01*
X57737D01*
X59049Y364172D01*
Y360236D01*
Y364172D01*
X60361Y365484D01*
X61673Y364172D01*
Y360236D01*
D15*
X185748Y371417D02*
D03*
X219764D02*
D03*
D16*
X185748Y392520D02*
D03*
X219764D02*
D03*
D17*
X204724Y363386D02*
D03*
X194438Y239138D02*
D03*
X242406Y200675D02*
D03*
X220721Y332591D02*
D03*
X160585Y319434D02*
D03*
X200914Y239229D02*
D03*
X318550Y240525D02*
D03*
X229799Y319498D02*
D03*
X342516Y319618D02*
D03*
X202250Y160568D02*
D03*
X200000Y363386D02*
D03*
Y379921D02*
D03*
X205512D02*
D03*
X209055D02*
D03*
X212205Y364173D02*
D03*
M02*
